  0
SECTION
  2
HEADER
  9
$ACADVER
  1
AC1009
  9
$DWGCODEPAGE
  3
ansi_1252
  9
$INSBASE
 10
0.0
 20
0.0
 30
0.0
  9
$EXTMIN
 10
-0.5529860879812531
 20
0.4482903553976598
 30
0.0
  9
$EXTMAX
 10
595.4134169800365
 20
420.4482903553977
 30
0.0
  9
$LIMMIN
 10
0.0
 20
0.0
  9
$LIMMAX
 10
12.0
 20
9.0
  9
$ORTHOMODE
 70
     1
  9
$REGENMODE
 70
     1
  9
$FILLMODE
 70
     1
  9
$QTEXTMODE
 70
     0
  9
$MIRRTEXT
 70
     0
  9
$DRAGMODE
 70
     2
  9
$LTSCALE
 40
1.0
  9
$OSMODE
 70
   511
  9
$ATTMODE
 70
     1
  9
$TEXTSIZE
 40
0.2
  9
$TRACEWID
 40
0.05
  9
$TEXTSTYLE
  7
STANDARD
  9
$CLAYER
  8
MARKERS
  9
$CELTYPE
  6
BYLAYER
  9
$CECOLOR
 62
   256
  9
$DIMSCALE
 40
1.0
  9
$DIMASZ
 40
0.18
  9
$DIMEXO
 40
0.0625
  9
$DIMDLI
 40
0.38
  9
$DIMRND
 40
0.0
  9
$DIMDLE
 40
0.0
  9
$DIMEXE
 40
0.18
  9
$DIMTP
 40
0.0
  9
$DIMTM
 40
0.0
  9
$DIMTXT
 40
1.0
  9
$DIMCEN
 40
0.09
  9
$DIMTSZ
 40
0.0
  9
$DIMTOL
 70
     0
  9
$DIMLIM
 70
     0
  9
$DIMTIH
 70
     1
  9
$DIMTOH
 70
     1
  9
$DIMSE1
 70
     0
  9
$DIMSE2
 70
     0
  9
$DIMTAD
 70
     0
  9
$DIMZIN
 70
     0
  9
$DIMBLK
  1

  9
$DIMASO
 70
     1
  9
$DIMSHO
 70
     1
  9
$DIMPOST
  1

  9
$DIMAPOST
  1

  9
$DIMALT
 70
     0
  9
$DIMALTD
 70
     2
  9
$DIMALTF
 40
25.4
  9
$DIMLFAC
 40
1.0
  9
$DIMTOFL
 70
     0
  9
$DIMTVP
 40
0.0
  9
$DIMTIX
 70
     0
  9
$DIMSOXD
 70
     0
  9
$DIMSAH
 70
     0
  9
$DIMBLK1
  1

  9
$DIMBLK2
  1

  9
$DIMSTYLE
  2
STANDARD
  9
$DIMCLRD
 70
     0
  9
$DIMCLRE
 70
     0
  9
$DIMCLRT
 70
     0
  9
$DIMTFAC
 40
1.0
  9
$DIMGAP
 40
0.09
  9
$LUNITS
 70
     2
  9
$LUPREC
 70
     4
  9
$SKETCHINC
 40
0.1
  9
$FILLETRAD
 40
0.0
  9
$AUNITS
 70
     0
  9
$AUPREC
 70
     0
  9
$MENU
  1
.
  9
$ELEVATION
 40
0.0
  9
$PELEVATION
 40
0.0
  9
$THICKNESS
 40
0.0
  9
$LIMCHECK
 70
     0
  9
$CHAMFERA
 40
0.0
  9
$CHAMFERB
 40
0.0
  9
$SKPOLY
 70
     0
  9
$TDCREATE
 40
2452643.063384271
  9
$TDUPDATE
 40
2457598.602826609
  9
$TDINDWG
 40
0.0117815856
  9
$TDUSRTIMER
 40
2457598.543287141
  9
$USRTIMER
 70
     1
  9
$ANGBASE
 50
0.0
  9
$ANGDIR
 70
     0
  9
$PDMODE
 70
     0
  9
$PDSIZE
 40
0.0
  9
$PLINEWID
 40
0.0
  9
$COORDS
 70
     1
  9
$SPLFRAME
 70
     0
  9
$SPLINETYPE
 70
     6
  9
$SPLINESEGS
 70
     8
  9
$ATTDIA
 70
     0
  9
$ATTREQ
 70
     1
  9
$HANDLING
 70
     1
  9
$HANDSEED
  5
4169
  9
$SURFTAB1
 70
     6
  9
$SURFTAB2
 70
     6
  9
$SURFTYPE
 70
     6
  9
$SURFU
 70
     6
  9
$SURFV
 70
     6
  9
$UCSNAME
  2

  9
$UCSORG
 10
0.0
 20
0.0
 30
0.0
  9
$UCSXDIR
 10
1.0
 20
0.0
 30
0.0
  9
$UCSYDIR
 10
0.0
 20
1.0
 30
0.0
  9
$PUCSNAME
  2

  9
$PUCSORG
 10
0.0
 20
0.0
 30
0.0
  9
$PUCSXDIR
 10
1.0
 20
0.0
 30
0.0
  9
$PUCSYDIR
 10
0.0
 20
1.0
 30
0.0
  9
$USERI1
 70
     0
  9
$USERI2
 70
     0
  9
$USERI3
 70
     0
  9
$USERI4
 70
     0
  9
$USERI5
 70
     0
  9
$USERR1
 40
0.0
  9
$USERR2
 40
0.0
  9
$USERR3
 40
0.0
  9
$USERR4
 40
0.0
  9
$USERR5
 40
0.0
  9
$WORLDVIEW
 70
     1
  9
$SHADEDGE
 70
     3
  9
$SHADEDIF
 70
    70
  9
$TILEMODE
 70
     1
  9
$MAXACTVP
 70
    64
  9
$PLIMCHECK
 70
     0
  9
$PEXTMIN
 10
0.0
 20
0.0
 30
0.0
  9
$PEXTMAX
 10
0.0
 20
0.0
 30
0.0
  9
$PLIMMIN
 10
0.0
 20
0.0
  9
$PLIMMAX
 10
0.0
 20
0.0
  9
$UNITMODE
 70
     0
  9
$VISRETAIN
 70
     1
  9
$PLINEGEN
 70
     0
  9
$PSLTSCALE
 70
     1
  0
ENDSEC
  0
SECTION
  2
TABLES
  0
TABLE
  2
VPORT
 70
     1
  0
VPORT
  2
*ACTIVE
 70
     0
 10
0.0
 20
0.0
 11
1.0
 21
1.0
 12
471.1015354294333
 22
228.2542904132109
 13
0.0
 23
0.0
 14
0.5
 24
0.5
 15
0.5
 25
0.5
 16
0.0
 26
0.0
 36
1.0
 17
-27.66959356597954
 27
-19.53870295786191
 37
0.0
 40
840.2772931207288
 41
2.339308578745198
 42
50.0
 43
0.0
 44
0.0
 50
0.0
 51
0.0
 71
    16
 72
  1000
 73
     1
 74
     3
 75
     0
 76
     0
 77
     0
 78
     0
  0
ENDTAB
  0
TABLE
  2
LTYPE
 70
     1
  0
LTYPE
  2
CONTINUOUS
 70
     0
  3
Solid line
 72
    65
 73
     0
 40
0.0
  0
ENDTAB
  0
TABLE
  2
LAYER
 70
     8
  0
LAYER
  2
0
 70
     0
 62
     7
  6
CONTINUOUS
  0
LAYER
  2
FIRSTCUT
 70
     0
 62
     1
  6
CONTINUOUS
  0
LAYER
  2
SECONDCUT
 70
     0
 62
     5
  6
CONTINUOUS
  0
LAYER
  2
TEMP
 70
     0
 62
     4
  6
CONTINUOUS
  0
LAYER
  2
MARKERS
 70
     0
 62
     2
  6
CONTINUOUS
  0
LAYER
  2
CUT
 70
     0
 62
     4
  6
CONTINUOUS
  0
LAYER
  2
NOCUT
 70
     0
 62
     4
  6
CONTINUOUS
  0
LAYER
  2
DEFPOINTS
 70
     0
 62
     7
  6
CONTINUOUS
  0
ENDTAB
  0
TABLE
  2
STYLE
 70
     1
  0
STYLE
  2
STANDARD
 70
     0
 40
0.0
 41
1.0
 50
0.0
 71
     0
 42
0.2
  3
arial.ttf
  4

  0
ENDTAB
  0
TABLE
  2
VIEW
 70
     0
  0
ENDTAB
  0
TABLE
  2
UCS
 70
     0
  0
ENDTAB
  0
TABLE
  2
APPID
 70
     2
  0
APPID
  2
ACAD
 70
     0
  0
APPID
  2
ACAECLAYERSTANDARD
 70
     0
  0
ENDTAB
  0
TABLE
  2
DIMSTYLE
 70
     2
  0
DIMSTYLE
  2
STANDARD
 70
     0
  3

  4

  5

  6

  7

 40
1.0
 41
0.18
 42
0.0625
 43
0.38
 44
0.18
 45
0.0
 46
0.0
 47
0.0
 48
0.0
140
1.0
141
0.09
142
0.0
143
25.4
144
1.0
145
0.0
146
1.0
147
0.09
 71
     0
 72
     0
 73
     1
 74
     1
 75
     0
 76
     0
 77
     0
 78
     0
170
     0
171
     2
172
     0
173
     0
174
     0
175
     0
176
     0
177
     0
178
     0
  0
DIMSTYLE
  2
ISO-25
 70
     0
  3

  4

  5

  6

  7

 40
1.0
 41
2.5
 42
0.625
 43
3.75
 44
1.25
 45
0.0
 46
0.0
 47
0.0
 48
0.0
140
2.5
141
2.5
142
0.0
143
0.03937007874016
144
1.0
145
0.0
146
1.0
147
0.625
 71
     0
 72
     0
 73
     0
 74
     0
 75
     0
 76
     0
 77
     1
 78
     8
170
     0
171
     3
172
     1
173
     0
174
     0
175
     0
176
     0
177
     0
178
     0
  0
ENDTAB
  0
ENDSEC
  0
SECTION
  2
BLOCKS
  0
BLOCK
  8
0
  2
$MODEL_SPACE
 70
     0
 10
0.0
 20
0.0
 30
0.0
  3
$MODEL_SPACE
  1

  0
ENDBLK
  5
21
  8
0
  0
BLOCK
 67
     1
  8
0
  2
$PAPER_SPACE
 70
     0
 10
0.0
 20
0.0
 30
0.0
  3
$PAPER_SPACE
  1

  0
ENDBLK
  5
5B
 67
     1
  8
0
  0
BLOCK
  8
0
  2
*D2
 70
     1
 10
0.0
 20
0.0
 30
0.0
  3
*D2
  1

  0
LINE
  5
3BC4
  8
MARKERS
 62
     0
 10
-0.5529860879812531
 20
210.5107903553977
 30
0.0
 11
-0.5529860879812531
 21
493.3586453342245
 31
0.0
  0
LINE
  5
3BC5
  8
MARKERS
 62
     0
 10
595.4134169800365
 20
210.5107903553977
 30
0.0
 11
595.4134169800365
 21
493.3586453342245
 31
0.0
  0
LINE
  5
3BC6
  8
MARKERS
 62
     0
 10
-0.3729860879812532
 20
493.1786453342245
 30
0.0
 11
294.4927154460276
 21
493.1786453342245
 31
0.0
  0
LINE
  5
3BC7
  8
MARKERS
 62
     0
 10
595.2334169800365
 20
493.1786453342245
 30
0.0
 11
300.3677154460277
 21
493.1786453342245
 31
0.0
  0
SOLID
  5
3BC8
  8
MARKERS
 62
     0
 10
-0.3729860879812532
 20
493.2086453342245
 30
0.0
 11
-0.3729860879812532
 21
493.1486453342245
 31
0.0
 12
-0.5529860879812531
 22
493.1786453342245
 32
0.0
 13
-0.5529860879812531
 23
493.1786453342245
 33
0.0
  0
SOLID
  5
3BC9
  8
MARKERS
 62
     0
 10
595.2334169800365
 20
493.1486453342245
 30
0.0
 11
595.2334169800365
 21
493.2086453342245
 31
0.0
 12
595.4134169800365
 22
493.1786453342245
 32
0.0
 13
595.4134169800365
 23
493.1786453342245
 33
0.0
  0
TEXT
  5
3BCA
  8
MARKERS
  6
CONTINUOUS
 62
     0
 10
294.5247154460276
 20
492.6871453342245
 30
0.0
 40
1.0
  1
595.9664
  0
POINT
  5
3BCB
  8
DEFPOINTS
 62
     0
 10
-0.5529860879812531
 20
210.4482903553977
 30
0.0
  0
POINT
  5
3BCC
  8
DEFPOINTS
 62
     0
 10
595.4134169800365
 20
210.4482903553977
 30
0.0
  0
POINT
  5
3BCD
  8
DEFPOINTS
 62
     0
 10
595.4134169800365
 20
493.1786453342245
 30
0.0
  0
ENDBLK
  5
3BC3
  8
0
  0
ENDSEC
  0
SECTION
  2
ENTITIES
  0
ARC
  5
1B8
  8
FIRSTCUT
 62
     1
 10
462.2409225244834
 20
124.5823575814947
 30
0.0
 40
66.99110015122335
 50
270.8469559323868
 51
90.0
  0
POLYLINE
  5
1C4
  8
FIRSTCUT
 62
     1
 66
     1
 10
0.0
 20
0.0
 30
0.0
  0
VERTEX
  5
3BCE
  8
FIRSTCUT
 62
     1
 10
461.2467497301979
 20
191.5660803798458
 30
0.0
 42
0.9926069380289422
  0
VERTEX
  5
3BCF
  8
FIRSTCUT
 62
     1
 10
462.2409225244834
 20
57.59125743027141
 30
0.0
  0
SEQEND
  5
4114
  8
FIRSTCUT
 62
     1
  0
POLYLINE
  5
B9E
  8
SECONDCUT
 66
     1
 10
0.0
 20
0.0
 30
0.0
 70
     1
  0
VERTEX
  5
3BD0
  8
SECONDCUT
 10
241.9618080598319
 20
186.462637347428
 30
0.0
  0
VERTEX
  5
3BD1
  8
SECONDCUT
 10
241.9618080598319
 20
194.1055662179278
 30
0.0
  0
VERTEX
  5
3BD2
  8
SECONDCUT
 10
244.9618296206319
 20
194.1055662179278
 30
0.0
  0
VERTEX
  5
3BD3
  8
SECONDCUT
 10
244.9618296206319
 20
201.988383924428
 30
0.0
  0
VERTEX
  5
3BD4
  8
SECONDCUT
 10
241.9618080598319
 20
201.988383924428
 30
0.0
  0
VERTEX
  5
3BD5
  8
SECONDCUT
 10
241.9618080598319
 20
209.6309600172281
 30
0.0
  0
VERTEX
  5
3BD6
  8
SECONDCUT
 10
244.9618296206319
 20
209.6309600172281
 30
0.0
  0
VERTEX
  5
3BD7
  8
SECONDCUT
 10
244.9618296206319
 20
217.5137777237278
 30
0.0
  0
VERTEX
  5
3BD8
  8
SECONDCUT
 10
241.9618080598319
 20
217.5137777237278
 30
0.0
  0
VERTEX
  5
3BD9
  8
SECONDCUT
 10
241.9618080598319
 20
225.1567065942279
 30
0.0
  0
VERTEX
  5
3BDA
  8
SECONDCUT
 10
244.9618296206319
 20
225.1567065942279
 30
0.0
  0
VERTEX
  5
3BDB
  8
SECONDCUT
 10
244.9618296206319
 20
233.039171523028
 30
0.0
  0
VERTEX
  5
3BDC
  8
SECONDCUT
 10
241.9618080598319
 20
233.039171523028
 30
0.0
  0
VERTEX
  5
3BDD
  8
SECONDCUT
 10
241.9618080598319
 20
237.7420510417278
 30
0.0
  0
VERTEX
  5
3BDE
  8
SECONDCUT
 10
237.259281318832
 20
237.7420510417278
 30
0.0
  0
VERTEX
  5
3BDF
  8
SECONDCUT
 10
237.259281318832
 20
240.742072602528
 30
0.0
  0
VERTEX
  5
3BE0
  8
SECONDCUT
 10
229.3764636123318
 20
240.742072602528
 30
0.0
  0
VERTEX
  5
3BE1
  8
SECONDCUT
 10
229.3764636123318
 20
237.7420510417278
 30
0.0
  0
VERTEX
  5
3BE2
  8
SECONDCUT
 10
221.7335347418319
 20
237.7420510417278
 30
0.0
  0
VERTEX
  5
3BE3
  8
SECONDCUT
 10
221.7335347418319
 20
240.742072602528
 30
0.0
  0
VERTEX
  5
3BE4
  8
SECONDCUT
 10
213.850717035332
 20
240.742072602528
 30
0.0
  0
VERTEX
  5
3BE5
  8
SECONDCUT
 10
213.850717035332
 20
237.7420510417278
 30
0.0
  0
VERTEX
  5
3BE6
  8
SECONDCUT
 10
206.2081409425319
 20
237.7420510417278
 30
0.0
  0
VERTEX
  5
3BE7
  8
SECONDCUT
 10
206.2081409425319
 20
240.742072602528
 30
0.0
  0
VERTEX
  5
3BE8
  8
SECONDCUT
 10
198.325323236032
 20
240.742072602528
 30
0.0
  0
VERTEX
  5
3BE9
  8
SECONDCUT
 10
198.325323236032
 20
237.7420510417278
 30
0.0
  0
VERTEX
  5
3BEA
  8
SECONDCUT
 10
190.6823943655319
 20
237.7420510417278
 30
0.0
  0
VERTEX
  5
3BEB
  8
SECONDCUT
 10
190.6823943655319
 20
240.742072602528
 30
0.0
  0
VERTEX
  5
3BEC
  8
SECONDCUT
 10
182.799929436732
 20
240.742072602528
 30
0.0
  0
VERTEX
  5
3BED
  8
SECONDCUT
 10
182.799929436732
 20
237.7420510417278
 30
0.0
  0
VERTEX
  5
3BEE
  8
SECONDCUT
 10
175.1570005662319
 20
237.7420510417278
 30
0.0
  0
VERTEX
  5
3BEF
  8
SECONDCUT
 10
175.1570005662319
 20
240.742072602528
 30
0.0
  0
VERTEX
  5
3BF0
  8
SECONDCUT
 10
167.2741828597319
 20
240.742072602528
 30
0.0
  0
VERTEX
  5
3BF1
  8
SECONDCUT
 10
167.2741828597319
 20
237.7420510417278
 30
0.0
  0
VERTEX
  5
3BF2
  8
SECONDCUT
 10
159.6316067669319
 20
237.7420510417278
 30
0.0
  0
VERTEX
  5
3BF3
  8
SECONDCUT
 10
159.6316067669319
 20
240.742072602528
 30
0.0
  0
VERTEX
  5
3BF4
  8
SECONDCUT
 10
151.7487890604319
 20
240.742072602528
 30
0.0
  0
VERTEX
  5
3BF5
  8
SECONDCUT
 10
151.7487890604319
 20
237.7420510417278
 30
0.0
  0
VERTEX
  5
3BF6
  8
SECONDCUT
 10
144.1058601899321
 20
237.7420510417278
 30
0.0
  0
VERTEX
  5
3BF7
  8
SECONDCUT
 10
144.1058601899321
 20
240.742072602528
 30
0.0
  0
VERTEX
  5
3BF8
  8
SECONDCUT
 10
136.2233952611319
 20
240.742072602528
 30
0.0
  0
VERTEX
  5
3BF9
  8
SECONDCUT
 10
136.2233952611319
 20
237.7420510417278
 30
0.0
  0
VERTEX
  5
3BFA
  8
SECONDCUT
 10
128.5804663906318
 20
237.7420510417278
 30
0.0
  0
VERTEX
  5
3BFB
  8
SECONDCUT
 10
128.5804663906318
 20
240.742072602528
 30
0.0
  0
VERTEX
  5
3BFC
  8
SECONDCUT
 10
120.6977545174419
 20
240.742072602528
 30
0.0
  0
VERTEX
  5
3BFD
  8
SECONDCUT
 10
120.6977545174419
 20
237.7420510417278
 30
0.0
  0
VERTEX
  5
3BFE
  8
SECONDCUT
 10
113.055002035792
 20
237.7420510417278
 30
0.0
  0
VERTEX
  5
3BFF
  8
SECONDCUT
 10
113.055002035792
 20
240.742072602528
 30
0.0
  0
VERTEX
  5
3C00
  8
SECONDCUT
 10
105.1722548848319
 20
240.742072602528
 30
0.0
  0
VERTEX
  5
3C01
  8
SECONDCUT
 10
105.1722548848319
 20
237.7420510417278
 30
0.0
  0
VERTEX
  5
3C02
  8
SECONDCUT
 10
97.529467125412
 20
237.7420510417278
 30
0.0
  0
VERTEX
  5
3C03
  8
SECONDCUT
 10
97.529467125412
 20
240.742072602528
 30
0.0
  0
VERTEX
  5
3C04
  8
SECONDCUT
 10
89.64671997445191
 20
240.742072602528
 30
0.0
  0
VERTEX
  5
3C05
  8
SECONDCUT
 10
89.64671997445191
 20
237.7420510417278
 30
0.0
  0
VERTEX
  5
3C06
  8
SECONDCUT
 10
82.00396749280196
 20
237.7420510417278
 30
0.0
  0
VERTEX
  5
3C07
  8
SECONDCUT
 10
82.00396749280196
 20
240.742072602528
 30
0.0
  0
VERTEX
  5
3C08
  8
SECONDCUT
 10
74.12122034184188
 20
240.742072602528
 30
0.0
  0
VERTEX
  5
3C09
  8
SECONDCUT
 10
74.12122034184188
 20
237.7420510417278
 30
0.0
  0
VERTEX
  5
3C0A
  8
SECONDCUT
 10
66.47846786019193
 20
237.7420510417278
 30
0.0
  0
VERTEX
  5
3C0B
  8
SECONDCUT
 10
66.47846786019193
 20
240.742072602528
 30
0.0
  0
VERTEX
  5
3C0C
  8
SECONDCUT
 10
58.5956854314619
 20
240.742072602528
 30
0.0
  0
VERTEX
  5
3C0D
  8
SECONDCUT
 10
58.5956854314619
 20
237.7420510417278
 30
0.0
  0
VERTEX
  5
3C0E
  8
SECONDCUT
 10
50.95293294981195
 20
237.7420510417278
 30
0.0
  0
VERTEX
  5
3C0F
  8
SECONDCUT
 10
50.95293294981195
 20
240.742072602528
 30
0.0
  0
VERTEX
  5
3C10
  8
SECONDCUT
 10
43.07018579885187
 20
240.742072602528
 30
0.0
  0
VERTEX
  5
3C11
  8
SECONDCUT
 10
43.07018579885187
 20
237.7420510417278
 30
0.0
  0
VERTEX
  5
3C12
  8
SECONDCUT
 10
35.42743331720192
 20
237.7420510417278
 30
0.0
  0
VERTEX
  5
3C13
  8
SECONDCUT
 10
35.42743331720192
 20
240.742072602528
 30
0.0
  0
VERTEX
  5
3C14
  8
SECONDCUT
 10
27.54468616624206
 20
240.742072602528
 30
0.0
  0
VERTEX
  5
3C15
  8
SECONDCUT
 10
27.54468616624206
 20
237.7420510417278
 30
0.0
  0
VERTEX
  5
3C16
  8
SECONDCUT
 10
22.84191248085187
 20
237.7420510417278
 30
0.0
  0
VERTEX
  5
3C17
  8
SECONDCUT
 10
22.84191248085187
 20
233.039171523028
 30
0.0
  0
VERTEX
  5
3C18
  8
SECONDCUT
 10
19.84192619782186
 20
233.039171523028
 30
0.0
  0
VERTEX
  5
3C19
  8
SECONDCUT
 10
19.84192619782186
 20
225.1567065942279
 30
0.0
  0
VERTEX
  5
3C1A
  8
SECONDCUT
 10
22.84191248085187
 20
225.1567065942279
 30
0.0
  0
VERTEX
  5
3C1B
  8
SECONDCUT
 10
22.84191248085187
 20
217.5137777237278
 30
0.0
  0
VERTEX
  5
3C1C
  8
SECONDCUT
 10
19.84192619782186
 20
217.5137777237278
 30
0.0
  0
VERTEX
  5
3C1D
  8
SECONDCUT
 10
19.84192619782186
 20
209.6309600172281
 30
0.0
  0
VERTEX
  5
3C1E
  8
SECONDCUT
 10
22.84191248085187
 20
209.6309600172281
 30
0.0
  0
VERTEX
  5
3C1F
  8
SECONDCUT
 10
22.84191248085187
 20
201.988383924428
 30
0.0
  0
VERTEX
  5
3C20
  8
SECONDCUT
 10
19.84192619782186
 20
201.988383924428
 30
0.0
  0
VERTEX
  5
3C21
  8
SECONDCUT
 10
19.84192619782186
 20
194.1055662179278
 30
0.0
  0
VERTEX
  5
3C22
  8
SECONDCUT
 10
22.84191248085187
 20
194.1055662179278
 30
0.0
  0
VERTEX
  5
3C23
  8
SECONDCUT
 10
22.84191248085187
 20
186.462637347428
 30
0.0
  0
VERTEX
  5
3C24
  8
SECONDCUT
 10
19.84192619782186
 20
186.462637347428
 30
0.0
  0
VERTEX
  5
3C25
  8
SECONDCUT
 10
19.84192619782186
 20
178.579819640928
 30
0.0
  0
VERTEX
  5
3C26
  8
SECONDCUT
 10
22.84191248085187
 20
178.579819640928
 30
0.0
  0
VERTEX
  5
3C27
  8
SECONDCUT
 10
22.84191248085187
 20
170.937243548128
 30
0.0
  0
VERTEX
  5
3C28
  8
SECONDCUT
 10
19.84192619782186
 20
170.937243548128
 30
0.0
  0
VERTEX
  5
3C29
  8
SECONDCUT
 10
19.84192619782186
 20
163.054425841628
 30
0.0
  0
VERTEX
  5
3C2A
  8
SECONDCUT
 10
22.84191248085187
 20
163.054425841628
 30
0.0
  0
VERTEX
  5
3C2B
  8
SECONDCUT
 10
22.84191248085187
 20
155.411849748828
 30
0.0
  0
VERTEX
  5
3C2C
  8
SECONDCUT
 10
19.84192619782186
 20
155.411849748828
 30
0.0
  0
VERTEX
  5
3C2D
  8
SECONDCUT
 10
19.84192619782186
 20
147.5290320423279
 30
0.0
  0
VERTEX
  5
3C2E
  8
SECONDCUT
 10
22.84191248085187
 20
147.5290320423279
 30
0.0
  0
VERTEX
  5
3C2F
  8
SECONDCUT
 10
22.84191248085187
 20
139.8861031718279
 30
0.0
  0
VERTEX
  5
3C30
  8
SECONDCUT
 10
19.84192619782186
 20
139.8861031718279
 30
0.0
  0
VERTEX
  5
3C31
  8
SECONDCUT
 10
19.84192619782186
 20
132.003285465328
 30
0.0
  0
VERTEX
  5
3C32
  8
SECONDCUT
 10
22.84191248085187
 20
132.003285465328
 30
0.0
  0
VERTEX
  5
3C33
  8
SECONDCUT
 10
22.84191248085187
 20
124.3607093725279
 30
0.0
  0
VERTEX
  5
3C34
  8
SECONDCUT
 10
19.84192619782186
 20
124.3607093725279
 30
0.0
  0
VERTEX
  5
3C35
  8
SECONDCUT
 10
19.84192619782186
 20
116.477891666028
 30
0.0
  0
VERTEX
  5
3C36
  8
SECONDCUT
 10
22.84191248085187
 20
116.477891666028
 30
0.0
  0
VERTEX
  5
3C37
  8
SECONDCUT
 10
22.84191248085187
 20
108.8353155732279
 30
0.0
  0
VERTEX
  5
3C38
  8
SECONDCUT
 10
19.84192619782186
 20
108.8353155732279
 30
0.0
  0
VERTEX
  5
3C39
  8
SECONDCUT
 10
19.84192619782186
 20
100.952497866728
 30
0.0
  0
VERTEX
  5
3C3A
  8
SECONDCUT
 10
22.84191248085187
 20
100.952497866728
 30
0.0
  0
VERTEX
  5
3C3B
  8
SECONDCUT
 10
22.84191248085187
 20
93.30956899622788
 30
0.0
  0
VERTEX
  5
3C3C
  8
SECONDCUT
 10
19.84192619782186
 20
93.30956899622788
 30
0.0
  0
VERTEX
  5
3C3D
  8
SECONDCUT
 10
19.84192619782186
 20
85.42675128972792
 30
0.0
  0
VERTEX
  5
3C3E
  8
SECONDCUT
 10
22.84191248085187
 20
85.42675128972792
 30
0.0
  0
VERTEX
  5
3C3F
  8
SECONDCUT
 10
22.84191248085187
 20
77.78417519692789
 30
0.0
  0
VERTEX
  5
3C40
  8
SECONDCUT
 10
19.84192619782186
 20
77.78417519692789
 30
0.0
  0
VERTEX
  5
3C41
  8
SECONDCUT
 10
19.84192619782186
 20
69.90135749042793
 30
0.0
  0
VERTEX
  5
3C42
  8
SECONDCUT
 10
22.84191248085187
 20
69.90135749042793
 30
0.0
  0
VERTEX
  5
3C43
  8
SECONDCUT
 10
22.84191248085187
 20
62.2587813976279
 30
0.0
  0
VERTEX
  5
3C44
  8
SECONDCUT
 10
19.84192619782186
 20
62.2587813976279
 30
0.0
  0
VERTEX
  5
3C45
  8
SECONDCUT
 10
19.84192619782186
 20
54.37596369112794
 30
0.0
  0
VERTEX
  5
3C46
  8
SECONDCUT
 10
22.84191248085187
 20
54.37596369112794
 30
0.0
  0
VERTEX
  5
3C47
  8
SECONDCUT
 10
22.84191248085187
 20
46.73310537616794
 30
0.0
  0
VERTEX
  5
3C48
  8
SECONDCUT
 10
19.84192619782186
 20
46.73310537616794
 30
0.0
  0
VERTEX
  5
3C49
  8
SECONDCUT
 10
19.84192619782186
 20
38.85035822520797
 30
0.0
  0
VERTEX
  5
3C4A
  8
SECONDCUT
 10
22.84191248085187
 20
38.85035822520797
 30
0.0
  0
VERTEX
  5
3C4B
  8
SECONDCUT
 10
22.84191248085187
 20
31.20760574355791
 30
0.0
  0
VERTEX
  5
3C4C
  8
SECONDCUT
 10
19.84192619782186
 20
31.20760574355791
 30
0.0
  0
VERTEX
  5
3C4D
  8
SECONDCUT
 10
19.84192619782186
 20
23.32485859259793
 30
0.0
  0
VERTEX
  5
3C4E
  8
SECONDCUT
 10
22.84191248085187
 20
23.32485859259793
 30
0.0
  0
VERTEX
  5
3C4F
  8
SECONDCUT
 10
22.84191248085187
 20
18.62208490720798
 30
0.0
  0
VERTEX
  5
3C50
  8
SECONDCUT
 10
27.54468616624206
 20
18.62208490720798
 30
0.0
  0
VERTEX
  5
3C51
  8
SECONDCUT
 10
27.54468616624206
 20
15.62209862417797
 30
0.0
  0
VERTEX
  5
3C52
  8
SECONDCUT
 10
35.42743331720192
 20
15.62209862417797
 30
0.0
  0
VERTEX
  5
3C53
  8
SECONDCUT
 10
35.42743331720192
 20
18.62208490720798
 30
0.0
  0
VERTEX
  5
3C54
  8
SECONDCUT
 10
43.07018579885187
 20
18.62208490720798
 30
0.0
  0
VERTEX
  5
3C55
  8
SECONDCUT
 10
43.07018579885187
 20
15.62209862417797
 30
0.0
  0
VERTEX
  5
3C56
  8
SECONDCUT
 10
50.95293294981195
 20
15.62209862417797
 30
0.0
  0
VERTEX
  5
3C57
  8
SECONDCUT
 10
50.95293294981195
 20
18.62208490720798
 30
0.0
  0
VERTEX
  5
3C58
  8
SECONDCUT
 10
58.5956854314619
 20
18.62208490720798
 30
0.0
  0
VERTEX
  5
3C59
  8
SECONDCUT
 10
58.5956854314619
 20
15.62209862417797
 30
0.0
  0
VERTEX
  5
3C5A
  8
SECONDCUT
 10
66.47846786019193
 20
15.62209862417797
 30
0.0
  0
VERTEX
  5
3C5B
  8
SECONDCUT
 10
66.47846786019193
 20
18.62208490720798
 30
0.0
  0
VERTEX
  5
3C5C
  8
SECONDCUT
 10
74.12122034184188
 20
18.62208490720798
 30
0.0
  0
VERTEX
  5
3C5D
  8
SECONDCUT
 10
74.12122034184188
 20
15.62209862417797
 30
0.0
  0
VERTEX
  5
3C5E
  8
SECONDCUT
 10
82.00396749280196
 20
15.62209862417797
 30
0.0
  0
VERTEX
  5
3C5F
  8
SECONDCUT
 10
82.00396749280196
 20
18.62208490720798
 30
0.0
  0
VERTEX
  5
3C60
  8
SECONDCUT
 10
89.64671997445191
 20
18.62208490720798
 30
0.0
  0
VERTEX
  5
3C61
  8
SECONDCUT
 10
89.64671997445191
 20
15.62209862417797
 30
0.0
  0
VERTEX
  5
3C62
  8
SECONDCUT
 10
97.529467125412
 20
15.62209862417797
 30
0.0
  0
VERTEX
  5
3C63
  8
SECONDCUT
 10
97.529467125412
 20
18.62208490720798
 30
0.0
  0
VERTEX
  5
3C64
  8
SECONDCUT
 10
105.1722548848319
 20
18.62208490720798
 30
0.0
  0
VERTEX
  5
3C65
  8
SECONDCUT
 10
105.1722548848319
 20
15.62209862417797
 30
0.0
  0
VERTEX
  5
3C66
  8
SECONDCUT
 10
113.055002035792
 20
15.62209862417797
 30
0.0
  0
VERTEX
  5
3C67
  8
SECONDCUT
 10
113.055002035792
 20
18.62208490720798
 30
0.0
  0
VERTEX
  5
3C68
  8
SECONDCUT
 10
120.6977545174419
 20
18.62208490720798
 30
0.0
  0
VERTEX
  5
3C69
  8
SECONDCUT
 10
120.6977545174419
 20
15.62209862417797
 30
0.0
  0
VERTEX
  5
3C6A
  8
SECONDCUT
 10
128.5804663906318
 20
15.62209862417797
 30
0.0
  0
VERTEX
  5
3C6B
  8
SECONDCUT
 10
128.5804663906318
 20
18.62208490720798
 30
0.0
  0
VERTEX
  5
3C6C
  8
SECONDCUT
 10
136.2233952611319
 20
18.62208490720798
 30
0.0
  0
VERTEX
  5
3C6D
  8
SECONDCUT
 10
136.2233952611319
 20
15.62209862417797
 30
0.0
  0
VERTEX
  5
3C6E
  8
SECONDCUT
 10
144.1058601899321
 20
15.62209862417797
 30
0.0
  0
VERTEX
  5
3C6F
  8
SECONDCUT
 10
144.1058601899321
 20
18.62208490720798
 30
0.0
  0
VERTEX
  5
3C70
  8
SECONDCUT
 10
151.7487890604319
 20
18.62208490720798
 30
0.0
  0
VERTEX
  5
3C71
  8
SECONDCUT
 10
151.7487890604319
 20
15.62209862417797
 30
0.0
  0
VERTEX
  5
3C72
  8
SECONDCUT
 10
159.6316067669319
 20
15.62209862417797
 30
0.0
  0
VERTEX
  5
3C73
  8
SECONDCUT
 10
159.6316067669319
 20
18.62208490720798
 30
0.0
  0
VERTEX
  5
3C74
  8
SECONDCUT
 10
167.2741828597319
 20
18.62208490720798
 30
0.0
  0
VERTEX
  5
3C75
  8
SECONDCUT
 10
167.2741828597319
 20
15.62209862417797
 30
0.0
  0
VERTEX
  5
3C76
  8
SECONDCUT
 10
175.1570005662319
 20
15.62209862417797
 30
0.0
  0
VERTEX
  5
3C77
  8
SECONDCUT
 10
175.1570005662319
 20
18.62208490720798
 30
0.0
  0
VERTEX
  5
3C78
  8
SECONDCUT
 10
182.799929436732
 20
18.62208490720798
 30
0.0
  0
VERTEX
  5
3C79
  8
SECONDCUT
 10
182.799929436732
 20
15.62209862417797
 30
0.0
  0
VERTEX
  5
3C7A
  8
SECONDCUT
 10
190.6823943655319
 20
15.62209862417797
 30
0.0
  0
VERTEX
  5
3C7B
  8
SECONDCUT
 10
190.6823943655319
 20
18.62208490720798
 30
0.0
  0
VERTEX
  5
3C7C
  8
SECONDCUT
 10
198.325323236032
 20
18.62208490720798
 30
0.0
  0
VERTEX
  5
3C7D
  8
SECONDCUT
 10
198.325323236032
 20
15.62209862417797
 30
0.0
  0
VERTEX
  5
3C7E
  8
SECONDCUT
 10
206.2081409425319
 20
15.62209862417797
 30
0.0
  0
VERTEX
  5
3C7F
  8
SECONDCUT
 10
206.2081409425319
 20
18.62208490720798
 30
0.0
  0
VERTEX
  5
3C80
  8
SECONDCUT
 10
213.850717035332
 20
18.62208490720798
 30
0.0
  0
VERTEX
  5
3C81
  8
SECONDCUT
 10
213.850717035332
 20
15.62209862417797
 30
0.0
  0
VERTEX
  5
3C82
  8
SECONDCUT
 10
221.7335347418319
 20
15.62209862417797
 30
0.0
  0
VERTEX
  5
3C83
  8
SECONDCUT
 10
221.7335347418319
 20
18.62208490720798
 30
0.0
  0
VERTEX
  5
3C84
  8
SECONDCUT
 10
229.3764636123318
 20
18.62208490720798
 30
0.0
  0
VERTEX
  5
3C85
  8
SECONDCUT
 10
229.3764636123318
 20
15.62209862417797
 30
0.0
  0
VERTEX
  5
3C86
  8
SECONDCUT
 10
237.259281318832
 20
15.62209862417797
 30
0.0
  0
VERTEX
  5
3C87
  8
SECONDCUT
 10
237.259281318832
 20
18.62208490720798
 30
0.0
  0
VERTEX
  5
3C88
  8
SECONDCUT
 10
241.9618080598319
 20
18.62208490720798
 30
0.0
  0
VERTEX
  5
3C89
  8
SECONDCUT
 10
241.9618080598319
 20
23.32485859259793
 30
0.0
  0
VERTEX
  5
3C8A
  8
SECONDCUT
 10
244.9618296206319
 20
23.32485859259793
 30
0.0
  0
VERTEX
  5
3C8B
  8
SECONDCUT
 10
244.9618296206319
 20
31.20760574355791
 30
0.0
  0
VERTEX
  5
3C8C
  8
SECONDCUT
 10
241.9618080598319
 20
31.20760574355791
 30
0.0
  0
VERTEX
  5
3C8D
  8
SECONDCUT
 10
241.9618080598319
 20
38.85035822520797
 30
0.0
  0
VERTEX
  5
3C8E
  8
SECONDCUT
 10
244.9618296206319
 20
38.85035822520797
 30
0.0
  0
VERTEX
  5
3C8F
  8
SECONDCUT
 10
244.9618296206319
 20
46.73310537616794
 30
0.0
  0
VERTEX
  5
3C90
  8
SECONDCUT
 10
241.9618080598319
 20
46.73310537616794
 30
0.0
  0
VERTEX
  5
3C91
  8
SECONDCUT
 10
241.9618080598319
 20
54.37596369112794
 30
0.0
  0
VERTEX
  5
3C92
  8
SECONDCUT
 10
244.9618296206319
 20
54.37596369112794
 30
0.0
  0
VERTEX
  5
3C93
  8
SECONDCUT
 10
244.9618296206319
 20
62.2587813976279
 30
0.0
  0
VERTEX
  5
3C94
  8
SECONDCUT
 10
241.9618080598319
 20
62.2587813976279
 30
0.0
  0
VERTEX
  5
3C95
  8
SECONDCUT
 10
241.9618080598319
 20
69.90135749042793
 30
0.0
  0
VERTEX
  5
3C96
  8
SECONDCUT
 10
244.9618296206319
 20
69.90135749042793
 30
0.0
  0
VERTEX
  5
3C97
  8
SECONDCUT
 10
244.9618296206319
 20
77.78417519692789
 30
0.0
  0
VERTEX
  5
3C98
  8
SECONDCUT
 10
241.9618080598319
 20
77.78417519692789
 30
0.0
  0
VERTEX
  5
3C99
  8
SECONDCUT
 10
241.9618080598319
 20
85.42675128972792
 30
0.0
  0
VERTEX
  5
3C9A
  8
SECONDCUT
 10
244.9618296206319
 20
85.42675128972792
 30
0.0
  0
VERTEX
  5
3C9B
  8
SECONDCUT
 10
244.9618296206319
 20
93.30956899622788
 30
0.0
  0
VERTEX
  5
3C9C
  8
SECONDCUT
 10
241.9618080598319
 20
93.30956899622788
 30
0.0
  0
VERTEX
  5
3C9D
  8
SECONDCUT
 10
241.9618080598319
 20
100.952497866728
 30
0.0
  0
VERTEX
  5
3C9E
  8
SECONDCUT
 10
244.9618296206319
 20
100.952497866728
 30
0.0
  0
VERTEX
  5
3C9F
  8
SECONDCUT
 10
244.9618296206319
 20
108.8353155732279
 30
0.0
  0
VERTEX
  5
3CA0
  8
SECONDCUT
 10
241.9618080598319
 20
108.8353155732279
 30
0.0
  0
VERTEX
  5
3CA1
  8
SECONDCUT
 10
241.9618080598319
 20
116.477891666028
 30
0.0
  0
VERTEX
  5
3CA2
  8
SECONDCUT
 10
244.9618296206319
 20
116.477891666028
 30
0.0
  0
VERTEX
  5
3CA3
  8
SECONDCUT
 10
244.9618296206319
 20
124.3607093725279
 30
0.0
  0
VERTEX
  5
3CA4
  8
SECONDCUT
 10
241.9618080598319
 20
124.3607093725279
 30
0.0
  0
VERTEX
  5
3CA5
  8
SECONDCUT
 10
241.9618080598319
 20
132.003285465328
 30
0.0
  0
VERTEX
  5
3CA6
  8
SECONDCUT
 10
244.9618296206319
 20
132.003285465328
 30
0.0
  0
VERTEX
  5
3CA7
  8
SECONDCUT
 10
244.9618296206319
 20
139.8861031718279
 30
0.0
  0
VERTEX
  5
3CA8
  8
SECONDCUT
 10
241.9618080598319
 20
139.8861031718279
 30
0.0
  0
VERTEX
  5
3CA9
  8
SECONDCUT
 10
241.9618080598319
 20
147.5290320423279
 30
0.0
  0
VERTEX
  5
3CAA
  8
SECONDCUT
 10
244.9618296206319
 20
147.5290320423279
 30
0.0
  0
VERTEX
  5
3CAB
  8
SECONDCUT
 10
244.9618296206319
 20
155.411849748828
 30
0.0
  0
VERTEX
  5
3CAC
  8
SECONDCUT
 10
241.9618080598319
 20
155.411849748828
 30
0.0
  0
VERTEX
  5
3CAD
  8
SECONDCUT
 10
241.9618080598319
 20
163.054425841628
 30
0.0
  0
VERTEX
  5
3CAE
  8
SECONDCUT
 10
244.9618296206319
 20
163.054425841628
 30
0.0
  0
VERTEX
  5
3CAF
  8
SECONDCUT
 10
244.9618296206319
 20
170.937243548128
 30
0.0
  0
VERTEX
  5
3CB0
  8
SECONDCUT
 10
241.9618080598319
 20
170.937243548128
 30
0.0
  0
VERTEX
  5
3CB1
  8
SECONDCUT
 10
241.9618080598319
 20
178.579819640928
 30
0.0
  0
VERTEX
  5
3CB2
  8
SECONDCUT
 10
244.9618296206319
 20
178.579819640928
 30
0.0
  0
VERTEX
  5
3CB3
  8
SECONDCUT
 10
244.9618296206319
 20
186.462637347428
 30
0.0
  0
SEQEND
  5
4115
  8
SECONDCUT
  0
POLYLINE
  5
B9F
  8
FIRSTCUT
 66
     1
 10
0.0
 20
0.0
 30
0.0
 70
     1
  0
VERTEX
  5
3CB4
  8
FIRSTCUT
 10
211.4551193301403
 20
81.6847677609988
 30
0.0
 42
-1.0
  0
VERTEX
  5
3CB5
  8
FIRSTCUT
 10
214.4577552015697
 20
81.6847677609988
 30
0.0
 42
-1.0
  0
SEQEND
  5
4116
  8
FIRSTCUT
  0
POLYLINE
  5
BA0
  8
FIRSTCUT
 66
     1
 10
0.0
 20
0.0
 30
0.0
 70
     1
  0
VERTEX
  5
3CB6
  8
FIRSTCUT
 10
221.847812613424
 20
75.68544060542541
 30
0.0
 42
-1.0
  0
VERTEX
  5
3CB7
  8
FIRSTCUT
 10
224.8504484848534
 20
75.68544060542541
 30
0.0
 42
-1.0
  0
SEQEND
  5
4117
  8
FIRSTCUT
  0
POLYLINE
  5
BA1
  8
FIRSTCUT
 66
     1
 10
0.0
 20
0.0
 30
0.0
 70
     1
  0
VERTEX
  5
3CB8
  8
FIRSTCUT
 10
120.401877909227
 20
128.1820856133531
 30
0.0
 42
-1.000000000000002
  0
VERTEX
  5
3CB9
  8
FIRSTCUT
 10
144.401877909227
 20
128.1820856133531
 30
0.0
 42
-0.9999999999999977
  0
SEQEND
  5
4118
  8
FIRSTCUT
  0
POLYLINE
  5
BA2
  8
FIRSTCUT
 66
     1
 10
0.0
 20
0.0
 30
0.0
 70
     1
  0
VERTEX
  5
3CBA
  8
FIRSTCUT
 10
50.35241055090677
 20
81.67366459955252
 30
0.0
 42
-1.000000000000005
  0
VERTEX
  5
3CBB
  8
FIRSTCUT
 10
53.35504642233609
 20
81.67366459955252
 30
0.0
 42
-1.000000000000005
  0
SEQEND
  5
4119
  8
FIRSTCUT
  0
POLYLINE
  5
BA3
  8
FIRSTCUT
 66
     1
 10
0.0
 20
0.0
 30
0.0
 70
     1
  0
VERTEX
  5
3CBC
  8
FIRSTCUT
 10
39.96010570549328
 20
75.67366459955275
 30
0.0
 42
-1.000000000000005
  0
VERTEX
  5
3CBD
  8
FIRSTCUT
 10
42.9627415769226
 20
75.67366459955275
 30
0.0
 42
-1.000000000000005
  0
SEQEND
  5
411A
  8
FIRSTCUT
  0
POLYLINE
  5
BA4
  8
FIRSTCUT
 66
     1
 10
0.0
 20
0.0
 30
0.0
 70
     1
  0
VERTEX
  5
3CBE
  8
FIRSTCUT
 10
130.9039593500628
 20
233.1930397480548
 30
0.0
 42
-1.0
  0
VERTEX
  5
3CBF
  8
FIRSTCUT
 10
133.9065952214922
 20
233.1930397480548
 30
0.0
 42
-1.0
  0
SEQEND
  5
411B
  8
FIRSTCUT
  0
POLYLINE
  5
BA5
  8
FIRSTCUT
 66
     1
 10
0.0
 20
0.0
 30
0.0
 70
     1
  0
VERTEX
  5
3CC0
  8
FIRSTCUT
 10
130.9039593500628
 20
221.1930397480548
 30
0.0
 42
-1.0
  0
VERTEX
  5
3CC1
  8
FIRSTCUT
 10
133.9065952214922
 20
221.1930397480548
 30
0.0
 42
-1.0
  0
SEQEND
  5
411C
  8
FIRSTCUT
  0
POLYLINE
  5
BA6
  8
SECONDCUT
 66
     1
 10
0.0
 20
0.0
 30
0.0
 70
     1
  0
VERTEX
  5
3CC2
  8
SECONDCUT
 10
278.5688467679496
 20
18.06010429020694
 30
0.0
  0
VERTEX
  5
3CC3
  8
SECONDCUT
 10
278.5688467679496
 20
240.179986152217
 30
0.0
  0
VERTEX
  5
3CC4
  8
SECONDCUT
 10
270.2555344341396
 20
240.179986152217
 30
0.0
  0
VERTEX
  5
3CC5
  8
SECONDCUT
 10
270.2555344341396
 20
243.1800077130169
 30
0.0
  0
VERTEX
  5
3CC6
  8
SECONDCUT
 10
261.7621996400195
 20
243.1800077130169
 30
0.0
  0
VERTEX
  5
3CC7
  8
SECONDCUT
 10
261.7621996400195
 20
240.179986152217
 30
0.0
  0
VERTEX
  5
3CC8
  8
SECONDCUT
 10
253.4488520284395
 20
240.179986152217
 30
0.0
  0
VERTEX
  5
3CC9
  8
SECONDCUT
 10
253.4488520284395
 20
235.3571622155171
 30
0.0
  0
VERTEX
  5
3CCA
  8
SECONDCUT
 10
256.4488735892395
 20
235.3571622155171
 30
0.0
  0
VERTEX
  5
3CCB
  8
SECONDCUT
 10
256.4488735892395
 20
227.714586122717
 30
0.0
  0
VERTEX
  5
3CCC
  8
SECONDCUT
 10
253.4488520284395
 20
227.714586122717
 30
0.0
  0
VERTEX
  5
3CCD
  8
SECONDCUT
 10
253.4488520284395
 20
219.8317684162171
 30
0.0
  0
VERTEX
  5
3CCE
  8
SECONDCUT
 10
256.4488735892395
 20
219.8317684162171
 30
0.0
  0
VERTEX
  5
3CCF
  8
SECONDCUT
 10
256.4488735892395
 20
212.188839545717
 30
0.0
  0
VERTEX
  5
3CD0
  8
SECONDCUT
 10
253.4488520284395
 20
212.188839545717
 30
0.0
  0
VERTEX
  5
3CD1
  8
SECONDCUT
 10
253.4488520284395
 20
204.3063746169171
 30
0.0
  0
VERTEX
  5
3CD2
  8
SECONDCUT
 10
256.4488735892395
 20
204.3063746169171
 30
0.0
  0
VERTEX
  5
3CD3
  8
SECONDCUT
 10
256.4488735892395
 20
196.663445746417
 30
0.0
  0
VERTEX
  5
3CD4
  8
SECONDCUT
 10
253.4488520284395
 20
196.663445746417
 30
0.0
  0
VERTEX
  5
3CD5
  8
SECONDCUT
 10
253.4488520284395
 20
188.780628039917
 30
0.0
  0
VERTEX
  5
3CD6
  8
SECONDCUT
 10
256.4488735892395
 20
188.780628039917
 30
0.0
  0
VERTEX
  5
3CD7
  8
SECONDCUT
 10
256.4488735892395
 20
181.138051947117
 30
0.0
  0
VERTEX
  5
3CD8
  8
SECONDCUT
 10
253.4488520284395
 20
181.138051947117
 30
0.0
  0
VERTEX
  5
3CD9
  8
SECONDCUT
 10
253.4488520284395
 20
173.255234240617
 30
0.0
  0
VERTEX
  5
3CDA
  8
SECONDCUT
 10
256.4488735892395
 20
173.255234240617
 30
0.0
  0
VERTEX
  5
3CDB
  8
SECONDCUT
 10
256.4488735892395
 20
165.6123053701169
 30
0.0
  0
VERTEX
  5
3CDC
  8
SECONDCUT
 10
253.4488520284395
 20
165.6123053701169
 30
0.0
  0
VERTEX
  5
3CDD
  8
SECONDCUT
 10
253.4488520284395
 20
157.729840441317
 30
0.0
  0
VERTEX
  5
3CDE
  8
SECONDCUT
 10
256.4488735892395
 20
157.729840441317
 30
0.0
  0
VERTEX
  5
3CDF
  8
SECONDCUT
 10
256.4488735892395
 20
150.0869115708172
 30
0.0
  0
VERTEX
  5
3CE0
  8
SECONDCUT
 10
253.4488520284395
 20
150.0869115708172
 30
0.0
  0
VERTEX
  5
3CE1
  8
SECONDCUT
 10
253.4488520284395
 20
142.204093864317
 30
0.0
  0
VERTEX
  5
3CE2
  8
SECONDCUT
 10
256.4488735892395
 20
142.204093864317
 30
0.0
  0
VERTEX
  5
3CE3
  8
SECONDCUT
 10
256.4488735892395
 20
134.5615177715169
 30
0.0
  0
VERTEX
  5
3CE4
  8
SECONDCUT
 10
253.4488520284395
 20
134.5615177715169
 30
0.0
  0
VERTEX
  5
3CE5
  8
SECONDCUT
 10
253.4488520284395
 20
126.678700065017
 30
0.0
  0
VERTEX
  5
3CE6
  8
SECONDCUT
 10
256.4488735892395
 20
126.678700065017
 30
0.0
  0
VERTEX
  5
3CE7
  8
SECONDCUT
 10
256.4488735892395
 20
119.035947583367
 30
0.0
  0
VERTEX
  5
3CE8
  8
SECONDCUT
 10
253.4488520284395
 20
119.035947583367
 30
0.0
  0
VERTEX
  5
3CE9
  8
SECONDCUT
 10
253.4488520284395
 20
111.153165154637
 30
0.0
  0
VERTEX
  5
3CEA
  8
SECONDCUT
 10
256.4488735892395
 20
111.153165154637
 30
0.0
  0
VERTEX
  5
3CEB
  8
SECONDCUT
 10
256.4488735892395
 20
103.5104126729871
 30
0.0
  0
VERTEX
  5
3CEC
  8
SECONDCUT
 10
253.4488520284395
 20
103.5104126729871
 30
0.0
  0
VERTEX
  5
3CED
  8
SECONDCUT
 10
253.4488520284395
 20
95.62766552202697
 30
0.0
  0
VERTEX
  5
3CEE
  8
SECONDCUT
 10
256.4488735892395
 20
95.62766552202697
 30
0.0
  0
VERTEX
  5
3CEF
  8
SECONDCUT
 10
256.4488735892395
 20
87.98491304037702
 30
0.0
  0
VERTEX
  5
3CF0
  8
SECONDCUT
 10
253.4488520284395
 20
87.98491304037702
 30
0.0
  0
VERTEX
  5
3CF1
  8
SECONDCUT
 10
253.4488520284395
 20
80.102130611647
 30
0.0
  0
VERTEX
  5
3CF2
  8
SECONDCUT
 10
256.4488735892395
 20
80.102130611647
 30
0.0
  0
VERTEX
  5
3CF3
  8
SECONDCUT
 10
256.4488735892395
 20
72.45937812999705
 30
0.0
  0
VERTEX
  5
3CF4
  8
SECONDCUT
 10
253.4488520284395
 20
72.45937812999705
 30
0.0
  0
VERTEX
  5
3CF5
  8
SECONDCUT
 10
253.4488520284395
 20
64.57663097903696
 30
0.0
  0
VERTEX
  5
3CF6
  8
SECONDCUT
 10
256.4488735892395
 20
64.57663097903696
 30
0.0
  0
VERTEX
  5
3CF7
  8
SECONDCUT
 10
256.4488735892395
 20
56.93387849738701
 30
0.0
  0
VERTEX
  5
3CF8
  8
SECONDCUT
 10
253.4488520284395
 20
56.93387849738701
 30
0.0
  0
VERTEX
  5
3CF9
  8
SECONDCUT
 10
253.4488520284395
 20
49.05113134642693
 30
0.0
  0
VERTEX
  5
3CFA
  8
SECONDCUT
 10
256.4488735892395
 20
49.05113134642693
 30
0.0
  0
VERTEX
  5
3CFB
  8
SECONDCUT
 10
256.4488735892395
 20
41.40837886477698
 30
0.0
  0
VERTEX
  5
3CFC
  8
SECONDCUT
 10
253.4488520284395
 20
41.40837886477698
 30
0.0
  0
VERTEX
  5
3CFD
  8
SECONDCUT
 10
253.4488520284395
 20
33.52559643604695
 30
0.0
  0
VERTEX
  5
3CFE
  8
SECONDCUT
 10
256.4488735892395
 20
33.52559643604695
 30
0.0
  0
VERTEX
  5
3CFF
  8
SECONDCUT
 10
256.4488735892395
 20
25.882843954397
 30
0.0
  0
VERTEX
  5
3D00
  8
SECONDCUT
 10
253.4488520284395
 20
25.882843954397
 30
0.0
  0
VERTEX
  5
3D01
  8
SECONDCUT
 10
253.4488520284395
 20
18.06010429020694
 30
0.0
  0
VERTEX
  5
3D02
  8
SECONDCUT
 10
261.7621996400195
 20
18.06010429020694
 30
0.0
  0
VERTEX
  5
3D03
  8
SECONDCUT
 10
261.7621996400195
 20
21.06009057323695
 30
0.0
  0
VERTEX
  5
3D04
  8
SECONDCUT
 10
270.2555344341396
 20
21.06009057323695
 30
0.0
  0
VERTEX
  5
3D05
  8
SECONDCUT
 10
270.2555344341396
 20
18.06010429020694
 30
0.0
  0
SEQEND
  5
411D
  8
SECONDCUT
  0
POLYLINE
  5
BA9
  8
SECONDCUT
 66
     1
 10
0.0
 20
0.0
 30
0.0
 70
     1
  0
VERTEX
  5
3D06
  8
SECONDCUT
 10
342.7541003703485
 20
17.64332684934851
 30
0.0
  0
VERTEX
  5
3D07
  8
SECONDCUT
 10
342.7541003703485
 20
239.7632757391213
 30
0.0
  0
VERTEX
  5
3D08
  8
SECONDCUT
 10
334.4407527587686
 20
239.7632757391213
 30
0.0
  0
VERTEX
  5
3D09
  8
SECONDCUT
 10
334.4407527587686
 20
242.7632620221513
 30
0.0
  0
VERTEX
  5
3D0A
  8
SECONDCUT
 10
325.9474179646487
 20
242.7632620221513
 30
0.0
  0
VERTEX
  5
3D0B
  8
SECONDCUT
 10
325.9474179646487
 20
239.7632757391213
 30
0.0
  0
VERTEX
  5
3D0C
  8
SECONDCUT
 10
317.6341056308387
 20
239.7632757391213
 30
0.0
  0
VERTEX
  5
3D0D
  8
SECONDCUT
 10
317.6341056308387
 20
234.9405223579615
 30
0.0
  0
VERTEX
  5
3D0E
  8
SECONDCUT
 10
320.6340919138687
 20
234.9405223579615
 30
0.0
  0
VERTEX
  5
3D0F
  8
SECONDCUT
 10
320.6340919138687
 20
227.2977698763115
 30
0.0
  0
VERTEX
  5
3D10
  8
SECONDCUT
 10
317.6341056308387
 20
227.2977698763115
 30
0.0
  0
VERTEX
  5
3D11
  8
SECONDCUT
 10
317.6341056308387
 20
219.4150227253514
 30
0.0
  0
VERTEX
  5
3D12
  8
SECONDCUT
 10
320.6340919138687
 20
219.4150227253514
 30
0.0
  0
VERTEX
  5
3D13
  8
SECONDCUT
 10
320.6340919138687
 20
211.7722349659313
 30
0.0
  0
VERTEX
  5
3D14
  8
SECONDCUT
 10
317.6341056308387
 20
211.7722349659313
 30
0.0
  0
VERTEX
  5
3D15
  8
SECONDCUT
 10
317.6341056308387
 20
203.8894878149715
 30
0.0
  0
VERTEX
  5
3D16
  8
SECONDCUT
 10
320.6340919138687
 20
203.8894878149715
 30
0.0
  0
VERTEX
  5
3D17
  8
SECONDCUT
 10
320.6340919138687
 20
196.2467353333215
 30
0.0
  0
VERTEX
  5
3D18
  8
SECONDCUT
 10
317.6341056308387
 20
196.2467353333215
 30
0.0
  0
VERTEX
  5
3D19
  8
SECONDCUT
 10
317.6341056308387
 20
188.3639881823614
 30
0.0
  0
VERTEX
  5
3D1A
  8
SECONDCUT
 10
320.6340919138687
 20
188.3639881823614
 30
0.0
  0
VERTEX
  5
3D1B
  8
SECONDCUT
 10
320.6340919138687
 20
180.7212357007115
 30
0.0
  0
VERTEX
  5
3D1C
  8
SECONDCUT
 10
317.6341056308387
 20
180.7212357007115
 30
0.0
  0
VERTEX
  5
3D1D
  8
SECONDCUT
 10
317.6341056308387
 20
172.8384532719815
 30
0.0
  0
VERTEX
  5
3D1E
  8
SECONDCUT
 10
320.6340919138687
 20
172.8384532719815
 30
0.0
  0
VERTEX
  5
3D1F
  8
SECONDCUT
 10
320.6340919138687
 20
165.1957007903315
 30
0.0
  0
VERTEX
  5
3D20
  8
SECONDCUT
 10
317.6341056308387
 20
165.1957007903315
 30
0.0
  0
VERTEX
  5
3D21
  8
SECONDCUT
 10
317.6341056308387
 20
157.3129536393714
 30
0.0
  0
VERTEX
  5
3D22
  8
SECONDCUT
 10
320.6340919138687
 20
157.3129536393714
 30
0.0
  0
VERTEX
  5
3D23
  8
SECONDCUT
 10
320.6340919138687
 20
149.6702011577215
 30
0.0
  0
VERTEX
  5
3D24
  8
SECONDCUT
 10
317.6341056308387
 20
149.6702011577215
 30
0.0
  0
VERTEX
  5
3D25
  8
SECONDCUT
 10
317.6341056308387
 20
141.7874540067616
 30
0.0
  0
VERTEX
  5
3D26
  8
SECONDCUT
 10
320.6340919138687
 20
141.7874540067616
 30
0.0
  0
VERTEX
  5
3D27
  8
SECONDCUT
 10
320.6340919138687
 20
134.1446662473415
 30
0.0
  0
VERTEX
  5
3D28
  8
SECONDCUT
 10
317.6341056308387
 20
134.1446662473415
 30
0.0
  0
VERTEX
  5
3D29
  8
SECONDCUT
 10
317.6341056308387
 20
126.2619190963816
 30
0.0
  0
VERTEX
  5
3D2A
  8
SECONDCUT
 10
320.6340919138687
 20
126.2619190963816
 30
0.0
  0
VERTEX
  5
3D2B
  8
SECONDCUT
 10
320.6340919138687
 20
118.6191666147315
 30
0.0
  0
VERTEX
  5
3D2C
  8
SECONDCUT
 10
317.6341056308387
 20
118.6191666147315
 30
0.0
  0
VERTEX
  5
3D2D
  8
SECONDCUT
 10
317.6341056308387
 20
110.7364194637714
 30
0.0
  0
VERTEX
  5
3D2E
  8
SECONDCUT
 10
320.6340919138687
 20
110.7364194637714
 30
0.0
  0
VERTEX
  5
3D2F
  8
SECONDCUT
 10
320.6340919138687
 20
103.0936669821214
 30
0.0
  0
VERTEX
  5
3D30
  8
SECONDCUT
 10
317.6341056308387
 20
103.0936669821214
 30
0.0
  0
VERTEX
  5
3D31
  8
SECONDCUT
 10
317.6341056308387
 20
95.2108845533914
 30
0.0
  0
VERTEX
  5
3D32
  8
SECONDCUT
 10
320.6340919138687
 20
95.2108845533914
 30
0.0
  0
VERTEX
  5
3D33
  8
SECONDCUT
 10
320.6340919138687
 20
87.56813207174145
 30
0.0
  0
VERTEX
  5
3D34
  8
SECONDCUT
 10
317.6341056308387
 20
87.56813207174145
 30
0.0
  0
VERTEX
  5
3D35
  8
SECONDCUT
 10
317.6341056308387
 20
79.68538492078159
 30
0.0
  0
VERTEX
  5
3D36
  8
SECONDCUT
 10
320.6340919138687
 20
79.68538492078159
 30
0.0
  0
VERTEX
  5
3D37
  8
SECONDCUT
 10
320.6340919138687
 20
72.04263243913141
 30
0.0
  0
VERTEX
  5
3D38
  8
SECONDCUT
 10
317.6341056308387
 20
72.04263243913141
 30
0.0
  0
VERTEX
  5
3D39
  8
SECONDCUT
 10
317.6341056308387
 20
64.15988528817132
 30
0.0
  0
VERTEX
  5
3D3A
  8
SECONDCUT
 10
320.6340919138687
 20
64.15988528817132
 30
0.0
  0
VERTEX
  5
3D3B
  8
SECONDCUT
 10
320.6340919138687
 20
56.51709752875144
 30
0.0
  0
VERTEX
  5
3D3C
  8
SECONDCUT
 10
317.6341056308387
 20
56.51709752875144
 30
0.0
  0
VERTEX
  5
3D3D
  8
SECONDCUT
 10
317.6341056308387
 20
48.63435037779135
 30
0.0
  0
VERTEX
  5
3D3E
  8
SECONDCUT
 10
320.6340919138687
 20
48.63435037779135
 30
0.0
  0
VERTEX
  5
3D3F
  8
SECONDCUT
 10
320.6340919138687
 20
40.9915978961414
 30
0.0
  0
VERTEX
  5
3D40
  8
SECONDCUT
 10
317.6341056308387
 20
40.9915978961414
 30
0.0
  0
VERTEX
  5
3D41
  8
SECONDCUT
 10
317.6341056308387
 20
33.10884368962746
 30
0.0
  0
VERTEX
  5
3D42
  8
SECONDCUT
 10
320.6340919138687
 20
33.10884368962746
 30
0.0
  0
VERTEX
  5
3D43
  8
SECONDCUT
 10
320.6340919138687
 20
25.46608415242343
 30
0.0
  0
VERTEX
  5
3D44
  8
SECONDCUT
 10
317.6341056308387
 20
25.46608415242343
 30
0.0
  0
VERTEX
  5
3D45
  8
SECONDCUT
 10
317.6341056308387
 20
17.64332684934851
 30
0.0
  0
VERTEX
  5
3D46
  8
SECONDCUT
 10
326.0674329381885
 20
17.64332684934851
 30
0.0
  0
VERTEX
  5
3D47
  8
SECONDCUT
 10
326.0674329381885
 20
20.64332724348645
 30
0.0
  0
VERTEX
  5
3D48
  8
SECONDCUT
 10
334.3207730629987
 20
20.64332724348645
 30
0.0
  0
VERTEX
  5
3D49
  8
SECONDCUT
 10
334.3207730629987
 20
17.64332684934851
 30
0.0
  0
SEQEND
  5
411E
  8
SECONDCUT
  0
POLYLINE
  5
BAA
  8
SECONDCUT
 66
     1
 10
0.0
 20
0.0
 30
0.0
 70
     1
  0
VERTEX
  5
3D4A
  8
SECONDCUT
 10
242.4012717062398
 20
414.1352789927806
 30
0.0
  0
VERTEX
  5
3D4B
  8
SECONDCUT
 10
20.28149567753997
 20
414.1352789927806
 30
0.0
  0
VERTEX
  5
3D4C
  8
SECONDCUT
 10
20.28149567753997
 20
405.8219313812007
 30
0.0
  0
VERTEX
  5
3D4D
  8
SECONDCUT
 10
17.28147411673979
 20
405.8219313812007
 30
0.0
  0
VERTEX
  5
3D4E
  8
SECONDCUT
 10
17.28147411673979
 20
397.3285965870808
 30
0.0
  0
VERTEX
  5
3D4F
  8
SECONDCUT
 10
20.28149567753997
 20
397.3285965870808
 30
0.0
  0
VERTEX
  5
3D50
  8
SECONDCUT
 10
20.28149567753997
 20
389.0152842532707
 30
0.0
  0
VERTEX
  5
3D51
  8
SECONDCUT
 10
25.1043196142399
 20
389.0152842532707
 30
0.0
  0
VERTEX
  5
3D52
  8
SECONDCUT
 10
25.1043196142399
 20
392.0152705363008
 30
0.0
  0
VERTEX
  5
3D53
  8
SECONDCUT
 10
32.74689570704004
 20
392.0152705363008
 30
0.0
  0
VERTEX
  5
3D54
  8
SECONDCUT
 10
32.74689570704004
 20
389.0152842532707
 30
0.0
  0
VERTEX
  5
3D55
  8
SECONDCUT
 10
40.62971341353966
 20
389.0152842532707
 30
0.0
  0
VERTEX
  5
3D56
  8
SECONDCUT
 10
40.62971341353966
 20
392.0152705363008
 30
0.0
  0
VERTEX
  5
3D57
  8
SECONDCUT
 10
48.27228950633969
 20
392.0152705363008
 30
0.0
  0
VERTEX
  5
3D58
  8
SECONDCUT
 10
48.27228950633969
 20
389.0152842532707
 30
0.0
  0
VERTEX
  5
3D59
  8
SECONDCUT
 10
56.15510721283988
 20
389.0152842532707
 30
0.0
  0
VERTEX
  5
3D5A
  8
SECONDCUT
 10
56.15510721283988
 20
392.0152705363008
 30
0.0
  0
VERTEX
  5
3D5B
  8
SECONDCUT
 10
63.79803608333975
 20
392.0152705363008
 30
0.0
  0
VERTEX
  5
3D5C
  8
SECONDCUT
 10
63.79803608333975
 20
389.0152842532707
 30
0.0
  0
VERTEX
  5
3D5D
  8
SECONDCUT
 10
71.68085378983994
 20
389.0152842532707
 30
0.0
  0
VERTEX
  5
3D5E
  8
SECONDCUT
 10
71.68085378983994
 20
392.0152705363008
 30
0.0
  0
VERTEX
  5
3D5F
  8
SECONDCUT
 10
79.32342988263997
 20
392.0152705363008
 30
0.0
  0
VERTEX
  5
3D60
  8
SECONDCUT
 10
79.32342988263997
 20
389.0152842532707
 30
0.0
  0
VERTEX
  5
3D61
  8
SECONDCUT
 10
87.2062475891397
 20
389.0152842532707
 30
0.0
  0
VERTEX
  5
3D62
  8
SECONDCUT
 10
87.2062475891397
 20
392.0152705363008
 30
0.0
  0
VERTEX
  5
3D63
  8
SECONDCUT
 10
94.84882368193973
 20
392.0152705363008
 30
0.0
  0
VERTEX
  5
3D64
  8
SECONDCUT
 10
94.84882368193973
 20
389.0152842532707
 30
0.0
  0
VERTEX
  5
3D65
  8
SECONDCUT
 10
102.73164138844
 20
389.0152842532707
 30
0.0
  0
VERTEX
  5
3D66
  8
SECONDCUT
 10
102.73164138844
 20
392.0152705363008
 30
0.0
  0
VERTEX
  5
3D67
  8
SECONDCUT
 10
110.3745702589398
 20
392.0152705363008
 30
0.0
  0
VERTEX
  5
3D68
  8
SECONDCUT
 10
110.3745702589398
 20
389.0152842532707
 30
0.0
  0
VERTEX
  5
3D69
  8
SECONDCUT
 10
118.25738796544
 20
389.0152842532707
 30
0.0
  0
VERTEX
  5
3D6A
  8
SECONDCUT
 10
118.25738796544
 20
392.0152705363008
 30
0.0
  0
VERTEX
  5
3D6B
  8
SECONDCUT
 10
125.8999640582398
 20
392.0152705363008
 30
0.0
  0
VERTEX
  5
3D6C
  8
SECONDCUT
 10
125.8999640582398
 20
389.0152842532707
 30
0.0
  0
VERTEX
  5
3D6D
  8
SECONDCUT
 10
133.7827817647398
 20
389.0152842532707
 30
0.0
  0
VERTEX
  5
3D6E
  8
SECONDCUT
 10
133.7827817647398
 20
392.0152705363008
 30
0.0
  0
VERTEX
  5
3D6F
  8
SECONDCUT
 10
141.4257106352399
 20
392.0152705363008
 30
0.0
  0
VERTEX
  5
3D70
  8
SECONDCUT
 10
141.4257106352399
 20
389.0152842532707
 30
0.0
  0
VERTEX
  5
3D71
  8
SECONDCUT
 10
149.3081755640397
 20
389.0152842532707
 30
0.0
  0
VERTEX
  5
3D72
  8
SECONDCUT
 10
149.3081755640397
 20
392.0152705363008
 30
0.0
  0
VERTEX
  5
3D73
  8
SECONDCUT
 10
156.9511044345398
 20
392.0152705363008
 30
0.0
  0
VERTEX
  5
3D74
  8
SECONDCUT
 10
156.9511044345398
 20
389.0152842532707
 30
0.0
  0
VERTEX
  5
3D75
  8
SECONDCUT
 10
164.8339221410398
 20
389.0152842532707
 30
0.0
  0
VERTEX
  5
3D76
  8
SECONDCUT
 10
164.8339221410398
 20
392.0152705363008
 30
0.0
  0
VERTEX
  5
3D77
  8
SECONDCUT
 10
172.4764982338398
 20
392.0152705363008
 30
0.0
  0
VERTEX
  5
3D78
  8
SECONDCUT
 10
172.4764982338398
 20
389.0152842532707
 30
0.0
  0
VERTEX
  5
3D79
  8
SECONDCUT
 10
180.3593159403398
 20
389.0152842532707
 30
0.0
  0
VERTEX
  5
3D7A
  8
SECONDCUT
 10
180.3593159403398
 20
392.0152705363008
 30
0.0
  0
VERTEX
  5
3D7B
  8
SECONDCUT
 10
188.0022448108397
 20
392.0152705363008
 30
0.0
  0
VERTEX
  5
3D7C
  8
SECONDCUT
 10
188.0022448108397
 20
389.0152842532707
 30
0.0
  0
VERTEX
  5
3D7D
  8
SECONDCUT
 10
195.8847097396398
 20
389.0152842532707
 30
0.0
  0
VERTEX
  5
3D7E
  8
SECONDCUT
 10
195.8847097396398
 20
392.0152705363008
 30
0.0
  0
VERTEX
  5
3D7F
  8
SECONDCUT
 10
203.5276386101399
 20
392.0152705363008
 30
0.0
  0
VERTEX
  5
3D80
  8
SECONDCUT
 10
203.5276386101399
 20
389.0152842532707
 30
0.0
  0
VERTEX
  5
3D81
  8
SECONDCUT
 10
211.4104563166396
 20
389.0152842532707
 30
0.0
  0
VERTEX
  5
3D82
  8
SECONDCUT
 10
211.4104563166396
 20
392.0152705363008
 30
0.0
  0
VERTEX
  5
3D83
  8
SECONDCUT
 10
219.0530324094397
 20
392.0152705363008
 30
0.0
  0
VERTEX
  5
3D84
  8
SECONDCUT
 10
219.0530324094397
 20
389.0152842532707
 30
0.0
  0
VERTEX
  5
3D85
  8
SECONDCUT
 10
226.9358501159398
 20
389.0152842532707
 30
0.0
  0
VERTEX
  5
3D86
  8
SECONDCUT
 10
226.9358501159398
 20
392.0152705363008
 30
0.0
  0
VERTEX
  5
3D87
  8
SECONDCUT
 10
234.5787789864397
 20
392.0152705363008
 30
0.0
  0
VERTEX
  5
3D88
  8
SECONDCUT
 10
234.5787789864397
 20
389.0152842532707
 30
0.0
  0
VERTEX
  5
3D89
  8
SECONDCUT
 10
242.4012717062398
 20
389.0152842532707
 30
0.0
  0
VERTEX
  5
3D8A
  8
SECONDCUT
 10
242.4012717062398
 20
397.4486115606206
 30
0.0
  0
VERTEX
  5
3D8B
  8
SECONDCUT
 10
239.4012501454398
 20
397.4486115606206
 30
0.0
  0
VERTEX
  5
3D8C
  8
SECONDCUT
 10
239.4012501454398
 20
405.7019516854307
 30
0.0
  0
VERTEX
  5
3D8D
  8
SECONDCUT
 10
242.4012717062398
 20
405.7019516854307
 30
0.0
  0
SEQEND
  5
411F
  8
SECONDCUT
  0
POLYLINE
  5
BB0
  8
SECONDCUT
 66
     1
 10
0.0
 20
0.0
 30
0.0
 70
     1
  0
VERTEX
  5
3D8E
  8
SECONDCUT
 10
87.13388010163773
 20
250.4279958023578
 30
0.0
 42
0.9926360952794168
  0
VERTEX
  5
3D8F
  8
SECONDCUT
 10
86.14364235901564
 20
384.402877040381
 30
0.0
  0
VERTEX
  5
3D90
  8
SECONDCUT
 10
85.14946956472949
 20
384.3954996875087
 30
0.0
 42
0.9926069380289544
  0
VERTEX
  5
3D91
  8
SECONDCUT
 10
86.14364235901861
 20
250.4206767379343
 30
0.0
  0
SEQEND
  5
4120
  8
SECONDCUT
  0
POLYLINE
  5
BB1
  8
FIRSTCUT
 66
     1
 10
0.0
 20
0.0
 30
0.0
 70
     1
  0
VERTEX
  5
3D92
  8
FIRSTCUT
 10
127.5048285274157
 20
349.6632054088543
 30
0.0
 42
-1.00000000000001
  0
VERTEX
  5
3D93
  8
FIRSTCUT
 10
130.5048285274157
 20
349.6632054088543
 30
0.0
 42
-1.00000000000001
  0
SEQEND
  5
4121
  8
FIRSTCUT
  0
POLYLINE
  5
BB2
  8
FIRSTCUT
 66
     1
 10
0.0
 20
0.0
 30
0.0
 70
     1
  0
VERTEX
  5
3D94
  8
FIRSTCUT
 10
35.09471557593599
 20
296.9542967199282
 30
0.0
 42
-0.9999999999999998
  0
VERTEX
  5
3D95
  8
FIRSTCUT
 10
38.09471557593599
 20
296.9542967199282
 30
0.0
 42
-0.9999999999999998
  0
SEQEND
  5
4122
  8
FIRSTCUT
  0
POLYLINE
  5
BB3
  8
FIRSTCUT
 66
     1
 10
0.0
 20
0.0
 30
0.0
 70
     1
  0
VERTEX
  5
3D96
  8
FIRSTCUT
 10
84.56160049503762
 20
337.4115433695671
 30
0.0
 42
-0.9999999999999998
  0
VERTEX
  5
3D97
  8
FIRSTCUT
 10
87.56160049503762
 20
337.4115433695671
 30
0.0
 42
-0.9999999999999998
  0
SEQEND
  5
4123
  8
FIRSTCUT
  0
POLYLINE
  5
BB4
  8
FIRSTCUT
 66
     1
 10
0.0
 20
0.0
 30
0.0
 70
     1
  0
VERTEX
  5
3D98
  8
FIRSTCUT
 10
41.78245619061647
 20
349.6632054088543
 30
0.0
 42
-0.9999999999999998
  0
VERTEX
  5
3D99
  8
FIRSTCUT
 10
44.78245619061647
 20
349.6632054088543
 30
0.0
 42
-0.9999999999999998
  0
SEQEND
  5
4124
  8
FIRSTCUT
  0
POLYLINE
  5
BB5
  8
FIRSTCUT
 66
     1
 10
0.0
 20
0.0
 30
0.0
 70
     1
  0
VERTEX
  5
3D9A
  8
FIRSTCUT
 10
78.1436423590161
 20
317.4117768891576
 30
0.0
 42
-0.9999999999999998
  0
VERTEX
  5
3D9B
  8
FIRSTCUT
 10
94.1436423590161
 20
317.4117768891576
 30
0.0
 42
-0.9999999999999998
  0
SEQEND
  5
4125
  8
FIRSTCUT
  0
POLYLINE
  5
BB6
  8
FIRSTCUT
 66
     1
 10
0.0
 20
0.0
 30
0.0
 70
     1
  0
VERTEX
  5
3D9C
  8
FIRSTCUT
 10
84.6436423590161
 20
371.0177899868453
 30
0.0
 42
-0.9999999999999998
  0
VERTEX
  5
3D9D
  8
FIRSTCUT
 10
87.6436423590161
 20
371.0177899868453
 30
0.0
 42
-0.9999999999999998
  0
SEQEND
  5
4126
  8
FIRSTCUT
  0
POLYLINE
  5
BB7
  8
FIRSTCUT
 66
     1
 10
0.0
 20
0.0
 30
0.0
 70
     1
  0
VERTEX
  5
3D9E
  8
FIRSTCUT
 10
84.6436423590161
 20
263.8057637914701
 30
0.0
 42
-0.9999999999999998
  0
VERTEX
  5
3D9F
  8
FIRSTCUT
 10
87.6436423590161
 20
263.8057637914701
 30
0.0
 42
-0.9999999999999998
  0
SEQEND
  5
4127
  8
FIRSTCUT
  0
POLYLINE
  5
BB8
  8
FIRSTCUT
 66
     1
 10
0.0
 20
0.0
 30
0.0
 70
     1
  0
VERTEX
  5
3DA0
  8
FIRSTCUT
 10
134.1925691420962
 20
296.9542967199282
 30
0.0
 42
-0.9999999999999998
  0
VERTEX
  5
3DA1
  8
FIRSTCUT
 10
137.1925691420962
 20
296.9542967199282
 30
0.0
 42
-0.9999999999999998
  0
SEQEND
  5
4128
  8
FIRSTCUT
  0
POLYLINE
  5
BB9
  8
SECONDCUT
 66
     1
 10
0.0
 20
0.0
 30
0.0
 70
     1
  0
VERTEX
  5
3DA2
  8
SECONDCUT
 10
574.6825687365549
 20
124.5823575814947
 30
0.0
 42
1.0
  0
VERTEX
  5
3DA3
  8
SECONDCUT
 10
349.7992763124117
 20
124.5823575814947
 30
0.0
 42
1.0
  0
SEQEND
  5
4129
  8
SECONDCUT
  0
POLYLINE
  5
BBA
  8
FIRSTCUT
 62
     1
 66
     1
 10
0.0
 20
0.0
 30
0.0
 70
     1
  0
VERTEX
  5
3DA4
  8
FIRSTCUT
 62
     1
 10
541.2941639453966
 20
78.08503972914048
 30
0.0
 42
-1.0
  0
VERTEX
  5
3DA5
  8
FIRSTCUT
 62
     1
 10
544.296799816826
 20
78.08503972914048
 30
0.0
 42
-1.0
  0
SEQEND
  5
412A
  8
FIRSTCUT
 62
     1
  0
POLYLINE
  5
BBB
  8
FIRSTCUT
 62
     1
 66
     1
 10
0.0
 20
0.0
 30
0.0
 70
     1
  0
VERTEX
  5
3DA6
  8
FIRSTCUT
 62
     1
 10
369.7991503207497
 20
72.07393656769432
 30
0.0
 42
-1.000000000000019
  0
VERTEX
  5
3DA7
  8
FIRSTCUT
 62
     1
 10
372.8017861921791
 20
72.07393656769437
 30
0.0
 42
-0.9999999999999811
  0
SEQEND
  5
412B
  8
FIRSTCUT
 62
     1
  0
POLYLINE
  5
BBC
  8
FIRSTCUT
 62
     1
 66
     1
 10
0.0
 20
0.0
 30
0.0
 70
     1
  0
VERTEX
  5
3DA8
  8
FIRSTCUT
 62
     1
 10
460.7430039653192
 20
217.5933117161965
 30
0.0
 42
-1.0
  0
VERTEX
  5
3DA9
  8
FIRSTCUT
 62
     1
 10
463.7456398367485
 20
217.5933117161965
 30
0.0
 42
-1.0
  0
SEQEND
  5
412C
  8
FIRSTCUT
 62
     1
  0
POLYLINE
  5
BBD
  8
FIRSTCUT
 62
     1
 66
     1
 10
0.0
 20
0.0
 30
0.0
 70
     1
  0
VERTEX
  5
3DAA
  8
FIRSTCUT
 62
     1
 10
380.1914551661631
 20
78.0739365676942
 30
0.0
 42
-1.0
  0
VERTEX
  5
3DAB
  8
FIRSTCUT
 62
     1
 10
383.1940910375925
 20
78.0739365676942
 30
0.0
 42
-1.0
  0
SEQEND
  5
412D
  8
FIRSTCUT
 62
     1
  0
POLYLINE
  5
BBE
  8
FIRSTCUT
 62
     1
 66
     1
 10
0.0
 20
0.0
 30
0.0
 70
     1
  0
VERTEX
  5
3DAC
  8
FIRSTCUT
 62
     1
 10
460.7430039653192
 20
229.5933117161965
 30
0.0
 42
-1.0
  0
VERTEX
  5
3DAD
  8
FIRSTCUT
 62
     1
 10
463.7456398367485
 20
229.5933117161965
 30
0.0
 42
-1.0
  0
SEQEND
  5
412E
  8
FIRSTCUT
 62
     1
  0
POLYLINE
  5
BBF
  8
FIRSTCUT
 62
     1
 66
     1
 10
0.0
 20
0.0
 30
0.0
 70
     1
  0
VERTEX
  5
3DAE
  8
FIRSTCUT
 62
     1
 10
460.6588806605051
 20
144.5821240619041
 30
0.0
 42
-0.9999999999999998
  0
VERTEX
  5
3DAF
  8
FIRSTCUT
 62
     1
 10
463.6588806605051
 20
144.5821240619041
 30
0.0
 42
-0.9999999999999998
  0
SEQEND
  5
412F
  8
FIRSTCUT
 62
     1
  0
POLYLINE
  5
BC0
  8
FIRSTCUT
 62
     1
 66
     1
 10
0.0
 20
0.0
 30
0.0
 70
     1
  0
VERTEX
  5
3DB0
  8
FIRSTCUT
 62
     1
 10
551.6868572286805
 20
72.0857125735671
 30
0.0
 42
-1.0
  0
VERTEX
  5
3DB1
  8
FIRSTCUT
 62
     1
 10
554.6894931001098
 20
72.0857125735671
 30
0.0
 42
-1.0
  0
SEQEND
  5
4130
  8
FIRSTCUT
 62
     1
  0
POLYLINE
  5
BC1
  8
FIRSTCUT
 62
     1
 66
     1
 10
0.0
 20
0.0
 30
0.0
 70
     1
  0
VERTEX
  5
3DB2
  8
FIRSTCUT
 62
     1
 10
460.6646355023032
 20
139.5821273737256
 30
0.0
 42
-0.9999999999999998
  0
VERTEX
  5
3DB3
  8
FIRSTCUT
 62
     1
 10
463.6646355023032
 20
139.5821273737256
 30
0.0
 42
-0.9999999999999998
  0
SEQEND
  5
4131
  8
FIRSTCUT
 62
     1
  0
POLYLINE
  5
BC2
  8
FIRSTCUT
 62
     1
 66
     1
 10
0.0
 20
0.0
 30
0.0
 70
     1
  0
VERTEX
  5
3DB4
  8
FIRSTCUT
 62
     1
 10
460.7409225244834
 20
178.1883706791823
 30
0.0
 42
-0.9999999999999998
  0
VERTEX
  5
3DB5
  8
FIRSTCUT
 62
     1
 10
463.7409225244834
 20
178.1883706791823
 30
0.0
 42
-0.9999999999999998
  0
SEQEND
  5
4132
  8
FIRSTCUT
 62
     1
  0
POLYLINE
  5
BC3
  8
FIRSTCUT
 62
     1
 66
     1
 10
0.0
 20
0.0
 30
0.0
 70
     1
  0
VERTEX
  5
3DB6
  8
FIRSTCUT
 62
     1
 10
510.2898493075637
 20
104.1248774122653
 30
0.0
 42
-0.9999999999999998
  0
VERTEX
  5
3DB7
  8
FIRSTCUT
 62
     1
 10
513.2898493075636
 20
104.1248774122653
 30
0.0
 42
-0.9999999999999998
  0
SEQEND
  5
4133
  8
FIRSTCUT
 62
     1
  0
POLYLINE
  5
BC4
  8
FIRSTCUT
 62
     1
 66
     1
 10
0.0
 20
0.0
 30
0.0
 70
     1
  0
VERTEX
  5
3DB8
  8
FIRSTCUT
 62
     1
 10
460.6745263834556
 20
134.5821371566882
 30
0.0
 42
-0.9999999999999998
  0
VERTEX
  5
3DB9
  8
FIRSTCUT
 62
     1
 10
463.6745263834556
 20
134.5821371566882
 30
0.0
 42
-0.9999999999999998
  0
SEQEND
  5
4134
  8
FIRSTCUT
 62
     1
  0
POLYLINE
  5
BC5
  8
FIRSTCUT
 62
     1
 66
     1
 10
0.0
 20
0.0
 30
0.0
 70
     1
  0
VERTEX
  5
3DBA
  8
FIRSTCUT
 62
     1
 10
411.1919957414031
 20
104.1248774122653
 30
0.0
 42
-1.000000000000019
  0
VERTEX
  5
3DBB
  8
FIRSTCUT
 62
     1
 10
414.1919957414031
 20
104.1248774122653
 30
0.0
 42
-1.000000000000019
  0
SEQEND
  5
4135
  8
FIRSTCUT
 62
     1
  0
POLYLINE
  5
BC6
  8
FIRSTCUT
 62
     1
 66
     1
 10
0.0
 20
0.0
 30
0.0
 70
     1
  0
VERTEX
  5
3DBC
  8
FIRSTCUT
 62
     1
 10
503.6021086928833
 20
156.8337861011914
 30
0.0
 42
-1.0
  0
VERTEX
  5
3DBD
  8
FIRSTCUT
 62
     1
 10
506.6021086928833
 20
156.8337861011914
 30
0.0
 42
-1.0
  0
SEQEND
  5
4136
  8
FIRSTCUT
 62
     1
  0
POLYLINE
  5
BC7
  8
FIRSTCUT
 62
     1
 66
     1
 10
0.0
 20
0.0
 30
0.0
 70
     1
  0
VERTEX
  5
3DBE
  8
FIRSTCUT
 62
     1
 10
460.7409225244834
 20
124.5823575814947
 30
0.0
 42
-0.9999999999999998
  0
VERTEX
  5
3DBF
  8
FIRSTCUT
 62
     1
 10
463.7409225244834
 20
124.5823575814947
 30
0.0
 42
-0.9999999999999998
  0
SEQEND
  5
4137
  8
FIRSTCUT
 62
     1
  0
POLYLINE
  5
BC8
  8
FIRSTCUT
 62
     1
 66
     1
 10
0.0
 20
0.0
 30
0.0
 70
     1
  0
VERTEX
  5
3DC0
  8
FIRSTCUT
 62
     1
 10
460.7409225244834
 20
70.97634448380711
 30
0.0
 42
-0.9999999999999998
  0
VERTEX
  5
3DC1
  8
FIRSTCUT
 62
     1
 10
463.7409225244834
 20
70.97634448380711
 30
0.0
 42
-0.9999999999999998
  0
SEQEND
  5
4138
  8
FIRSTCUT
 62
     1
  0
POLYLINE
  5
BC9
  8
FIRSTCUT
 62
     1
 66
     1
 10
0.0
 20
0.0
 30
0.0
 70
     1
  0
VERTEX
  5
3DC2
  8
FIRSTCUT
 62
     1
 10
417.8797363560835
 20
156.8337861011914
 30
0.0
 42
-0.9999999999999998
  0
VERTEX
  5
3DC3
  8
FIRSTCUT
 62
     1
 10
420.8797363560835
 20
156.8337861011914
 30
0.0
 42
-0.9999999999999998
  0
SEQEND
  5
4139
  8
FIRSTCUT
 62
     1
  0
POLYLINE
  5
BF9
  8
FIRSTCUT
 62
     1
 66
     1
 10
0.0
 20
0.0
 30
0.0
 70
     1
  0
VERTEX
  5
3DC4
  8
FIRSTCUT
 62
     1
 10
189.435892864243
 20
273.0368027944702
 30
0.0
 42
-1.000000000000019
  0
VERTEX
  5
3DC5
  8
FIRSTCUT
 62
     1
 10
192.435892864243
 20
273.0368027944702
 30
0.0
 42
-0.9999999999999809
  0
SEQEND
  5
413A
  8
FIRSTCUT
 62
     1
  0
POLYLINE
  5
BFA
  8
MARKERS
 62
     2
 66
     1
 10
0.0
 20
0.0
 30
0.0
 70
     1
  0
VERTEX
  5
3DC6
  8
MARKERS
 62
     2
 10
230.0518736827849
 20
321.9861988289562
 30
0.0
 42
-0.9999999999999998
  0
VERTEX
  5
3DC7
  8
MARKERS
 62
     2
 10
233.0518736827849
 20
321.9861988289562
 30
0.0
 42
-0.9999999999999998
  0
SEQEND
  5
413B
  8
MARKERS
 62
     2
  0
POLYLINE
  5
BFB
  8
FIRSTCUT
 62
     1
 66
     1
 10
0.0
 20
0.0
 30
0.0
 70
     1
  0
VERTEX
  5
3DC8
  8
FIRSTCUT
 62
     1
 10
172.5312353150433
 20
330.2045728560047
 30
0.0
 42
-0.9999999999999998
  0
VERTEX
  5
3DC9
  8
FIRSTCUT
 62
     1
 10
175.5312353150433
 20
330.2045728560047
 30
0.0
 42
-0.9999999999999998
  0
SEQEND
  5
413C
  8
FIRSTCUT
 62
     1
  0
POLYLINE
  5
BFC
  8
FIRSTCUT
 62
     1
 66
     1
 10
0.0
 20
0.0
 30
0.0
 70
     1
  0
VERTEX
  5
3DCA
  8
FIRSTCUT
 62
     1
 10
277.2860221359684
 20
311.6494477153496
 30
0.0
 42
-0.9999999999999998
  0
VERTEX
  5
3DCB
  8
FIRSTCUT
 62
     1
 10
280.2860221359684
 20
311.6494477153496
 30
0.0
 42
-0.9999999999999998
  0
SEQEND
  5
413D
  8
FIRSTCUT
 62
     1
  0
POLYLINE
  5
BFD
  8
FIRSTCUT
 62
     1
 66
     1
 10
0.0
 20
0.0
 30
0.0
 70
     1
  0
VERTEX
  5
3DCC
  8
FIRSTCUT
 62
     1
 10
248.7282775435349
 20
266.8453167283509
 30
0.0
 42
-0.9999999999999998
  0
VERTEX
  5
3DCD
  8
FIRSTCUT
 62
     1
 10
251.7282775435349
 20
266.8453167283509
 30
0.0
 42
-0.9999999999999998
  0
SEQEND
  5
413E
  8
FIRSTCUT
 62
     1
  0
POLYLINE
  5
BFE
  8
MARKERS
 62
     2
 66
     1
 10
0.0
 20
0.0
 30
0.0
 70
     1
  0
VERTEX
  5
3DCE
  8
MARKERS
 62
     2
 10
233.241064906762
 20
325.8370505966705
 30
0.0
 42
-0.9999999999999998
  0
VERTEX
  5
3DCF
  8
MARKERS
 62
     2
 10
236.241064906762
 20
325.8370505966705
 30
0.0
 42
-0.9999999999999998
  0
SEQEND
  5
413F
  8
MARKERS
 62
     2
  0
POLYLINE
  5
BFF
  8
FIRSTCUT
 62
     1
 66
     1
 10
0.0
 20
0.0
 30
0.0
 70
     1
  0
VERTEX
  5
3DD0
  8
FIRSTCUT
 62
     1
 10
257.9830307005071
 20
355.4728898884977
 30
0.0
 42
-0.9999999999999998
  0
VERTEX
  5
3DD1
  8
FIRSTCUT
 62
     1
 10
260.9830307005071
 20
355.4728898884977
 30
0.0
 42
-0.9999999999999998
  0
SEQEND
  5
4140
  8
FIRSTCUT
 62
     1
  0
POLYLINE
  5
C00
  8
MARKERS
 62
     2
 66
     1
 10
0.0
 20
0.0
 30
0.0
 70
     1
  0
VERTEX
  5
3DD2
  8
MARKERS
 62
     2
 10
236.433440498116
 20
329.6852629197793
 30
0.0
 42
-0.9999999999999998
  0
VERTEX
  5
3DD3
  8
MARKERS
 62
     2
 10
239.433440498116
 20
329.6852629197793
 30
0.0
 42
-0.9999999999999998
  0
SEQEND
  5
4141
  8
MARKERS
 62
     2
  0
POLYLINE
  5
C01
  8
FIRSTCUT
 62
     1
 66
     1
 10
0.0
 20
0.0
 30
0.0
 70
     1
  0
VERTEX
  5
3DD4
  8
FIRSTCUT
 62
     1
 10
211.373482259282
 20
366.4569490819788
 30
0.0
 42
-0.9999999999999998
  0
VERTEX
  5
3DD5
  8
FIRSTCUT
 62
     1
 10
214.373482259282
 20
366.4569490819788
 30
0.0
 42
-0.9999999999999998
  0
SEQEND
  5
4142
  8
FIRSTCUT
 62
     1
  0
POLYLINE
  5
C02
  8
MARKERS
 62
     2
 66
     1
 10
0.0
 20
0.0
 30
0.0
 70
     1
  0
VERTEX
  5
3DD6
  8
MARKERS
 62
     2
 10
218.7875037199724
 20
314.254846341484
 30
0.0
 42
-1.000000000000005
  0
VERTEX
  5
3DD7
  8
MARKERS
 62
     2
 10
231.6314198447777
 20
314.254846341484
 30
0.0
 42
-1.000000000000005
  0
SEQEND
  5
4143
  8
MARKERS
 62
     2
  0
POLYLINE
  5
C03
  8
FIRSTCUT
 62
     1
 66
     1
 10
0.0
 20
0.0
 30
0.0
 70
     1
  0
VERTEX
  5
3DD8
  8
FIRSTCUT
 62
     1
 10
207.7094617823751
 20
296.754846341484
 30
0.0
  0
VERTEX
  5
3DD9
  8
FIRSTCUT
 62
     1
 10
207.7094617823751
 20
331.754846341484
 30
0.0
  0
VERTEX
  5
3DDA
  8
FIRSTCUT
 62
     1
 10
242.7094617823751
 20
331.754846341484
 30
0.0
  0
VERTEX
  5
3DDB
  8
FIRSTCUT
 62
     1
 10
242.7094617823751
 20
296.754846341484
 30
0.0
  0
SEQEND
  5
4144
  8
FIRSTCUT
 62
     1
  0
POLYLINE
  5
C88
  8
TEMP
 62
     5
 66
     1
 10
0.0
 20
0.0
 30
0.0
  0
VERTEX
  5
3DDC
  8
TEMP
 62
     5
 10
171.4907981820632
 20
285.805191275722
 30
0.0
  0
VERTEX
  5
3DDD
  8
TEMP
 62
     5
 10
172.1867602669832
 20
279.6745684055441
 30
0.0
  0
VERTEX
  5
3DDE
  8
TEMP
 62
     5
 10
170.4754285028394
 20
279.4814251017573
 30
0.0
  0
VERTEX
  5
3DDF
  8
TEMP
 62
     5
 10
169.7971933670268
 20
285.6140216188251
 30
0.0
  0
VERTEX
  5
3DE0
  8
TEMP
 62
     5
 10
164.9155117916385
 20
285.0581497135123
 30
0.0
 42
0.2157100192345756
  0
VERTEX
  5
3DE1
  8
TEMP
 62
     5
 10
207.3396802967594
 20
249.6910917331317
 30
0.0
  0
VERTEX
  5
3DE2
  8
TEMP
 62
     5
 10
207.0066023937432
 20
254.6135982240618
 30
0.0
  0
VERTEX
  5
3DE3
  8
TEMP
 62
     5
 10
200.7997414068114
 20
254.1895633847383
 30
0.0
  0
VERTEX
  5
3DE4
  8
TEMP
 62
     5
 10
200.7207078867844
 20
255.8922009953593
 30
0.0
  0
VERTEX
  5
3DE5
  8
TEMP
 62
     5
 10
206.8911111092977
 20
256.3140399880336
 30
0.0
  0
VERTEX
  5
3DE6
  8
TEMP
 62
     5
 10
205.5697461420128
 20
275.7692237056707
 30
0.0
  0
VERTEX
  5
3DE7
  8
TEMP
 62
     5
 10
233.5070303556266
 20
277.6666793749014
 30
0.0
  0
VERTEX
  5
3DE8
  8
TEMP
 62
     5
 10
234.8283730143065
 20
258.1904595932572
 30
0.0
  0
VERTEX
  5
3DE9
  8
TEMP
 62
     5
 10
240.9794340110455
 20
258.6075796156441
 30
0.0
  0
VERTEX
  5
3DEA
  8
TEMP
 62
     5
 10
241.0948320367818
 20
256.8892536749619
 30
0.0
  0
VERTEX
  5
3DEB
  8
TEMP
 62
     5
 10
234.9438665089302
 20
256.4899999184348
 30
0.0
  0
VERTEX
  5
3DEC
  8
TEMP
 62
     5
 10
235.5160995906547
 20
248.0613367158404
 30
0.0
 42
0.1857202168723426
  0
VERTEX
  5
3DED
  8
TEMP
 62
     5
 10
277.2231737537136
 20
272.0365888403285
 30
0.0
  0
VERTEX
  5
3DEE
  8
TEMP
 62
     5
 10
271.1993031705409
 20
274.5122569690278
 30
0.0
  0
VERTEX
  5
3DEF
  8
TEMP
 62
     5
 10
268.8491983133
 20
268.7584658847155
 30
0.0
  0
VERTEX
  5
3DF0
  8
TEMP
 62
     5
 10
267.2857148347039
 20
269.4372445986918
 30
0.0
  0
VERTEX
  5
3DF1
  8
TEMP
 62
     5
 10
269.6227179158887
 20
275.1597359459043
 30
0.0
  0
VERTEX
  5
3DF2
  8
TEMP
 62
     5
 10
251.5647129403536
 20
282.5758095662449
 30
0.0
  0
VERTEX
  5
3DF3
  8
TEMP
 62
     5
 10
262.20232125064
 20
308.4781931763654
 30
0.0
  0
VERTEX
  5
3DF4
  8
TEMP
 62
     5
 10
280.2398701060786
 20
301.0689571331553
 30
0.0
  0
VERTEX
  5
3DF5
  8
TEMP
 62
     5
 10
282.5752436511235
 20
306.7784901426162
 30
0.0
  0
VERTEX
  5
3DF6
  8
TEMP
 62
     5
 10
284.1688253142154
 20
306.1254524516507
 30
0.0
  0
VERTEX
  5
3DF7
  8
TEMP
 62
     5
 10
281.8164567533734
 20
300.4214834690941
 30
0.0
  0
VERTEX
  5
3DF8
  8
TEMP
 62
     5
 10
289.9606342981506
 20
297.0765706042769
 30
0.0
 42
0.0986612993689344
  0
VERTEX
  5
3DF9
  8
TEMP
 62
     5
 10
291.5995754184358
 20
323.2080754160818
 30
0.0
  0
VERTEX
  5
3DFA
  8
TEMP
 62
     5
 10
283.5598224168476
 20
321.6479458830191
 30
0.0
  0
VERTEX
  5
3DFB
  8
TEMP
 62
     5
 10
284.7478800449279
 20
315.5473103229687
 30
0.0
  0
VERTEX
  5
3DFC
  8
TEMP
 62
     5
 10
283.0681266908094
 20
315.2580875719328
 30
0.0
  0
VERTEX
  5
3DFD
  8
TEMP
 62
     5
 10
281.8866655795046
 20
321.3233127690893
 30
0.0
  0
VERTEX
  5
3DFE
  8
TEMP
 62
     5
 10
262.7563899801583
 20
317.6101089095023
 30
0.0
  0
VERTEX
  5
3DFF
  8
TEMP
 62
     5
 10
257.4228635484247
 20
345.0991191326966
 30
0.0
  0
VERTEX
  5
3E00
  8
TEMP
 62
     5
 10
276.5658704925702
 20
348.813321015212
 30
0.0
  0
VERTEX
  5
3E01
  8
TEMP
 62
     5
 10
275.3893546964921
 20
354.8708982631605
 30
0.0
  0
VERTEX
  5
3E02
  8
TEMP
 62
     5
 10
277.0801735256444
 20
355.198148060333
 30
0.0
  0
VERTEX
  5
3E03
  8
TEMP
 62
     5
 10
278.2390278613398
 20
349.1379536221457
 30
0.0
  0
VERTEX
  5
3E04
  8
TEMP
 62
     5
 10
281.9552384653965
 20
349.859962941657
 30
0.0
 42
0.1590769271680958
  0
VERTEX
  5
3E05
  8
TEMP
 62
     5
 10
250.021559087131
 20
376.481587593221
 30
0.0
  0
VERTEX
  5
3E06
  8
TEMP
 62
     5
 10
249.9800021245658
 20
372.6879235929579
 30
0.0
  0
VERTEX
  5
3E07
  8
TEMP
 62
     5
 10
256.1949470431232
 20
372.6267216711793
 30
0.0
  0
VERTEX
  5
3E08
  8
TEMP
 62
     5
 10
256.1409697484619
 20
370.9231056398947
 30
0.0
  0
VERTEX
  5
3E09
  8
TEMP
 62
     5
 10
249.9617663298
 20
370.983661676899
 30
0.0
  0
VERTEX
  5
3E0A
  8
TEMP
 62
     5
 10
249.7531900248414
 20
351.4929695664755
 30
0.0
  0
VERTEX
  5
3E0B
  8
TEMP
 62
     5
 10
221.7531470870538
 20
351.7926072325757
 30
0.0
  0
VERTEX
  5
3E0C
  8
TEMP
 62
     5
 10
221.9632571229923
 20
371.2914754934735
 30
0.0
  0
VERTEX
  5
3E0D
  8
TEMP
 62
     5
 10
215.7930889100103
 20
371.3553347988575
 30
0.0
  0
VERTEX
  5
3E0E
  8
TEMP
 62
     5
 10
215.8120357910544
 20
373.0774270607482
 30
0.0
  0
VERTEX
  5
3E0F
  8
TEMP
 62
     5
 10
221.9814949928275
 20
372.995737663263
 30
0.0
  0
VERTEX
  5
3E10
  8
TEMP
 62
     5
 10
222.0692155618841
 20
381.1723055964943
 30
0.0
 42
0.0999262765748063
  0
VERTEX
  5
3E11
  8
TEMP
 62
     5
 10
196.3559638794175
 20
374.7137841276815
 30
0.0
  0
VERTEX
  5
3E12
  8
TEMP
 62
     5
 10
200.5568097579776
 20
367.1156301091511
 30
0.0
  0
VERTEX
  5
3E13
  8
TEMP
 62
     5
 10
205.9927155609631
 20
370.1289676699741
 30
0.0
  0
VERTEX
  5
3E14
  8
TEMP
 62
     5
 10
206.786362797586
 20
368.6205429306549
 30
0.0
  0
VERTEX
  5
3E15
  8
TEMP
 62
     5
 10
201.3814254128234
 20
365.624036320151
 30
0.0
  0
VERTEX
  5
3E16
  8
TEMP
 62
     5
 10
210.8173205859865
 20
348.5590463617283
 30
0.0
  0
VERTEX
  5
3E17
  8
TEMP
 62
     5
 10
186.3112998610098
 20
335.0110894871328
 30
0.0
  0
VERTEX
  5
3E18
  8
TEMP
 62
     5
 10
176.8766703078225
 20
352.0767791334015
 30
0.0
  0
VERTEX
  5
3E19
  8
TEMP
 62
     5
 10
171.4788352095096
 20
349.0880877389249
 30
0.0
  0
VERTEX
  5
3E1A
  8
TEMP
 62
     5
 10
170.6456022846299
 20
350.5952982868117
 30
0.0
  0
VERTEX
  5
3E1B
  8
TEMP
 62
     5
 10
176.0520546529775
 20
353.5683729224016
 30
0.0
  0
VERTEX
  5
3E1C
  8
TEMP
 62
     5
 10
173.9441997595016
 20
357.3788583208598
 30
0.0
 42
0.183477444920234
  0
VERTEX
  5
3E1D
  8
TEMP
 62
     5
 10
158.2418426535901
 20
312.4812940605346
 30
0.0
  0
VERTEX
  5
3E1E
  8
TEMP
 62
     5
 10
166.6567554350545
 20
313.4375649300013
 30
0.0
  0
VERTEX
  5
3E1F
  8
TEMP
 62
     5
 10
165.9525891366257
 20
319.6127916447507
 30
0.0
  0
VERTEX
  5
3E20
  8
TEMP
 62
     5
 10
167.6498964982946
 20
319.7688968990367
 30
0.0
  0
VERTEX
  5
3E21
  8
TEMP
 62
     5
 10
168.3502199515745
 20
313.6299640368139
 30
0.0
  0
VERTEX
  5
3E22
  8
TEMP
 62
     5
 10
187.725411535221
 20
315.8326876741926
 30
0.0
  0
VERTEX
  5
3E23
  8
TEMP
 62
     5
 10
190.8864191742262
 20
288.0100311160012
 30
0.0
  0
VERTEX
  5
3E24
  8
TEMP
 62
     5
 10
171.511065366871
 20
285.8087445039409
 30
0.0
  0
SEQEND
  5
4145
  8
TEMP
 62
     5
  0
CIRCLE
  5
34AA
  8
FIRSTCUT
 62
     1
 10
528.117490156382
 20
260.4836446564254
 30
0.0
 40
1.499999999999999
  0
CIRCLE
  5
34AB
  8
FIRSTCUT
 62
     1
 10
463.4335361843843
 20
254.8980466789594
 30
0.0
 40
1.499999999999999
  0
POLYLINE
  5
34AC
  8
FIRSTCUT
 62
     1
 66
     1
 10
0.0
 20
0.0
 30
0.0
  0
VERTEX
  5
3E25
  8
FIRSTCUT
 62
     1
 10
553.7958678147277
 20
257.7914135652192
 30
0.0
  0
VERTEX
  5
3E26
  8
FIRSTCUT
 62
     1
 10
553.5557141062502
 20
253.548204143531
 30
0.0
  0
VERTEX
  5
3E27
  8
FIRSTCUT
 62
     1
 10
551.0597085640807
 20
253.6894710308708
 30
0.0
  0
VERTEX
  5
3E28
  8
FIRSTCUT
 62
     1
 10
551.2998622725581
 20
257.9326804525592
 30
0.0
  0
VERTEX
  5
3E29
  8
FIRSTCUT
 62
     1
 10
551.3704957162281
 20
259.1806832236437
 30
0.0
  0
VERTEX
  5
3E2A
  8
FIRSTCUT
 62
     1
 10
553.8665012583981
 20
259.0394163363041
 30
0.0
  0
VERTEX
  5
3E2B
  8
FIRSTCUT
 62
     1
 10
553.7958678147277
 20
257.7914135652192
 30
0.0
  0
VERTEX
  5
3E2C
  8
FIRSTCUT
 62
     1
 10
553.8665012583981
 20
259.0394163363041
 30
0.0
  0
SEQEND
  5
4146
  8
FIRSTCUT
 62
     1
  0
POLYLINE
  5
34AD
  8
FIRSTCUT
 62
     1
 66
     1
 10
0.0
 20
0.0
 30
0.0
 70
     1
  0
VERTEX
  5
3E2D
  8
FIRSTCUT
 62
     1
 10
554.3044286091515
 20
266.77703351703
 30
0.0
  0
VERTEX
  5
3E2E
  8
FIRSTCUT
 62
     1
 10
554.2337951654815
 20
265.5290307459452
 30
0.0
  0
VERTEX
  5
3E2F
  8
FIRSTCUT
 62
     1
 10
551.737789623312
 20
265.6702976332847
 30
0.0
  0
VERTEX
  5
3E30
  8
FIRSTCUT
 62
     1
 10
551.8084230669817
 20
266.9183004043695
 30
0.0
  0
VERTEX
  5
3E31
  8
FIRSTCUT
 62
     1
 10
552.0485767754597
 20
271.161509826058
 30
0.0
  0
VERTEX
  5
3E32
  8
FIRSTCUT
 62
     1
 10
554.544582317629
 20
271.0202429387178
 30
0.0
  0
SEQEND
  5
4147
  8
FIRSTCUT
 62
     1
  0
POLYLINE
  5
34AE
  8
SECONDCUT
 62
     5
 66
     1
 10
0.0
 20
0.0
 30
0.0
 70
     1
  0
VERTEX
  5
3E33
  8
SECONDCUT
 62
     5
 10
437.2787415629562
 20
254.7782683619898
 30
0.0
  0
VERTEX
  5
3E34
  8
SECONDCUT
 62
     5
 10
437.047149550669
 20
256.2600631704639
 30
0.0
  0
VERTEX
  5
3E35
  8
SECONDCUT
 62
     5
 10
436.0629556646359
 20
256.1077833477236
 30
0.0
  0
VERTEX
  5
3E36
  8
SECONDCUT
 62
     5
 10
435.8359139184159
 20
257.5903304069162
 30
0.0
  0
VERTEX
  5
3E37
  8
SECONDCUT
 62
     5
 10
436.8149106322298
 20
257.7418123087929
 30
0.0
  0
VERTEX
  5
3E38
  8
SECONDCUT
 62
     5
 10
436.6587487898241
 20
258.7399254010743
 30
0.0
  0
VERTEX
  5
3E39
  8
SECONDCUT
 62
     5
 10
434.6810208561557
 20
258.4392023033208
 30
0.0
  0
VERTEX
  5
3E3A
  8
SECONDCUT
 62
     5
 10
434.235240580661
 20
261.3686712573162
 30
0.0
 42
0.2582507175520683
  0
VERTEX
  5
3E3B
  8
SECONDCUT
 62
     5
 10
432.6273414493552
 20
256.7056157302069
 30
0.0
  0
VERTEX
  5
3E3C
  8
SECONDCUT
 62
     5
 10
432.870304149185
 20
254.783087004536
 30
0.0
 42
0.112517671818221
  0
VERTEX
  5
3E3D
  8
SECONDCUT
 62
     5
 10
435.3953770736846
 20
248.1126375365865
 30
0.0
  0
VERTEX
  5
3E3E
  8
SECONDCUT
 62
     5
 10
439.381935984956
 20
248.1236051369685
 30
0.0
  0
VERTEX
  5
3E3F
  8
SECONDCUT
 62
     5
 10
441.0135841415201
 20
248.1314323146013
 30
0.0
  0
VERTEX
  5
3E40
  8
SECONDCUT
 62
     5
 10
564.3481914338761
 20
249.1415051401148
 30
0.0
  0
VERTEX
  5
3E41
  8
SECONDCUT
 62
     5
 10
565.322227781448
 20
249.1494822007903
 30
0.0
  0
VERTEX
  5
3E42
  8
SECONDCUT
 62
     5
 10
566.4547754763732
 20
269.0941591084022
 30
0.0
  0
VERTEX
  5
3E43
  8
SECONDCUT
 62
     5
 10
567.0779549253168
 20
280.0506217465243
 30
0.0
  0
VERTEX
  5
3E44
  8
SECONDCUT
 62
     5
 10
564.0995822886618
 20
279.4978423464125
 30
0.0
  0
VERTEX
  5
3E45
  8
SECONDCUT
 62
     5
 10
446.1138021062688
 20
257.5777318216802
 30
0.0
 42
-0.2704700093602971
  0
VERTEX
  5
3E46
  8
SECONDCUT
 62
     5
 10
444.2162086114757
 20
258.2592396021587
 30
0.0
  0
VERTEX
  5
3E47
  8
SECONDCUT
 62
     5
 10
440.7480455744586
 20
262.3960630023983
 30
0.0
  0
VERTEX
  5
3E48
  8
SECONDCUT
 62
     5
 10
440.1615526687285
 20
262.3068157793698
 30
0.0
  0
VERTEX
  5
3E49
  8
SECONDCUT
 62
     5
 10
440.6127022594097
 20
259.3420620830738
 30
0.0
  0
VERTEX
  5
3E4A
  8
SECONDCUT
 62
     5
 10
438.6350084998019
 20
259.0411144086498
 30
0.0
  0
VERTEX
  5
3E4B
  8
SECONDCUT
 62
     5
 10
438.7897535097708
 20
258.0510096544099
 30
0.0
  0
VERTEX
  5
3E4C
  8
SECONDCUT
 62
     5
 10
439.7883963654376
 20
258.2051235848366
 30
0.0
  0
VERTEX
  5
3E4D
  8
SECONDCUT
 62
     5
 10
440.0154625853356
 20
256.7224167163564
 30
0.0
  0
VERTEX
  5
3E4E
  8
SECONDCUT
 62
     5
 10
439.0232235517905
 20
256.568906845534
 30
0.0
  0
VERTEX
  5
3E4F
  8
SECONDCUT
 62
     5
 10
439.2537438014346
 20
255.0869445296119
 30
0.0
  0
SEQEND
  5
4148
  8
SECONDCUT
 62
     5
  0
CIRCLE
  5
34CE
  8
0
 62
     1
 10
137.9215630032726
 20
250.4302839440228
 30
0.0
 40
1.0
  0
CIRCLE
  5
34CF
  8
0
 62
     1
 10
137.9215630032726
 20
258.4302839440228
 30
0.0
 40
1.0
  0
CIRCLE
  5
34D0
  8
0
 62
     1
 10
137.9215630032726
 20
254.4302839440228
 30
0.0
 40
1.0
  0
POLYLINE
  5
34D1
  8
SECONDCUT
 62
     5
 66
     1
 10
0.0
 20
0.0
 30
0.0
 70
     1
  0
VERTEX
  5
3E50
  8
SECONDCUT
 62
     5
 10
134.9215630032726
 20
250.4302839440228
 30
0.0
  0
VERTEX
  5
3E51
  8
SECONDCUT
 62
     5
 10
134.9792071620629
 20
249.8372586267097
 30
0.0
  0
VERTEX
  5
3E52
  8
SECONDCUT
 62
     5
 10
135.1499244057386
 20
249.2670229397685
 30
0.0
  0
VERTEX
  5
3E53
  8
SECONDCUT
 62
     5
 10
135.4271541663648
 20
248.7414907208565
 30
0.0
  0
VERTEX
  5
3E54
  8
SECONDCUT
 62
     5
 10
135.8002426597128
 20
248.2808578784246
 30
0.0
  0
VERTEX
  5
3E55
  8
SECONDCUT
 62
     5
 10
136.2548523042138
 20
247.9028262742816
 30
0.0
  0
VERTEX
  5
3E56
  8
SECONDCUT
 62
     5
 10
136.7735127061772
 20
247.6219234509721
 30
0.0
  0
VERTEX
  5
3E57
  8
SECONDCUT
 62
     5
 10
137.3362920372241
 20
247.448944346464
 30
0.0
  0
VERTEX
  5
3E58
  8
SECONDCUT
 62
     5
 10
137.9215630032726
 20
247.3905364507355
 30
0.0
  0
VERTEX
  5
3E59
  8
SECONDCUT
 62
     5
 10
138.5068339693209
 20
247.448944346464
 30
0.0
  0
VERTEX
  5
3E5A
  8
SECONDCUT
 62
     5
 10
139.0696133003678
 20
247.6219234509721
 30
0.0
  0
VERTEX
  5
3E5B
  8
SECONDCUT
 62
     5
 10
139.5882737023313
 20
247.9028262742816
 30
0.0
  0
VERTEX
  5
3E5C
  8
SECONDCUT
 62
     5
 10
140.0428833468322
 20
248.2808578784246
 30
0.0
  0
VERTEX
  5
3E5D
  8
SECONDCUT
 62
     5
 10
140.4159718401802
 20
248.7414907208565
 30
0.0
  0
VERTEX
  5
3E5E
  8
SECONDCUT
 62
     5
 10
140.6932016008064
 20
249.2670229397685
 30
0.0
  0
VERTEX
  5
3E5F
  8
SECONDCUT
 62
     5
 10
140.8639188444821
 20
249.8372586267097
 30
0.0
  0
VERTEX
  5
3E60
  8
SECONDCUT
 62
     5
 10
140.9215630032726
 20
250.4302839440228
 30
0.0
  0
VERTEX
  5
3E61
  8
SECONDCUT
 62
     5
 10
140.9215630032726
 20
254.4302839440228
 30
0.0
  0
VERTEX
  5
3E62
  8
SECONDCUT
 62
     5
 10
140.9215630032726
 20
258.4302839440228
 30
0.0
  0
VERTEX
  5
3E63
  8
SECONDCUT
 62
     5
 10
140.8639188444821
 20
259.0233092613361
 30
0.0
  0
VERTEX
  5
3E64
  8
SECONDCUT
 62
     5
 10
140.6932016008064
 20
259.5935449482773
 30
0.0
  0
VERTEX
  5
3E65
  8
SECONDCUT
 62
     5
 10
140.4159718401802
 20
260.1190771671893
 30
0.0
  0
VERTEX
  5
3E66
  8
SECONDCUT
 62
     5
 10
140.0428833468322
 20
260.5797100096212
 30
0.0
  0
VERTEX
  5
3E67
  8
SECONDCUT
 62
     5
 10
139.5882737023313
 20
260.9577416137643
 30
0.0
  0
VERTEX
  5
3E68
  8
SECONDCUT
 62
     5
 10
139.0696133003678
 20
261.2386444370737
 30
0.0
  0
VERTEX
  5
3E69
  8
SECONDCUT
 62
     5
 10
138.5068339693209
 20
261.4116235415818
 30
0.0
  0
VERTEX
  5
3E6A
  8
SECONDCUT
 62
     5
 10
137.9215630032726
 20
261.4700314373104
 30
0.0
  0
VERTEX
  5
3E6B
  8
SECONDCUT
 62
     5
 10
137.3362920372241
 20
261.4116235415818
 30
0.0
  0
VERTEX
  5
3E6C
  8
SECONDCUT
 62
     5
 10
136.7735127061772
 20
261.2386444370737
 30
0.0
  0
VERTEX
  5
3E6D
  8
SECONDCUT
 62
     5
 10
136.2548523042138
 20
260.9577416137643
 30
0.0
  0
VERTEX
  5
3E6E
  8
SECONDCUT
 62
     5
 10
135.8002426597128
 20
260.5797100096212
 30
0.0
  0
VERTEX
  5
3E6F
  8
SECONDCUT
 62
     5
 10
135.4271541663648
 20
260.1190771671893
 30
0.0
  0
VERTEX
  5
3E70
  8
SECONDCUT
 62
     5
 10
135.1499244057386
 20
259.5935449482773
 30
0.0
  0
VERTEX
  5
3E71
  8
SECONDCUT
 62
     5
 10
134.9792071620629
 20
259.0233092613361
 30
0.0
  0
VERTEX
  5
3E72
  8
SECONDCUT
 62
     5
 10
134.9215630032726
 20
258.4302839440228
 30
0.0
  0
VERTEX
  5
3E73
  8
SECONDCUT
 62
     5
 10
134.9215630032726
 20
254.4302839440228
 30
0.0
  0
SEQEND
  5
4149
  8
SECONDCUT
 62
     5
  0
CIRCLE
  5
34D3
  8
0
 62
     1
 10
150.6133866687689
 20
251.4879359161476
 30
0.0
 40
1.0
  0
CIRCLE
  5
34D4
  8
0
 62
     1
 10
150.6133866687689
 20
259.4879359161476
 30
0.0
 40
1.0
  0
CIRCLE
  5
34D5
  8
0
 62
     1
 10
150.6133866687689
 20
255.4879359161476
 30
0.0
 40
1.0
  0
POLYLINE
  5
34D6
  8
SECONDCUT
 62
     5
 66
     1
 10
0.0
 20
0.0
 30
0.0
 70
     1
  0
VERTEX
  5
3E74
  8
SECONDCUT
 62
     5
 10
147.6133866687689
 20
251.4879359161476
 30
0.0
  0
VERTEX
  5
3E75
  8
SECONDCUT
 62
     5
 10
147.6710308275593
 20
250.8949105988344
 30
0.0
  0
VERTEX
  5
3E76
  8
SECONDCUT
 62
     5
 10
147.8417480712351
 20
250.3246749118933
 30
0.0
  0
VERTEX
  5
3E77
  8
SECONDCUT
 62
     5
 10
148.1189778318613
 20
249.7991426929813
 30
0.0
  0
VERTEX
  5
3E78
  8
SECONDCUT
 62
     5
 10
148.4920663252093
 20
249.3385098505494
 30
0.0
  0
VERTEX
  5
3E79
  8
SECONDCUT
 62
     5
 10
148.9466759697101
 20
248.9604782464062
 30
0.0
  0
VERTEX
  5
3E7A
  8
SECONDCUT
 62
     5
 10
149.4653363716737
 20
248.6795754230969
 30
0.0
  0
VERTEX
  5
3E7B
  8
SECONDCUT
 62
     5
 10
150.0281157027206
 20
248.5065963185888
 30
0.0
  0
VERTEX
  5
3E7C
  8
SECONDCUT
 62
     5
 10
150.6133866687689
 20
248.4481884228601
 30
0.0
  0
VERTEX
  5
3E7D
  8
SECONDCUT
 62
     5
 10
151.1986576348174
 20
248.5065963185888
 30
0.0
  0
VERTEX
  5
3E7E
  8
SECONDCUT
 62
     5
 10
151.7614369658642
 20
248.6795754230969
 30
0.0
  0
VERTEX
  5
3E7F
  8
SECONDCUT
 62
     5
 10
152.2800973678277
 20
248.9604782464062
 30
0.0
  0
VERTEX
  5
3E80
  8
SECONDCUT
 62
     5
 10
152.7347070123286
 20
249.3385098505493
 30
0.0
  0
VERTEX
  5
3E81
  8
SECONDCUT
 62
     5
 10
153.1077955056766
 20
249.7991426929813
 30
0.0
  0
VERTEX
  5
3E82
  8
SECONDCUT
 62
     5
 10
153.3850252663028
 20
250.3246749118933
 30
0.0
  0
VERTEX
  5
3E83
  8
SECONDCUT
 62
     5
 10
153.5557425099786
 20
250.8949105988344
 30
0.0
  0
VERTEX
  5
3E84
  8
SECONDCUT
 62
     5
 10
153.6133866687689
 20
251.4879359161476
 30
0.0
  0
VERTEX
  5
3E85
  8
SECONDCUT
 62
     5
 10
153.6133866687689
 20
255.4879359161476
 30
0.0
  0
VERTEX
  5
3E86
  8
SECONDCUT
 62
     5
 10
153.6133866687689
 20
259.4879359161476
 30
0.0
  0
VERTEX
  5
3E87
  8
SECONDCUT
 62
     5
 10
153.5557425099786
 20
260.0809612334609
 30
0.0
  0
VERTEX
  5
3E88
  8
SECONDCUT
 62
     5
 10
153.3850252663028
 20
260.6511969204021
 30
0.0
  0
VERTEX
  5
3E89
  8
SECONDCUT
 62
     5
 10
153.1077955056766
 20
261.176729139314
 30
0.0
  0
VERTEX
  5
3E8A
  8
SECONDCUT
 62
     5
 10
152.7347070123286
 20
261.637361981746
 30
0.0
  0
VERTEX
  5
3E8B
  8
SECONDCUT
 62
     5
 10
152.2800973678277
 20
262.0153935858889
 30
0.0
  0
VERTEX
  5
3E8C
  8
SECONDCUT
 62
     5
 10
151.7614369658642
 20
262.2962964091985
 30
0.0
  0
VERTEX
  5
3E8D
  8
SECONDCUT
 62
     5
 10
151.1986576348174
 20
262.4692755137066
 30
0.0
  0
VERTEX
  5
3E8E
  8
SECONDCUT
 62
     5
 10
150.6133866687689
 20
262.527683409435
 30
0.0
  0
VERTEX
  5
3E8F
  8
SECONDCUT
 62
     5
 10
150.0281157027206
 20
262.4692755137066
 30
0.0
  0
VERTEX
  5
3E90
  8
SECONDCUT
 62
     5
 10
149.4653363716737
 20
262.2962964091985
 30
0.0
  0
VERTEX
  5
3E91
  8
SECONDCUT
 62
     5
 10
148.9466759697101
 20
262.0153935858889
 30
0.0
  0
VERTEX
  5
3E92
  8
SECONDCUT
 62
     5
 10
148.4920663252093
 20
261.637361981746
 30
0.0
  0
VERTEX
  5
3E93
  8
SECONDCUT
 62
     5
 10
148.1189778318613
 20
261.176729139314
 30
0.0
  0
VERTEX
  5
3E94
  8
SECONDCUT
 62
     5
 10
147.8417480712351
 20
260.6511969204021
 30
0.0
  0
VERTEX
  5
3E95
  8
SECONDCUT
 62
     5
 10
147.6710308275593
 20
260.0809612334609
 30
0.0
  0
VERTEX
  5
3E96
  8
SECONDCUT
 62
     5
 10
147.6133866687689
 20
259.4879359161476
 30
0.0
  0
VERTEX
  5
3E97
  8
SECONDCUT
 62
     5
 10
147.6133866687689
 20
255.4879359161476
 30
0.0
  0
SEQEND
  5
414A
  8
SECONDCUT
 62
     5
  0
CIRCLE
  5
34D8
  8
0
 62
     1
 10
163.6577609916405
 20
251.4879359161476
 30
0.0
 40
1.0
  0
CIRCLE
  5
34D9
  8
0
 62
     1
 10
163.6577609916405
 20
259.4879359161476
 30
0.0
 40
1.0
  0
CIRCLE
  5
34DA
  8
0
 62
     1
 10
163.6577609916405
 20
255.4879359161476
 30
0.0
 40
1.0
  0
POLYLINE
  5
34DB
  8
SECONDCUT
 62
     5
 66
     1
 10
0.0
 20
0.0
 30
0.0
 70
     1
  0
VERTEX
  5
3E98
  8
SECONDCUT
 62
     5
 10
160.6577609916405
 20
251.4879359161476
 30
0.0
  0
VERTEX
  5
3E99
  8
SECONDCUT
 62
     5
 10
160.7154051504308
 20
250.8949105988344
 30
0.0
  0
VERTEX
  5
3E9A
  8
SECONDCUT
 62
     5
 10
160.8861223941068
 20
250.3246749118933
 30
0.0
  0
VERTEX
  5
3E9B
  8
SECONDCUT
 62
     5
 10
161.163352154733
 20
249.7991426929813
 30
0.0
  0
VERTEX
  5
3E9C
  8
SECONDCUT
 62
     5
 10
161.5364406480809
 20
249.3385098505494
 30
0.0
  0
VERTEX
  5
3E9D
  8
SECONDCUT
 62
     5
 10
161.9910502925817
 20
248.9604782464062
 30
0.0
  0
VERTEX
  5
3E9E
  8
SECONDCUT
 62
     5
 10
162.5097106945454
 20
248.6795754230969
 30
0.0
  0
VERTEX
  5
3E9F
  8
SECONDCUT
 62
     5
 10
163.0724900255923
 20
248.5065963185888
 30
0.0
  0
VERTEX
  5
3EA0
  8
SECONDCUT
 62
     5
 10
163.6577609916405
 20
248.4481884228601
 30
0.0
  0
VERTEX
  5
3EA1
  8
SECONDCUT
 62
     5
 10
164.2430319576889
 20
248.5065963185888
 30
0.0
  0
VERTEX
  5
3EA2
  8
SECONDCUT
 62
     5
 10
164.8058112887358
 20
248.6795754230969
 30
0.0
  0
VERTEX
  5
3EA3
  8
SECONDCUT
 62
     5
 10
165.3244716906993
 20
248.9604782464062
 30
0.0
  0
VERTEX
  5
3EA4
  8
SECONDCUT
 62
     5
 10
165.7790813352002
 20
249.3385098505493
 30
0.0
  0
VERTEX
  5
3EA5
  8
SECONDCUT
 62
     5
 10
166.1521698285481
 20
249.7991426929813
 30
0.0
  0
VERTEX
  5
3EA6
  8
SECONDCUT
 62
     5
 10
166.4293995891744
 20
250.3246749118933
 30
0.0
  0
VERTEX
  5
3EA7
  8
SECONDCUT
 62
     5
 10
166.6001168328503
 20
250.8949105988344
 30
0.0
  0
VERTEX
  5
3EA8
  8
SECONDCUT
 62
     5
 10
166.6577609916405
 20
251.4879359161476
 30
0.0
  0
VERTEX
  5
3EA9
  8
SECONDCUT
 62
     5
 10
166.6577609916405
 20
255.4879359161476
 30
0.0
  0
VERTEX
  5
3EAA
  8
SECONDCUT
 62
     5
 10
166.6577609916405
 20
259.4879359161476
 30
0.0
  0
VERTEX
  5
3EAB
  8
SECONDCUT
 62
     5
 10
166.6001168328503
 20
260.0809612334609
 30
0.0
  0
VERTEX
  5
3EAC
  8
SECONDCUT
 62
     5
 10
166.4293995891744
 20
260.6511969204021
 30
0.0
  0
VERTEX
  5
3EAD
  8
SECONDCUT
 62
     5
 10
166.1521698285481
 20
261.176729139314
 30
0.0
  0
VERTEX
  5
3EAE
  8
SECONDCUT
 62
     5
 10
165.7790813352002
 20
261.637361981746
 30
0.0
  0
VERTEX
  5
3EAF
  8
SECONDCUT
 62
     5
 10
165.3244716906993
 20
262.0153935858889
 30
0.0
  0
VERTEX
  5
3EB0
  8
SECONDCUT
 62
     5
 10
164.8058112887358
 20
262.2962964091985
 30
0.0
  0
VERTEX
  5
3EB1
  8
SECONDCUT
 62
     5
 10
164.2430319576889
 20
262.4692755137066
 30
0.0
  0
VERTEX
  5
3EB2
  8
SECONDCUT
 62
     5
 10
163.6577609916405
 20
262.527683409435
 30
0.0
  0
VERTEX
  5
3EB3
  8
SECONDCUT
 62
     5
 10
163.0724900255923
 20
262.4692755137066
 30
0.0
  0
VERTEX
  5
3EB4
  8
SECONDCUT
 62
     5
 10
162.5097106945454
 20
262.2962964091985
 30
0.0
  0
VERTEX
  5
3EB5
  8
SECONDCUT
 62
     5
 10
161.9910502925817
 20
262.0153935858889
 30
0.0
  0
VERTEX
  5
3EB6
  8
SECONDCUT
 62
     5
 10
161.5364406480809
 20
261.637361981746
 30
0.0
  0
VERTEX
  5
3EB7
  8
SECONDCUT
 62
     5
 10
161.163352154733
 20
261.176729139314
 30
0.0
  0
VERTEX
  5
3EB8
  8
SECONDCUT
 62
     5
 10
160.8861223941068
 20
260.6511969204021
 30
0.0
  0
VERTEX
  5
3EB9
  8
SECONDCUT
 62
     5
 10
160.7154051504308
 20
260.0809612334609
 30
0.0
  0
VERTEX
  5
3EBA
  8
SECONDCUT
 62
     5
 10
160.6577609916405
 20
259.4879359161476
 30
0.0
  0
VERTEX
  5
3EBB
  8
SECONDCUT
 62
     5
 10
160.6577609916405
 20
255.4879359161476
 30
0.0
  0
SEQEND
  5
414B
  8
SECONDCUT
 62
     5
  0
LINE
  5
3B20
  8
MARKERS
 10
-0.5529860879812531
 20
0.4482903553976598
 30
0.0
 11
595.4134169800365
 21
0.4482903553976598
 31
0.0
  0
LINE
  5
3B22
  8
MARKERS
 10
595.4134169800365
 20
420.4482903553977
 30
0.0
 11
-0.5529860879812531
 21
420.4482903553977
 31
0.0
  0
LINE
  5
3B23
  8
MARKERS
 10
-0.5529860879812531
 20
0.4482903553976598
 30
0.0
 11
-0.5529860879812531
 21
420.4482903553977
 31
0.0
  0
POLYLINE
  5
3B24
  8
SECONDCUT
 66
     1
 10
0.0
 20
0.0
 30
0.0
 70
     1
  0
VERTEX
  5
3EBC
  8
SECONDCUT
 10
285.8195324258004
 20
187.8825911811658
 30
0.0
  0
VERTEX
  5
3EBD
  8
SECONDCUT
 10
285.8195324258004
 20
195.7654088876657
 30
0.0
  0
VERTEX
  5
3EBE
  8
SECONDCUT
 10
288.8195328199382
 20
195.7654088876657
 30
0.0
  0
VERTEX
  5
3EBF
  8
SECONDCUT
 10
288.8195328199382
 20
203.4083377581658
 30
0.0
  0
VERTEX
  5
3EC0
  8
SECONDCUT
 10
285.8195324258004
 20
203.4083377581658
 30
0.0
  0
VERTEX
  5
3EC1
  8
SECONDCUT
 10
285.8195324258004
 20
211.2908026869657
 30
0.0
  0
VERTEX
  5
3EC2
  8
SECONDCUT
 10
288.8195328199382
 20
211.2908026869657
 30
0.0
  0
VERTEX
  5
3EC3
  8
SECONDCUT
 10
288.8195328199382
 20
218.9337315574658
 30
0.0
  0
VERTEX
  5
3EC4
  8
SECONDCUT
 10
285.8195324258004
 20
218.9337315574658
 30
0.0
  0
VERTEX
  5
3EC5
  8
SECONDCUT
 10
285.8195324258004
 20
226.8165492639658
 30
0.0
  0
VERTEX
  5
3EC6
  8
SECONDCUT
 10
288.8195328199382
 20
226.8165492639658
 30
0.0
  0
VERTEX
  5
3EC7
  8
SECONDCUT
 10
288.8195328199382
 20
234.4591253567658
 30
0.0
  0
VERTEX
  5
3EC8
  8
SECONDCUT
 10
285.8195324258004
 20
234.4591253567658
 30
0.0
  0
VERTEX
  5
3EC9
  8
SECONDCUT
 10
285.8195324258004
 20
239.2819492934657
 30
0.0
  0
VERTEX
  5
3ECA
  8
SECONDCUT
 10
294.1328659262722
 20
239.2819492934657
 30
0.0
  0
VERTEX
  5
3ECB
  8
SECONDCUT
 10
294.1328659262722
 20
242.2819708542657
 30
0.0
  0
VERTEX
  5
3ECC
  8
SECONDCUT
 10
302.6261971926152
 20
242.2819708542657
 30
0.0
  0
VERTEX
  5
3ECD
  8
SECONDCUT
 10
302.6261971926152
 20
239.2819492934657
 30
0.0
  0
VERTEX
  5
3ECE
  8
SECONDCUT
 10
310.9395271653103
 20
239.2819492934657
 30
0.0
  0
VERTEX
  5
3ECF
  8
SECONDCUT
 10
310.9395271653103
 20
119.2216248957234
 30
0.0
  0
VERTEX
  5
3ED0
  8
SECONDCUT
 10
308.3131748129168
 20
118.7594995778989
 30
0.0
  0
VERTEX
  5
3ED1
  8
SECONDCUT
 10
305.8904933372752
 20
118.0351120614658
 30
0.0
  0
VERTEX
  5
3ED2
  8
SECONDCUT
 10
303.7654796979791
 20
117.0765676606357
 30
0.0
  0
VERTEX
  5
3ED3
  8
SECONDCUT
 10
302.0205817212063
 20
115.921056678888
 30
0.0
  0
VERTEX
  5
3ED4
  8
SECONDCUT
 10
300.7234992289378
 20
114.6134114724996
 30
0.0
  0
VERTEX
  5
3ED5
  8
SECONDCUT
 10
299.9245573719789
 20
113.204367012148
 30
0.0
  0
VERTEX
  5
3ED6
  8
SECONDCUT
 10
299.6547540781226
 20
111.748592430584
 30
0.0
  0
VERTEX
  5
3ED7
  8
SECONDCUT
 10
299.9245573719789
 20
110.3025699298208
 30
0.0
  0
VERTEX
  5
3ED8
  8
SECONDCUT
 10
300.7234992289378
 20
108.922403343541
 30
0.0
  0
VERTEX
  5
3ED9
  8
SECONDCUT
 10
302.0205817212062
 20
107.6616413797144
 30
0.0
  0
VERTEX
  5
3EDA
  8
SECONDCUT
 10
303.7654796979791
 20
106.5691999988428
 30
0.0
  0
VERTEX
  5
3EDB
  8
SECONDCUT
 10
305.8904933372751
 20
105.6874645369136
 30
0.0
  0
VERTEX
  5
3EDC
  8
SECONDCUT
 10
308.3131748129168
 20
105.0506452082786
 30
0.0
  0
VERTEX
  5
3EDD
  8
SECONDCUT
 10
310.9395271653103
 20
104.6834497928518
 30
0.0
  0
VERTEX
  5
3EDE
  8
SECONDCUT
 10
310.9395271653103
 20
17.16206743145568
 30
0.0
  0
VERTEX
  5
3EDF
  8
SECONDCUT
 10
302.6261971926152
 20
17.16206743145568
 30
0.0
  0
VERTEX
  5
3EE0
  8
SECONDCUT
 10
302.6261971926152
 20
20.16205371448569
 30
0.0
  0
VERTEX
  5
3EE1
  8
SECONDCUT
 10
294.1328659262722
 20
20.16205371448569
 30
0.0
  0
VERTEX
  5
3EE2
  8
SECONDCUT
 10
294.1328659262722
 20
17.16206743145568
 30
0.0
  0
VERTEX
  5
3EE3
  8
SECONDCUT
 10
285.8195324258004
 20
17.16206743145568
 30
0.0
  0
VERTEX
  5
3EE4
  8
SECONDCUT
 10
285.8195324258004
 20
24.98480709564575
 30
0.0
  0
VERTEX
  5
3EE5
  8
SECONDCUT
 10
288.8195328199382
 20
24.98480709564575
 30
0.0
  0
VERTEX
  5
3EE6
  8
SECONDCUT
 10
288.8195328199382
 20
32.6275595772957
 30
0.0
  0
VERTEX
  5
3EE7
  8
SECONDCUT
 10
285.8195324258004
 20
32.6275595772957
 30
0.0
  0
VERTEX
  5
3EE8
  8
SECONDCUT
 10
285.8195324258004
 20
40.51034200602572
 30
0.0
  0
VERTEX
  5
3EE9
  8
SECONDCUT
 10
288.8195328199382
 20
40.51034200602572
 30
0.0
  0
VERTEX
  5
3EEA
  8
SECONDCUT
 10
288.8195328199382
 20
48.15309448767567
 30
0.0
  0
VERTEX
  5
3EEB
  8
SECONDCUT
 10
285.8195324258004
 20
48.15309448767567
 30
0.0
  0
VERTEX
  5
3EEC
  8
SECONDCUT
 10
285.8195324258004
 20
56.03584163863576
 30
0.0
  0
VERTEX
  5
3EED
  8
SECONDCUT
 10
288.8195328199382
 20
56.03584163863576
 30
0.0
  0
VERTEX
  5
3EEE
  8
SECONDCUT
 10
288.8195328199382
 20
63.67859412028571
 30
0.0
  0
VERTEX
  5
3EEF
  8
SECONDCUT
 10
285.8195324258004
 20
63.67859412028571
 30
0.0
  0
VERTEX
  5
3EF0
  8
SECONDCUT
 10
285.8195324258004
 20
71.5613412712458
 30
0.0
  0
VERTEX
  5
3EF1
  8
SECONDCUT
 10
288.8195328199382
 20
71.5613412712458
 30
0.0
  0
VERTEX
  5
3EF2
  8
SECONDCUT
 10
288.8195328199382
 20
79.20409375289574
 30
0.0
  0
VERTEX
  5
3EF3
  8
SECONDCUT
 10
285.8195324258004
 20
79.20409375289574
 30
0.0
  0
VERTEX
  5
3EF4
  8
SECONDCUT
 10
285.8195324258004
 20
87.08687618162577
 30
0.0
  0
VERTEX
  5
3EF5
  8
SECONDCUT
 10
288.8195328199382
 20
87.08687618162577
 30
0.0
  0
VERTEX
  5
3EF6
  8
SECONDCUT
 10
288.8195328199382
 20
94.72962866327572
 30
0.0
  0
VERTEX
  5
3EF7
  8
SECONDCUT
 10
285.8195324258004
 20
94.72962866327572
 30
0.0
  0
VERTEX
  5
3EF8
  8
SECONDCUT
 10
285.8195324258004
 20
102.6123758142358
 30
0.0
  0
VERTEX
  5
3EF9
  8
SECONDCUT
 10
288.8195328199382
 20
102.6123758142358
 30
0.0
  0
VERTEX
  5
3EFA
  8
SECONDCUT
 10
288.8195328199382
 20
110.2551282958858
 30
0.0
  0
VERTEX
  5
3EFB
  8
SECONDCUT
 10
285.8195324258004
 20
110.2551282958858
 30
0.0
  0
VERTEX
  5
3EFC
  8
SECONDCUT
 10
285.8195324258004
 20
118.1379107246158
 30
0.0
  0
VERTEX
  5
3EFD
  8
SECONDCUT
 10
288.8195328199382
 20
118.1379107246158
 30
0.0
  0
VERTEX
  5
3EFE
  8
SECONDCUT
 10
288.8195328199382
 20
125.7806632062657
 30
0.0
  0
VERTEX
  5
3EFF
  8
SECONDCUT
 10
285.8195324258004
 20
125.7806632062657
 30
0.0
  0
VERTEX
  5
3F00
  8
SECONDCUT
 10
285.8195324258004
 20
133.6634809127657
 30
0.0
  0
VERTEX
  5
3F01
  8
SECONDCUT
 10
288.8195328199382
 20
133.6634809127657
 30
0.0
  0
VERTEX
  5
3F02
  8
SECONDCUT
 10
288.8195328199382
 20
141.3060570055657
 30
0.0
  0
VERTEX
  5
3F03
  8
SECONDCUT
 10
285.8195324258004
 20
141.3060570055657
 30
0.0
  0
VERTEX
  5
3F04
  8
SECONDCUT
 10
285.8195324258004
 20
149.1888747120659
 30
0.0
  0
VERTEX
  5
3F05
  8
SECONDCUT
 10
288.8195328199382
 20
149.1888747120659
 30
0.0
  0
VERTEX
  5
3F06
  8
SECONDCUT
 10
288.8195328199382
 20
156.8318035825658
 30
0.0
  0
VERTEX
  5
3F07
  8
SECONDCUT
 10
285.8195324258004
 20
156.8318035825658
 30
0.0
  0
VERTEX
  5
3F08
  8
SECONDCUT
 10
285.8195324258004
 20
164.7142685113657
 30
0.0
  0
VERTEX
  5
3F09
  8
SECONDCUT
 10
288.8195328199382
 20
164.7142685113657
 30
0.0
  0
VERTEX
  5
3F0A
  8
SECONDCUT
 10
288.8195328199382
 20
172.3571973818658
 30
0.0
  0
VERTEX
  5
3F0B
  8
SECONDCUT
 10
285.8195324258004
 20
172.3571973818658
 30
0.0
  0
VERTEX
  5
3F0C
  8
SECONDCUT
 10
285.8195324258004
 20
180.2400150883657
 30
0.0
  0
VERTEX
  5
3F0D
  8
SECONDCUT
 10
288.8195328199382
 20
180.2400150883657
 30
0.0
  0
VERTEX
  5
3F0E
  8
SECONDCUT
 10
288.8195328199382
 20
187.8825911811658
 30
0.0
  0
SEQEND
  5
414C
  8
SECONDCUT
  0
POLYLINE
  5
3B25
  8
FIRSTCUT
 66
     1
 10
0.0
 20
0.0
 30
0.0
 70
     1
  0
VERTEX
  5
3F0F
  8
FIRSTCUT
 10
302.1103761173688
 20
145.2615626644013
 30
0.0
 42
0.9999999999999999
  0
VERTEX
  5
3F10
  8
FIRSTCUT
 10
294.6103761173688
 20
145.2615626644013
 30
0.0
 42
0.9999999999999999
  0
SEQEND
  5
414D
  8
FIRSTCUT
  0
CIRCLE
  5
3B29
  8
FIRSTCUT
 62
     1
 10
389.6857052514864
 20
287.7034395806821
 30
0.0
 40
1.499999999999999
  0
CIRCLE
  5
3B2A
  8
FIRSTCUT
 62
     1
 10
324.954912824101
 20
292.7171525700941
 30
0.0
 40
1.499999999999999
  0
POLYLINE
  5
3B2B
  8
FIRSTCUT
 62
     1
 66
     1
 10
0.0
 20
0.0
 30
0.0
  0
VERTEX
  5
3F11
  8
FIRSTCUT
 62
     1
 10
298.5815939906716
 20
291.1219904412471
 30
0.0
  0
VERTEX
  5
3F12
  8
FIRSTCUT
 62
     1
 10
297.5960927161921
 20
291.2655661624481
 30
0.0
  0
VERTEX
  5
3F13
  8
FIRSTCUT
 62
     1
 10
297.3821623600653
 20
289.7810704433654
 30
0.0
  0
VERTEX
  5
3F14
  8
FIRSTCUT
 62
     1
 10
298.3624596133961
 20
289.6382466800561
 30
0.0
  0
VERTEX
  5
3F15
  8
FIRSTCUT
 62
     1
 10
301.339923892387
 20
289.201232708387
 30
0.0
  0
VERTEX
  5
3F16
  8
FIRSTCUT
 62
     1
 10
301.5538773088666
 20
290.6858884468105
 30
0.0
  0
VERTEX
  5
3F17
  8
FIRSTCUT
 62
     1
 10
298.0888433534318
 20
291.1937783018476
 30
0.0
  0
SEQEND
  5
414E
  8
FIRSTCUT
 62
     1
  0
POLYLINE
  5
3B2C
  8
SECONDCUT
 62
     5
 66
     1
 10
0.0
 20
0.0
 30
0.0
  0
VERTEX
  5
3F18
  8
SECONDCUT
 62
     5
 10
415.4209468701085
 20
289.3751773003992
 30
0.0
  0
VERTEX
  5
3F19
  8
SECONDCUT
 62
     5
 10
415.3392865282841
 20
290.6225070838057
 30
0.0
  0
VERTEX
  5
3F1A
  8
SECONDCUT
 62
     5
 10
415.4209468701085
 20
289.3751773003992
 30
0.0
  0
VERTEX
  5
3F1B
  8
SECONDCUT
 62
     5
 10
412.9262873032945
 20
289.211856616752
 30
0.0
  0
VERTEX
  5
3F1C
  8
SECONDCUT
 62
     5
 10
412.844626961471
 20
290.4591864001587
 30
0.0
  0
VERTEX
  5
3F1D
  8
SECONDCUT
 62
     5
 10
410.3499673946579
 20
290.2958657165119
 30
0.0
  0
VERTEX
  5
3F1E
  8
SECONDCUT
 62
     5
 10
410.1704357556098
 20
293.2905343556153
 30
0.0
  0
VERTEX
  5
3F1F
  8
SECONDCUT
 62
     5
 10
412.6486421410949
 20
293.4527778803346
 30
0.0
  0
VERTEX
  5
3F20
  8
SECONDCUT
 62
     5
 10
412.5669817992714
 20
294.7001076637414
 30
0.0
  0
VERTEX
  5
3F21
  8
SECONDCUT
 62
     5
 10
415.0616413660848
 20
294.8634283473883
 30
0.0
  0
VERTEX
  5
3F22
  8
SECONDCUT
 62
     5
 10
415.1433017079077
 20
293.6160985639816
 30
0.0
  0
VERTEX
  5
3F23
  8
SECONDCUT
 62
     5
 10
427.1168372804075
 20
294.402624925713
 30
0.0
  0
VERTEX
  5
3F24
  8
SECONDCUT
 62
     5
 10
426.7888202770879
 20
299.3659691398182
 30
0.0
  0
VERTEX
  5
3F25
  8
SECONDCUT
 62
     5
 10
425.814751470008
 20
299.3653375053943
 30
0.0
  0
VERTEX
  5
3F26
  8
SECONDCUT
 62
     5
 10
302.4760340839272
 20
299.2853585766692
 30
0.0
  0
VERTEX
  5
3F27
  8
SECONDCUT
 62
     5
 10
300.8443804752154
 20
299.2787651929444
 30
0.0
  0
VERTEX
  5
3F28
  8
SECONDCUT
 62
     5
 10
296.8578803271482
 20
299.2544997699517
 30
0.0
 42
0.1125176718182217
  0
VERTEX
  5
3F29
  8
SECONDCUT
 62
     5
 10
294.3918584255209
 20
292.5619946067709
 30
0.0
  0
VERTEX
  5
3F2A
  8
SECONDCUT
 62
     5
 10
294.1658962279249
 20
290.6373936975443
 30
0.0
 42
0.2582507175520683
  0
VERTEX
  5
3F2B
  8
SECONDCUT
 62
     5
 10
295.8149439316646
 20
285.988730649296
 30
0.0
  0
VERTEX
  5
3F2C
  8
SECONDCUT
 62
     5
 10
296.2348166009803
 20
288.9220249318398
 30
0.0
  0
VERTEX
  5
3F2D
  8
SECONDCUT
 62
     5
 10
298.2151250399463
 20
288.6387924342433
 30
0.0
  0
VERTEX
  5
3F2E
  8
SECONDCUT
 62
     5
 10
302.1742456812156
 20
288.0716237015639
 30
0.0
  0
VERTEX
  5
3F2F
  8
SECONDCUT
 62
     5
 10
301.7493157475399
 20
285.1029986015656
 30
0.0
  0
VERTEX
  5
3F30
  8
SECONDCUT
 62
     5
 10
302.3365745013099
 20
285.0189381982193
 30
0.0
  0
VERTEX
  5
3F31
  8
SECONDCUT
 62
     5
 10
305.7680414813592
 20
289.1862511287457
 30
0.0
 42
-0.2704700093603021
  0
VERTEX
  5
3F32
  8
SECONDCUT
 62
     5
 10
307.6595378055013
 20
289.8845029329627
 30
0.0
  0
VERTEX
  5
3F33
  8
SECONDCUT
 62
     5
 10
425.8344366774534
 20
269.0079886820512
 30
0.0
  0
VERTEX
  5
3F34
  8
SECONDCUT
 62
     5
 10
428.817578374567
 20
268.481553270151
 30
0.0
  0
VERTEX
  5
3F35
  8
SECONDCUT
 62
     5
 10
428.0975917304937
 20
279.4320804446073
 30
0.0
  0
VERTEX
  5
3F36
  8
SECONDCUT
 62
     5
 10
416.1232258097898
 20
278.6481411631021
 30
0.0
  0
VERTEX
  5
3F37
  8
SECONDCUT
 62
     5
 10
416.2048861516136
 20
277.4008113796956
 30
0.0
  0
VERTEX
  5
3F38
  8
SECONDCUT
 62
     5
 10
413.7102265848005
 20
277.2374906960481
 30
0.0
  0
VERTEX
  5
3F39
  8
SECONDCUT
 62
     5
 10
413.6285662429766
 20
278.4848204794546
 30
0.0
  0
VERTEX
  5
3F3A
  8
SECONDCUT
 62
     5
 10
411.1339066761634
 20
278.3214997958077
 30
0.0
  0
VERTEX
  5
3F3B
  8
SECONDCUT
 62
     5
 10
410.9543750371157
 20
281.3161684349111
 30
0.0
  0
VERTEX
  5
3F3C
  8
SECONDCUT
 62
     5
 10
413.4325814226007
 20
281.4784119596308
 30
0.0
  0
VERTEX
  5
3F3D
  8
SECONDCUT
 62
     5
 10
413.3509210807771
 20
282.7257417430375
 30
0.0
  0
VERTEX
  5
3F3E
  8
SECONDCUT
 62
     5
 10
415.8455806475903
 20
282.8890624266845
 30
0.0
  0
VERTEX
  5
3F3F
  8
SECONDCUT
 62
     5
 10
415.927240989414
 20
281.6417326432778
 30
0.0
  0
VERTEX
  5
3F40
  8
SECONDCUT
 62
     5
 10
427.9007765619132
 20
282.4282590050091
 30
0.0
  0
VERTEX
  5
3F41
  8
SECONDCUT
 62
     5
 10
427.313652448988
 20
291.4064463653112
 30
0.0
  0
VERTEX
  5
3F42
  8
SECONDCUT
 62
     5
 10
415.3392865282841
 20
290.6225070838057
 30
0.0
  0
SEQEND
  5
414F
  8
SECONDCUT
 62
     5
  0
CIRCLE
  5
3B2D
  8
FIRSTCUT
 62
     1
 10
323.2986384213854
 20
263.1567092755367
 30
0.0
 40
1.499999999999999
  0
CIRCLE
  5
3B2E
  8
FIRSTCUT
 62
     1
 10
388.020888592058
 20
258.0339034952705
 30
0.0
 40
1.499999999999999
  0
POLYLINE
  5
3B2F
  8
FIRSTCUT
 62
     1
 66
     1
 10
0.0
 20
0.0
 30
0.0
  0
VERTEX
  5
3F43
  8
FIRSTCUT
 62
     1
 10
414.3968585171563
 20
259.5846126934581
 30
0.0
  0
VERTEX
  5
3F44
  8
FIRSTCUT
 62
     1
 10
415.3821164035088
 20
259.4393761722276
 30
0.0
  0
VERTEX
  5
3F45
  8
FIRSTCUT
 62
     1
 10
415.5985484852824
 20
260.9235092158685
 30
0.0
  0
VERTEX
  5
3F46
  8
FIRSTCUT
 62
     1
 10
414.6184933453068
 20
261.0679850092062
 30
0.0
  0
VERTEX
  5
3F47
  8
FIRSTCUT
 62
     1
 10
411.6417698565098
 20
261.510016699639
 30
0.0
  0
VERTEX
  5
3F48
  8
FIRSTCUT
 62
     1
 10
411.4253144447131
 20
260.0257236757516
 30
0.0
  0
VERTEX
  5
3F49
  8
FIRSTCUT
 62
     1
 10
414.8894874603325
 20
259.5119944328429
 30
0.0
  0
SEQEND
  5
4150
  8
FIRSTCUT
 62
     1
  0
POLYLINE
  5
3B30
  8
SECONDCUT
 62
     5
 66
     1
 10
0.0
 20
0.0
 30
0.0
  0
VERTEX
  5
3F4A
  8
SECONDCUT
 62
     5
 10
297.56061574118
 20
261.528349153936
 30
0.0
  0
VERTEX
  5
3F4B
  8
SECONDCUT
 62
     5
 10
297.6401736666343
 20
260.2808835085183
 30
0.0
  0
VERTEX
  5
3F4C
  8
SECONDCUT
 62
     5
 10
297.56061574118
 20
261.528349153936
 30
0.0
  0
VERTEX
  5
3F4D
  8
SECONDCUT
 62
     5
 10
300.0555470320163
 20
261.6874650048425
 30
0.0
  0
VERTEX
  5
3F4E
  8
SECONDCUT
 62
     5
 10
300.1351049574696
 20
260.4399993594247
 30
0.0
  0
VERTEX
  5
3F4F
  8
SECONDCUT
 62
     5
 10
302.6300362483049
 20
260.5991152103312
 30
0.0
  0
VERTEX
  5
3F50
  8
SECONDCUT
 62
     5
 10
302.8045202959461
 20
257.6041482347925
 30
0.0
  0
VERTEX
  5
3F51
  8
SECONDCUT
 62
     5
 10
300.3260439785571
 20
257.4460818104221
 30
0.0
  0
VERTEX
  5
3F52
  8
SECONDCUT
 62
     5
 10
300.4056019040103
 20
256.1986161650043
 30
0.0
  0
VERTEX
  5
3F53
  8
SECONDCUT
 62
     5
 10
297.9106706131746
 20
256.0395003140978
 30
0.0
  0
VERTEX
  5
3F54
  8
SECONDCUT
 62
     5
 10
297.8311126877219
 20
257.2869659595159
 30
0.0
  0
VERTEX
  5
3F55
  8
SECONDCUT
 62
     5
 10
285.8562684783658
 20
256.520621399111
 30
0.0
  0
VERTEX
  5
3F56
  8
SECONDCUT
 62
     5
 10
286.1759195934368
 20
251.5567313815148
 30
0.0
  0
VERTEX
  5
3F57
  8
SECONDCUT
 62
     5
 10
287.1499880815746
 20
251.555721279829
 30
0.0
  0
VERTEX
  5
3F58
  8
SECONDCUT
 62
     5
 10
410.4886650824868
 20
251.4278200007639
 30
0.0
  0
VERTEX
  5
3F59
  8
SECONDCUT
 62
     5
 10
412.1203274864264
 20
251.4316633197231
 30
0.0
  0
VERTEX
  5
3F5A
  8
SECONDCUT
 62
     5
 10
416.106862870175
 20
251.4492096986493
 30
0.0
 42
0.1125176718182217
  0
VERTEX
  5
3F5B
  8
SECONDCUT
 62
     5
 10
418.5841610897611
 20
258.1375490224085
 30
0.0
  0
VERTEX
  5
3F5C
  8
SECONDCUT
 62
     5
 10
418.8133667671143
 20
260.0617663521318
 30
0.0
 42
0.2582507175520683
  0
VERTEX
  5
3F5D
  8
SECONDCUT
 62
     5
 10
417.1721564515125
 20
264.7132021697392
 30
0.0
  0
VERTEX
  5
3F5E
  8
SECONDCUT
 62
     5
 10
416.7473404849965
 20
261.7806197240041
 30
0.0
  0
VERTEX
  5
3F5F
  8
SECONDCUT
 62
     5
 10
414.7675122303526
 20
262.0671895117514
 30
0.0
  0
VERTEX
  5
3F60
  8
SECONDCUT
 62
     5
 10
410.8093531417109
 20
262.6410303019147
 30
0.0
  0
VERTEX
  5
3F61
  8
SECONDCUT
 62
     5
 10
411.239285913402
 20
265.6089349912031
 30
0.0
  0
VERTEX
  5
3F62
  8
SECONDCUT
 62
     5
 10
410.6521696725737
 20
265.6939850649587
 30
0.0
  0
VERTEX
  5
3F63
  8
SECONDCUT
 62
     5
 10
407.213683807606
 20
261.5324615876109
 30
0.0
 42
-0.2704700093603021
  0
VERTEX
  5
3F64
  8
SECONDCUT
 62
     5
 10
405.3210133080528
 20
260.8373987800489
 30
0.0
  0
VERTEX
  5
3F65
  8
SECONDCUT
 62
     5
 10
287.1814684133459
 20
281.9130601631741
 30
0.0
  0
VERTEX
  5
3F66
  8
SECONDCUT
 62
     5
 10
284.1992182290247
 20
282.4445227357792
 30
0.0
  0
VERTEX
  5
3F67
  8
SECONDCUT
 62
     5
 10
284.9007473862725
 20
271.4927976201782
 30
0.0
  0
VERTEX
  5
3F68
  8
SECONDCUT
 62
     5
 10
296.8764175822831
 20
272.2565537045289
 30
0.0
  0
VERTEX
  5
3F69
  8
SECONDCUT
 62
     5
 10
296.7968596568297
 20
273.5040193499464
 30
0.0
  0
VERTEX
  5
3F6A
  8
SECONDCUT
 62
     5
 10
299.2917909476652
 20
273.6631352008533
 30
0.0
  0
VERTEX
  5
3F6B
  8
SECONDCUT
 62
     5
 10
299.371348873119
 20
272.4156695554356
 30
0.0
  0
VERTEX
  5
3F6C
  8
SECONDCUT
 62
     5
 10
301.8662801639542
 20
272.574785406342
 30
0.0
  0
VERTEX
  5
3F6D
  8
SECONDCUT
 62
     5
 10
302.0407642115949
 20
269.5798184308032
 30
0.0
  0
VERTEX
  5
3F6E
  8
SECONDCUT
 62
     5
 10
299.562287894206
 20
269.4217520064328
 30
0.0
  0
VERTEX
  5
3F6F
  8
SECONDCUT
 62
     5
 10
299.6418458196594
 20
268.174286361015
 30
0.0
  0
VERTEX
  5
3F70
  8
SECONDCUT
 62
     5
 10
297.1469145288237
 20
268.0151705101085
 30
0.0
  0
VERTEX
  5
3F71
  8
SECONDCUT
 62
     5
 10
297.0673566033704
 20
269.2626361555263
 30
0.0
  0
VERTEX
  5
3F72
  8
SECONDCUT
 62
     5
 10
285.0925123940146
 20
268.4962915951218
 30
0.0
  0
VERTEX
  5
3F73
  8
SECONDCUT
 62
     5
 10
285.6645034706236
 20
259.5171274241675
 30
0.0
  0
VERTEX
  5
3F74
  8
SECONDCUT
 62
     5
 10
297.6401736666343
 20
260.2808835085183
 30
0.0
  0
SEQEND
  5
4151
  8
SECONDCUT
 62
     5
  0
CIRCLE
  5
3B32
  8
FIRSTCUT
 62
     1
 10
380.4892952584729
 20
342.0159620491742
 30
0.0
 40
1.499999999999999
  0
CIRCLE
  5
3B33
  8
FIRSTCUT
 62
     1
 10
315.7585028310875
 20
347.0296750385862
 30
0.0
 40
1.499999999999999
  0
POLYLINE
  5
3B34
  8
FIRSTCUT
 62
     1
 66
     1
 10
0.0
 20
0.0
 30
0.0
  0
VERTEX
  5
3F75
  8
FIRSTCUT
 62
     1
 10
289.3851839976581
 20
345.4345129097392
 30
0.0
  0
VERTEX
  5
3F76
  8
FIRSTCUT
 62
     1
 10
288.3996827231786
 20
345.5780886309402
 30
0.0
  0
VERTEX
  5
3F77
  8
FIRSTCUT
 62
     1
 10
288.1857523670518
 20
344.0935929118575
 30
0.0
  0
VERTEX
  5
3F78
  8
FIRSTCUT
 62
     1
 10
289.1660496203826
 20
343.9507691485482
 30
0.0
  0
VERTEX
  5
3F79
  8
FIRSTCUT
 62
     1
 10
292.1435138993735
 20
343.5137551768791
 30
0.0
  0
VERTEX
  5
3F7A
  8
FIRSTCUT
 62
     1
 10
292.3574673158531
 20
344.9984109153026
 30
0.0
  0
VERTEX
  5
3F7B
  8
FIRSTCUT
 62
     1
 10
288.8924333604183
 20
345.5063007703397
 30
0.0
  0
SEQEND
  5
4152
  8
FIRSTCUT
 62
     1
  0
POLYLINE
  5
3B35
  8
SECONDCUT
 62
     5
 66
     1
 10
0.0
 20
0.0
 30
0.0
  0
VERTEX
  5
3F7C
  8
SECONDCUT
 62
     5
 10
406.224536877095
 20
343.6876997688913
 30
0.0
  0
VERTEX
  5
3F7D
  8
SECONDCUT
 62
     5
 10
406.1428765352706
 20
344.9350295522977
 30
0.0
  0
VERTEX
  5
3F7E
  8
SECONDCUT
 62
     5
 10
406.224536877095
 20
343.6876997688913
 30
0.0
  0
VERTEX
  5
3F7F
  8
SECONDCUT
 62
     5
 10
403.729877310281
 20
343.524379085244
 30
0.0
  0
VERTEX
  5
3F80
  8
SECONDCUT
 62
     5
 10
403.6482169684575
 20
344.7717088686508
 30
0.0
  0
VERTEX
  5
3F81
  8
SECONDCUT
 62
     5
 10
401.1535574016444
 20
344.608388185004
 30
0.0
  0
VERTEX
  5
3F82
  8
SECONDCUT
 62
     5
 10
400.9740257625963
 20
347.6030568241073
 30
0.0
  0
VERTEX
  5
3F83
  8
SECONDCUT
 62
     5
 10
403.4522321480814
 20
347.7653003488267
 30
0.0
  0
VERTEX
  5
3F84
  8
SECONDCUT
 62
     5
 10
403.3705718062579
 20
349.0126301322335
 30
0.0
  0
VERTEX
  5
3F85
  8
SECONDCUT
 62
     5
 10
405.8652313730713
 20
349.1759508158804
 30
0.0
  0
VERTEX
  5
3F86
  8
SECONDCUT
 62
     5
 10
405.9468917148942
 20
347.9286210324736
 30
0.0
  0
VERTEX
  5
3F87
  8
SECONDCUT
 62
     5
 10
417.920427287394
 20
348.715147394205
 30
0.0
  0
VERTEX
  5
3F88
  8
SECONDCUT
 62
     5
 10
417.5924102840744
 20
353.6784916083103
 30
0.0
  0
VERTEX
  5
3F89
  8
SECONDCUT
 62
     5
 10
416.6183414769945
 20
353.6778599738864
 30
0.0
  0
VERTEX
  5
3F8A
  8
SECONDCUT
 62
     5
 10
293.2796240909137
 20
353.5978810451613
 30
0.0
  0
VERTEX
  5
3F8B
  8
SECONDCUT
 62
     5
 10
291.6479704822019
 20
353.5912876614365
 30
0.0
  0
VERTEX
  5
3F8C
  8
SECONDCUT
 62
     5
 10
287.6614703341347
 20
353.5670222384438
 30
0.0
 42
0.1125176718182217
  0
VERTEX
  5
3F8D
  8
SECONDCUT
 62
     5
 10
285.1954484325074
 20
346.874517075263
 30
0.0
  0
VERTEX
  5
3F8E
  8
SECONDCUT
 62
     5
 10
284.9694862349114
 20
344.9499161660364
 30
0.0
 42
0.2582507175520683
  0
VERTEX
  5
3F8F
  8
SECONDCUT
 62
     5
 10
286.6185339386511
 20
340.3012531177881
 30
0.0
  0
VERTEX
  5
3F90
  8
SECONDCUT
 62
     5
 10
287.0384066079667
 20
343.2345474003318
 30
0.0
  0
VERTEX
  5
3F91
  8
SECONDCUT
 62
     5
 10
289.0187150469328
 20
342.9513149027354
 30
0.0
  0
VERTEX
  5
3F92
  8
SECONDCUT
 62
     5
 10
292.977835688202
 20
342.384146170056
 30
0.0
  0
VERTEX
  5
3F93
  8
SECONDCUT
 62
     5
 10
292.5529057545264
 20
339.4155210700577
 30
0.0
  0
VERTEX
  5
3F94
  8
SECONDCUT
 62
     5
 10
293.1401645082964
 20
339.3314606667113
 30
0.0
  0
VERTEX
  5
3F95
  8
SECONDCUT
 62
     5
 10
296.5716314883457
 20
343.4987735972377
 30
0.0
 42
-0.2704700093603021
  0
VERTEX
  5
3F96
  8
SECONDCUT
 62
     5
 10
298.4631278124878
 20
344.1970254014548
 30
0.0
  0
VERTEX
  5
3F97
  8
SECONDCUT
 62
     5
 10
416.6380266844399
 20
323.3205111505432
 30
0.0
  0
VERTEX
  5
3F98
  8
SECONDCUT
 62
     5
 10
419.6211683815535
 20
322.7940757386431
 30
0.0
  0
VERTEX
  5
3F99
  8
SECONDCUT
 62
     5
 10
418.9011817374802
 20
333.7446029130994
 30
0.0
  0
VERTEX
  5
3F9A
  8
SECONDCUT
 62
     5
 10
406.9268158167763
 20
332.9606636315941
 30
0.0
  0
VERTEX
  5
3F9B
  8
SECONDCUT
 62
     5
 10
407.0084761586
 20
331.7133338481877
 30
0.0
  0
VERTEX
  5
3F9C
  8
SECONDCUT
 62
     5
 10
404.513816591787
 20
331.5500131645402
 30
0.0
  0
VERTEX
  5
3F9D
  8
SECONDCUT
 62
     5
 10
404.4321562499631
 20
332.7973429479466
 30
0.0
  0
VERTEX
  5
3F9E
  8
SECONDCUT
 62
     5
 10
401.9374966831499
 20
332.6340222642997
 30
0.0
  0
VERTEX
  5
3F9F
  8
SECONDCUT
 62
     5
 10
401.7579650441022
 20
335.6286909034031
 30
0.0
  0
VERTEX
  5
3FA0
  8
SECONDCUT
 62
     5
 10
404.2361714295872
 20
335.7909344281229
 30
0.0
  0
VERTEX
  5
3FA1
  8
SECONDCUT
 62
     5
 10
404.1545110877636
 20
337.0382642115296
 30
0.0
  0
VERTEX
  5
3FA2
  8
SECONDCUT
 62
     5
 10
406.6491706545768
 20
337.2015848951766
 30
0.0
  0
VERTEX
  5
3FA3
  8
SECONDCUT
 62
     5
 10
406.7308309964005
 20
335.9542551117699
 30
0.0
  0
VERTEX
  5
3FA4
  8
SECONDCUT
 62
     5
 10
418.7043665688997
 20
336.7407814735012
 30
0.0
  0
VERTEX
  5
3FA5
  8
SECONDCUT
 62
     5
 10
418.1172424559745
 20
345.7189688338033
 30
0.0
  0
VERTEX
  5
3FA6
  8
SECONDCUT
 62
     5
 10
406.1428765352706
 20
344.9350295522977
 30
0.0
  0
SEQEND
  5
4153
  8
SECONDCUT
 62
     5
  0
CIRCLE
  5
3B36
  8
FIRSTCUT
 62
     1
 10
335.0349237100068
 20
317.4692317440288
 30
0.0
 40
1.499999999999999
  0
CIRCLE
  5
3B37
  8
FIRSTCUT
 62
     1
 10
399.7571738806794
 20
312.3464259637625
 30
0.0
 40
1.499999999999999
  0
POLYLINE
  5
3B38
  8
FIRSTCUT
 62
     1
 66
     1
 10
0.0
 20
0.0
 30
0.0
  0
VERTEX
  5
3FA7
  8
FIRSTCUT
 62
     1
 10
426.1331438057777
 20
313.8971351619501
 30
0.0
  0
VERTEX
  5
3FA8
  8
FIRSTCUT
 62
     1
 10
427.1184016921302
 20
313.7518986407197
 30
0.0
  0
VERTEX
  5
3FA9
  8
FIRSTCUT
 62
     1
 10
427.3348337739039
 20
315.2360316843606
 30
0.0
  0
VERTEX
  5
3FAA
  8
FIRSTCUT
 62
     1
 10
426.3547786339282
 20
315.3805074776982
 30
0.0
  0
VERTEX
  5
3FAB
  8
FIRSTCUT
 62
     1
 10
423.3780551451312
 20
315.8225391681311
 30
0.0
  0
VERTEX
  5
3FAC
  8
FIRSTCUT
 62
     1
 10
423.1615997333345
 20
314.3382461442436
 30
0.0
  0
VERTEX
  5
3FAD
  8
FIRSTCUT
 62
     1
 10
426.6257727489539
 20
313.824516901335
 30
0.0
  0
SEQEND
  5
4154
  8
FIRSTCUT
 62
     1
  0
POLYLINE
  5
3B39
  8
SECONDCUT
 62
     5
 66
     1
 10
0.0
 20
0.0
 30
0.0
  0
VERTEX
  5
3FAE
  8
SECONDCUT
 62
     5
 10
309.2969010298014
 20
315.8408716224281
 30
0.0
  0
VERTEX
  5
3FAF
  8
SECONDCUT
 62
     5
 10
309.3764589552557
 20
314.5934059770104
 30
0.0
  0
VERTEX
  5
3FB0
  8
SECONDCUT
 62
     5
 10
309.2969010298014
 20
315.8408716224281
 30
0.0
  0
VERTEX
  5
3FB1
  8
SECONDCUT
 62
     5
 10
311.7918323206378
 20
315.9999874733346
 30
0.0
  0
VERTEX
  5
3FB2
  8
SECONDCUT
 62
     5
 10
311.871390246091
 20
314.7525218279168
 30
0.0
  0
VERTEX
  5
3FB3
  8
SECONDCUT
 62
     5
 10
314.3663215369264
 20
314.9116376788233
 30
0.0
  0
VERTEX
  5
3FB4
  8
SECONDCUT
 62
     5
 10
314.5408055845675
 20
311.9166707032846
 30
0.0
  0
VERTEX
  5
3FB5
  8
SECONDCUT
 62
     5
 10
312.0623292671785
 20
311.7586042789142
 30
0.0
  0
VERTEX
  5
3FB6
  8
SECONDCUT
 62
     5
 10
312.1418871926317
 20
310.5111386334964
 30
0.0
  0
VERTEX
  5
3FB7
  8
SECONDCUT
 62
     5
 10
309.646955901796
 20
310.3520227825899
 30
0.0
  0
VERTEX
  5
3FB8
  8
SECONDCUT
 62
     5
 10
309.5673979763433
 20
311.5994884280079
 30
0.0
  0
VERTEX
  5
3FB9
  8
SECONDCUT
 62
     5
 10
297.5925537669872
 20
310.833143867603
 30
0.0
  0
VERTEX
  5
3FBA
  8
SECONDCUT
 62
     5
 10
297.9122048820582
 20
305.8692538500068
 30
0.0
  0
VERTEX
  5
3FBB
  8
SECONDCUT
 62
     5
 10
298.8862733701961
 20
305.868243748321
 30
0.0
  0
VERTEX
  5
3FBC
  8
SECONDCUT
 62
     5
 10
422.2249503711083
 20
305.7403424692559
 30
0.0
  0
VERTEX
  5
3FBD
  8
SECONDCUT
 62
     5
 10
423.8566127750478
 20
305.7441857882152
 30
0.0
  0
VERTEX
  5
3FBE
  8
SECONDCUT
 62
     5
 10
427.8431481587964
 20
305.7617321671414
 30
0.0
 42
0.1125176718182217
  0
VERTEX
  5
3FBF
  8
SECONDCUT
 62
     5
 10
430.3204463783825
 20
312.4500714909006
 30
0.0
  0
VERTEX
  5
3FC0
  8
SECONDCUT
 62
     5
 10
430.5496520557357
 20
314.3742888206239
 30
0.0
 42
0.2582507175520683
  0
VERTEX
  5
3FC1
  8
SECONDCUT
 62
     5
 10
428.9084417401339
 20
319.0257246382313
 30
0.0
  0
VERTEX
  5
3FC2
  8
SECONDCUT
 62
     5
 10
428.4836257736179
 20
316.0931421924961
 30
0.0
  0
VERTEX
  5
3FC3
  8
SECONDCUT
 62
     5
 10
426.5037975189741
 20
316.3797119802435
 30
0.0
  0
VERTEX
  5
3FC4
  8
SECONDCUT
 62
     5
 10
422.5456384303323
 20
316.9535527704068
 30
0.0
  0
VERTEX
  5
3FC5
  8
SECONDCUT
 62
     5
 10
422.9755712020234
 20
319.9214574596951
 30
0.0
  0
VERTEX
  5
3FC6
  8
SECONDCUT
 62
     5
 10
422.3884549611951
 20
320.0065075334508
 30
0.0
  0
VERTEX
  5
3FC7
  8
SECONDCUT
 62
     5
 10
418.9499690962274
 20
315.8449840561029
 30
0.0
 42
-0.2704700093603021
  0
VERTEX
  5
3FC8
  8
SECONDCUT
 62
     5
 10
417.0572985966742
 20
315.149921248541
 30
0.0
  0
VERTEX
  5
3FC9
  8
SECONDCUT
 62
     5
 10
298.9177537019673
 20
336.2255826316662
 30
0.0
  0
VERTEX
  5
3FCA
  8
SECONDCUT
 62
     5
 10
295.9355035176462
 20
336.7570452042713
 30
0.0
  0
VERTEX
  5
3FCB
  8
SECONDCUT
 62
     5
 10
296.637032674894
 20
325.8053200886702
 30
0.0
  0
VERTEX
  5
3FCC
  8
SECONDCUT
 62
     5
 10
308.6127028709046
 20
326.5690761730209
 30
0.0
  0
VERTEX
  5
3FCD
  8
SECONDCUT
 62
     5
 10
308.5331449454512
 20
327.8165418184385
 30
0.0
  0
VERTEX
  5
3FCE
  8
SECONDCUT
 62
     5
 10
311.0280762362866
 20
327.9756576693454
 30
0.0
  0
VERTEX
  5
3FCF
  8
SECONDCUT
 62
     5
 10
311.1076341617405
 20
326.7281920239276
 30
0.0
  0
VERTEX
  5
3FD0
  8
SECONDCUT
 62
     5
 10
313.6025654525757
 20
326.8873078748341
 30
0.0
  0
VERTEX
  5
3FD1
  8
SECONDCUT
 62
     5
 10
313.7770495002164
 20
323.8923408992953
 30
0.0
  0
VERTEX
  5
3FD2
  8
SECONDCUT
 62
     5
 10
311.2985731828274
 20
323.7342744749249
 30
0.0
  0
VERTEX
  5
3FD3
  8
SECONDCUT
 62
     5
 10
311.3781311082808
 20
322.4868088295071
 30
0.0
  0
VERTEX
  5
3FD4
  8
SECONDCUT
 62
     5
 10
308.8831998174451
 20
322.3276929786006
 30
0.0
  0
VERTEX
  5
3FD5
  8
SECONDCUT
 62
     5
 10
308.8036418919918
 20
323.5751586240183
 30
0.0
  0
VERTEX
  5
3FD6
  8
SECONDCUT
 62
     5
 10
296.8287976826361
 20
322.8088140636139
 30
0.0
  0
VERTEX
  5
3FD7
  8
SECONDCUT
 62
     5
 10
297.400788759245
 20
313.8296498926596
 30
0.0
  0
VERTEX
  5
3FD8
  8
SECONDCUT
 62
     5
 10
309.3764589552557
 20
314.5934059770104
 30
0.0
  0
SEQEND
  5
4155
  8
SECONDCUT
 62
     5
  0
CIRCLE
  5
3B3B
  8
FIRSTCUT
 62
     1
 10
345.6198318024863
 20
398.9473846111998
 30
0.0
 40
1.499999999999999
  0
CIRCLE
  5
3B3C
  8
FIRSTCUT
 62
     1
 10
280.8890393751009
 20
403.9610976006118
 30
0.0
 40
1.499999999999999
  0
POLYLINE
  5
3B3D
  8
FIRSTCUT
 62
     1
 66
     1
 10
0.0
 20
0.0
 30
0.0
  0
VERTEX
  5
3FD9
  8
FIRSTCUT
 62
     1
 10
254.5157205416715
 20
402.3659354717648
 30
0.0
  0
VERTEX
  5
3FDA
  8
FIRSTCUT
 62
     1
 10
253.5302192671919
 20
402.5095111929658
 30
0.0
  0
VERTEX
  5
3FDB
  8
FIRSTCUT
 62
     1
 10
253.3162889110652
 20
401.0250154738831
 30
0.0
  0
VERTEX
  5
3FDC
  8
FIRSTCUT
 62
     1
 10
254.296586164396
 20
400.8821917105738
 30
0.0
  0
VERTEX
  5
3FDD
  8
FIRSTCUT
 62
     1
 10
257.2740504433868
 20
400.4451777389047
 30
0.0
  0
VERTEX
  5
3FDE
  8
FIRSTCUT
 62
     1
 10
257.4880038598665
 20
401.9298334773282
 30
0.0
  0
VERTEX
  5
3FDF
  8
FIRSTCUT
 62
     1
 10
254.0229699044316
 20
402.4377233323653
 30
0.0
  0
SEQEND
  5
4156
  8
FIRSTCUT
 62
     1
  0
POLYLINE
  5
3B3E
  8
SECONDCUT
 62
     5
 66
     1
 10
0.0
 20
0.0
 30
0.0
  0
VERTEX
  5
3FE0
  8
SECONDCUT
 62
     5
 10
371.3550734211084
 20
400.6191223309169
 30
0.0
  0
VERTEX
  5
3FE1
  8
SECONDCUT
 62
     5
 10
371.273413079284
 20
401.8664521143234
 30
0.0
  0
VERTEX
  5
3FE2
  8
SECONDCUT
 62
     5
 10
371.3550734211084
 20
400.6191223309169
 30
0.0
  0
VERTEX
  5
3FE3
  8
SECONDCUT
 62
     5
 10
368.8604138542944
 20
400.4558016472697
 30
0.0
  0
VERTEX
  5
3FE4
  8
SECONDCUT
 62
     5
 10
368.7787535124709
 20
401.7031314306764
 30
0.0
  0
VERTEX
  5
3FE5
  8
SECONDCUT
 62
     5
 10
366.2840939456578
 20
401.5398107470296
 30
0.0
  0
VERTEX
  5
3FE6
  8
SECONDCUT
 62
     5
 10
366.1045623066096
 20
404.5344793861329
 30
0.0
  0
VERTEX
  5
3FE7
  8
SECONDCUT
 62
     5
 10
368.5827686920948
 20
404.6967229108523
 30
0.0
  0
VERTEX
  5
3FE8
  8
SECONDCUT
 62
     5
 10
368.5011083502712
 20
405.9440526942591
 30
0.0
  0
VERTEX
  5
3FE9
  8
SECONDCUT
 62
     5
 10
370.9957679170847
 20
406.107373377906
 30
0.0
  0
VERTEX
  5
3FEA
  8
SECONDCUT
 62
     5
 10
371.0774282589075
 20
404.8600435944992
 30
0.0
  0
VERTEX
  5
3FEB
  8
SECONDCUT
 62
     5
 10
383.0509638314073
 20
405.6465699562306
 30
0.0
  0
VERTEX
  5
3FEC
  8
SECONDCUT
 62
     5
 10
382.7229468280877
 20
410.6099141703359
 30
0.0
  0
VERTEX
  5
3FED
  8
SECONDCUT
 62
     5
 10
381.7488780210078
 20
410.609282535912
 30
0.0
  0
VERTEX
  5
3FEE
  8
SECONDCUT
 62
     5
 10
258.410160634927
 20
410.5293036071869
 30
0.0
  0
VERTEX
  5
3FEF
  8
SECONDCUT
 62
     5
 10
256.7785070262153
 20
410.5227102234621
 30
0.0
  0
VERTEX
  5
3FF0
  8
SECONDCUT
 62
     5
 10
252.7920068781481
 20
410.4984448004694
 30
0.0
 42
0.1125176718182217
  0
VERTEX
  5
3FF1
  8
SECONDCUT
 62
     5
 10
250.3259849765208
 20
403.8059396372886
 30
0.0
  0
VERTEX
  5
3FF2
  8
SECONDCUT
 62
     5
 10
250.1000227789248
 20
401.881338728062
 30
0.0
 42
0.2582507175520683
  0
VERTEX
  5
3FF3
  8
SECONDCUT
 62
     5
 10
251.7490704826645
 20
397.2326756798137
 30
0.0
  0
VERTEX
  5
3FF4
  8
SECONDCUT
 62
     5
 10
252.1689431519801
 20
400.1659699623575
 30
0.0
  0
VERTEX
  5
3FF5
  8
SECONDCUT
 62
     5
 10
254.1492515909462
 20
399.882737464761
 30
0.0
  0
VERTEX
  5
3FF6
  8
SECONDCUT
 62
     5
 10
258.1083722322154
 20
399.3155687320816
 30
0.0
  0
VERTEX
  5
3FF7
  8
SECONDCUT
 62
     5
 10
257.6834422985397
 20
396.3469436320833
 30
0.0
  0
VERTEX
  5
3FF8
  8
SECONDCUT
 62
     5
 10
258.2707010523097
 20
396.2628832287369
 30
0.0
  0
VERTEX
  5
3FF9
  8
SECONDCUT
 62
     5
 10
261.7021680323591
 20
400.4301961592633
 30
0.0
 42
-0.2704700093603021
  0
VERTEX
  5
3FFA
  8
SECONDCUT
 62
     5
 10
263.5936643565011
 20
401.1284479634804
 30
0.0
  0
VERTEX
  5
3FFB
  8
SECONDCUT
 62
     5
 10
381.7685632284532
 20
380.2519337125688
 30
0.0
  0
VERTEX
  5
3FFC
  8
SECONDCUT
 62
     5
 10
384.7517049255669
 20
379.7254983006687
 30
0.0
  0
VERTEX
  5
3FFD
  8
SECONDCUT
 62
     5
 10
384.0317182814936
 20
390.676025475125
 30
0.0
  0
VERTEX
  5
3FFE
  8
SECONDCUT
 62
     5
 10
372.0573523607897
 20
389.8920861936197
 30
0.0
  0
VERTEX
  5
3FFF
  8
SECONDCUT
 62
     5
 10
372.1390127026134
 20
388.6447564102133
 30
0.0
  0
VERTEX
  5
4000
  8
SECONDCUT
 62
     5
 10
369.6443531358003
 20
388.4814357265658
 30
0.0
  0
VERTEX
  5
4001
  8
SECONDCUT
 62
     5
 10
369.5626927939765
 20
389.7287655099722
 30
0.0
  0
VERTEX
  5
4002
  8
SECONDCUT
 62
     5
 10
367.0680332271633
 20
389.5654448263253
 30
0.0
  0
VERTEX
  5
4003
  8
SECONDCUT
 62
     5
 10
366.8885015881156
 20
392.5601134654287
 30
0.0
  0
VERTEX
  5
4004
  8
SECONDCUT
 62
     5
 10
369.3667079736006
 20
392.7223569901485
 30
0.0
  0
VERTEX
  5
4005
  8
SECONDCUT
 62
     5
 10
369.2850476317769
 20
393.9696867735552
 30
0.0
  0
VERTEX
  5
4006
  8
SECONDCUT
 62
     5
 10
371.7797071985901
 20
394.1330074572022
 30
0.0
  0
VERTEX
  5
4007
  8
SECONDCUT
 62
     5
 10
371.8613675404139
 20
392.8856776737955
 30
0.0
  0
VERTEX
  5
4008
  8
SECONDCUT
 62
     5
 10
383.834903112913
 20
393.6722040355268
 30
0.0
  0
VERTEX
  5
4009
  8
SECONDCUT
 62
     5
 10
383.2477789999879
 20
402.6503913958289
 30
0.0
  0
VERTEX
  5
400A
  8
SECONDCUT
 62
     5
 10
371.273413079284
 20
401.8664521143234
 30
0.0
  0
SEQEND
  5
4157
  8
SECONDCUT
 62
     5
  0
CIRCLE
  5
3B3F
  8
FIRSTCUT
 62
     1
 10
316.1404119163205
 20
374.4006543060544
 30
0.0
 40
1.499999999999999
  0
CIRCLE
  5
3B40
  8
FIRSTCUT
 62
     1
 10
380.8626620869932
 20
369.2778485257881
 30
0.0
 40
1.499999999999999
  0
POLYLINE
  5
3B41
  8
FIRSTCUT
 62
     1
 66
     1
 10
0.0
 20
0.0
 30
0.0
  0
VERTEX
  5
400B
  8
FIRSTCUT
 62
     1
 10
407.2386320120914
 20
370.8285577239757
 30
0.0
  0
VERTEX
  5
400C
  8
FIRSTCUT
 62
     1
 10
408.223889898444
 20
370.6833212027453
 30
0.0
  0
VERTEX
  5
400D
  8
FIRSTCUT
 62
     1
 10
408.4403219802176
 20
372.1674542463862
 30
0.0
  0
VERTEX
  5
400E
  8
FIRSTCUT
 62
     1
 10
407.460266840242
 20
372.3119300397238
 30
0.0
  0
VERTEX
  5
400F
  8
FIRSTCUT
 62
     1
 10
404.483543351445
 20
372.7539617301567
 30
0.0
  0
VERTEX
  5
4010
  8
FIRSTCUT
 62
     1
 10
404.2670879396483
 20
371.2696687062692
 30
0.0
  0
VERTEX
  5
4011
  8
FIRSTCUT
 62
     1
 10
407.7312609552677
 20
370.7559394633606
 30
0.0
  0
SEQEND
  5
4158
  8
FIRSTCUT
 62
     1
  0
POLYLINE
  5
3B42
  8
SECONDCUT
 62
     5
 66
     1
 10
0.0
 20
0.0
 30
0.0
  0
VERTEX
  5
4012
  8
SECONDCUT
 62
     5
 10
290.4023892361151
 20
372.7722941844537
 30
0.0
  0
VERTEX
  5
4013
  8
SECONDCUT
 62
     5
 10
290.4819471615695
 20
371.524828539036
 30
0.0
  0
VERTEX
  5
4014
  8
SECONDCUT
 62
     5
 10
290.4023892361151
 20
372.7722941844537
 30
0.0
  0
VERTEX
  5
4015
  8
SECONDCUT
 62
     5
 10
292.8973205269515
 20
372.9314100353602
 30
0.0
  0
VERTEX
  5
4016
  8
SECONDCUT
 62
     5
 10
292.9768784524048
 20
371.6839443899424
 30
0.0
  0
VERTEX
  5
4017
  8
SECONDCUT
 62
     5
 10
295.4718097432401
 20
371.8430602408489
 30
0.0
  0
VERTEX
  5
4018
  8
SECONDCUT
 62
     5
 10
295.6462937908813
 20
368.8480932653102
 30
0.0
  0
VERTEX
  5
4019
  8
SECONDCUT
 62
     5
 10
293.1678174734923
 20
368.6900268409398
 30
0.0
  0
VERTEX
  5
401A
  8
SECONDCUT
 62
     5
 10
293.2473753989455
 20
367.442561195522
 30
0.0
  0
VERTEX
  5
401B
  8
SECONDCUT
 62
     5
 10
290.7524441081098
 20
367.2834453446155
 30
0.0
  0
VERTEX
  5
401C
  8
SECONDCUT
 62
     5
 10
290.6728861826571
 20
368.5309109900335
 30
0.0
  0
VERTEX
  5
401D
  8
SECONDCUT
 62
     5
 10
278.698041973301
 20
367.7645664296286
 30
0.0
  0
VERTEX
  5
401E
  8
SECONDCUT
 62
     5
 10
279.017693088372
 20
362.8006764120324
 30
0.0
  0
VERTEX
  5
401F
  8
SECONDCUT
 62
     5
 10
279.9917615765098
 20
362.7996663103467
 30
0.0
  0
VERTEX
  5
4020
  8
SECONDCUT
 62
     5
 10
403.330438577422
 20
362.6717650312816
 30
0.0
  0
VERTEX
  5
4021
  8
SECONDCUT
 62
     5
 10
404.9621009813616
 20
362.6756083502408
 30
0.0
  0
VERTEX
  5
4022
  8
SECONDCUT
 62
     5
 10
408.9486363651101
 20
362.693154729167
 30
0.0
 42
0.1125176718182217
  0
VERTEX
  5
4023
  8
SECONDCUT
 62
     5
 10
411.4259345846963
 20
369.3814940529262
 30
0.0
  0
VERTEX
  5
4024
  8
SECONDCUT
 62
     5
 10
411.6551402620495
 20
371.3057113826495
 30
0.0
 42
0.2582507175520683
  0
VERTEX
  5
4025
  8
SECONDCUT
 62
     5
 10
410.0139299464477
 20
375.9571472002569
 30
0.0
  0
VERTEX
  5
4026
  8
SECONDCUT
 62
     5
 10
409.5891139799317
 20
373.0245647545217
 30
0.0
  0
VERTEX
  5
4027
  8
SECONDCUT
 62
     5
 10
407.6092857252878
 20
373.3111345422691
 30
0.0
  0
VERTEX
  5
4028
  8
SECONDCUT
 62
     5
 10
403.651126636646
 20
373.8849753324324
 30
0.0
  0
VERTEX
  5
4029
  8
SECONDCUT
 62
     5
 10
404.0810594083372
 20
376.8528800217208
 30
0.0
  0
VERTEX
  5
402A
  8
SECONDCUT
 62
     5
 10
403.4939431675089
 20
376.9379300954764
 30
0.0
  0
VERTEX
  5
402B
  8
SECONDCUT
 62
     5
 10
400.0554573025412
 20
372.7764066181285
 30
0.0
 42
-0.2704700093603021
  0
VERTEX
  5
402C
  8
SECONDCUT
 62
     5
 10
398.162786802988
 20
372.0813438105666
 30
0.0
  0
VERTEX
  5
402D
  8
SECONDCUT
 62
     5
 10
280.0232419082811
 20
393.1570051936918
 30
0.0
  0
VERTEX
  5
402E
  8
SECONDCUT
 62
     5
 10
277.0409917239599
 20
393.6884677662969
 30
0.0
  0
VERTEX
  5
402F
  8
SECONDCUT
 62
     5
 10
277.7425208812077
 20
382.7367426506958
 30
0.0
  0
VERTEX
  5
4030
  8
SECONDCUT
 62
     5
 10
289.7181910772183
 20
383.5004987350465
 30
0.0
  0
VERTEX
  5
4031
  8
SECONDCUT
 62
     5
 10
289.6386331517649
 20
384.7479643804641
 30
0.0
  0
VERTEX
  5
4032
  8
SECONDCUT
 62
     5
 10
292.1335644426003
 20
384.907080231371
 30
0.0
  0
VERTEX
  5
4033
  8
SECONDCUT
 62
     5
 10
292.2131223680542
 20
383.6596145859532
 30
0.0
  0
VERTEX
  5
4034
  8
SECONDCUT
 62
     5
 10
294.7080536588894
 20
383.8187304368597
 30
0.0
  0
VERTEX
  5
4035
  8
SECONDCUT
 62
     5
 10
294.8825377065301
 20
380.8237634613209
 30
0.0
  0
VERTEX
  5
4036
  8
SECONDCUT
 62
     5
 10
292.4040613891411
 20
380.6656970369505
 30
0.0
  0
VERTEX
  5
4037
  8
SECONDCUT
 62
     5
 10
292.4836193145945
 20
379.4182313915327
 30
0.0
  0
VERTEX
  5
4038
  8
SECONDCUT
 62
     5
 10
289.9886880237589
 20
379.2591155406262
 30
0.0
  0
VERTEX
  5
4039
  8
SECONDCUT
 62
     5
 10
289.9091300983056
 20
380.5065811860439
 30
0.0
  0
VERTEX
  5
403A
  8
SECONDCUT
 62
     5
 10
277.9342858889498
 20
379.7402366256395
 30
0.0
  0
VERTEX
  5
403B
  8
SECONDCUT
 62
     5
 10
278.5062769655588
 20
370.7610724546852
 30
0.0
  0
VERTEX
  5
403C
  8
SECONDCUT
 62
     5
 10
290.4819471615695
 20
371.524828539036
 30
0.0
  0
SEQEND
  5
4159
  8
SECONDCUT
 62
     5
  0
CIRCLE
  5
3B7B
  8
FIRSTCUT
 62
     1
 10
477.7028650689805
 20
288.9105357157196
 30
0.0
 40
1.499999999999998
  0
CIRCLE
  5
3B7C
  8
FIRSTCUT
 62
     1
 10
542.4997841835917
 20
292.9814176191849
 30
0.0
 40
1.499999999999998
  0
POLYLINE
  5
3B7D
  8
FIRSTCUT
 62
     1
 66
     1
 10
0.0
 20
0.0
 30
0.0
  0
VERTEX
  5
403D
  8
FIRSTCUT
 62
     1
 10
452.0944955746841
 20
292.2027385127342
 30
0.0
  0
VERTEX
  5
403E
  8
FIRSTCUT
 62
     1
 10
452.4338473040943
 20
296.439168661308
 30
0.0
  0
VERTEX
  5
403F
  8
FIRSTCUT
 62
     1
 10
454.9258650385496
 20
296.2395499969491
 30
0.0
  0
VERTEX
  5
4040
  8
FIRSTCUT
 62
     1
 10
454.5865133091395
 20
292.003119848375
 30
0.0
  0
VERTEX
  5
4041
  8
FIRSTCUT
 62
     1
 10
454.4867039769597
 20
290.7571109811477
 30
0.0
  0
VERTEX
  5
4042
  8
FIRSTCUT
 62
     1
 10
451.9946862425043
 20
290.9567296455064
 30
0.0
  0
VERTEX
  5
4043
  8
FIRSTCUT
 62
     1
 10
452.0944955746841
 20
292.2027385127342
 30
0.0
  0
VERTEX
  5
4044
  8
FIRSTCUT
 62
     1
 10
451.9946862425043
 20
290.9567296455064
 30
0.0
  0
SEQEND
  5
415A
  8
FIRSTCUT
 62
     1
  0
POLYLINE
  5
3B7E
  8
FIRSTCUT
 62
     1
 66
     1
 10
0.0
 20
0.0
 30
0.0
 70
     1
  0
VERTEX
  5
4045
  8
FIRSTCUT
 62
     1
 10
451.3758683829917
 20
283.231474668695
 30
0.0
  0
VERTEX
  5
4046
  8
FIRSTCUT
 62
     1
 10
451.4756777151712
 20
284.4774835359227
 30
0.0
  0
VERTEX
  5
4047
  8
FIRSTCUT
 62
     1
 10
453.9676954496263
 20
284.2778648715639
 30
0.0
  0
VERTEX
  5
4048
  8
FIRSTCUT
 62
     1
 10
453.8678861174471
 20
283.0318560043363
 30
0.0
  0
VERTEX
  5
4049
  8
FIRSTCUT
 62
     1
 10
453.5285343880366
 20
278.7954258557621
 30
0.0
  0
VERTEX
  5
404A
  8
FIRSTCUT
 62
     1
 10
451.0365166535815
 20
278.9950445201215
 30
0.0
  0
SEQEND
  5
415B
  8
FIRSTCUT
 62
     1
  0
POLYLINE
  5
3B7F
  8
SECONDCUT
 62
     5
 66
     1
 10
0.0
 20
0.0
 30
0.0
 70
     1
  0
VERTEX
  5
404B
  8
SECONDCUT
 62
     5
 10
568.650223151683
 20
292.4893095919883
 30
0.0
  0
VERTEX
  5
404C
  8
SECONDCUT
 62
     5
 10
568.8470873401137
 20
291.0025025413292
 30
0.0
  0
VERTEX
  5
404D
  8
SECONDCUT
 62
     5
 10
569.8345742512025
 20
291.1317168986844
 30
0.0
  0
VERTEX
  5
404E
  8
SECONDCUT
 62
     5
 10
570.0268718210051
 20
289.6442642500616
 30
0.0
  0
VERTEX
  5
404F
  8
SECONDCUT
 62
     5
 10
569.0445993260465
 20
289.5157260148836
 30
0.0
  0
VERTEX
  5
4050
  8
SECONDCUT
 62
     5
 10
569.1773690210042
 20
288.5142328925369
 30
0.0
  0
VERTEX
  5
4051
  8
SECONDCUT
 62
     5
 10
571.1615906982128
 20
288.7686076098934
 30
0.0
  0
VERTEX
  5
4052
  8
SECONDCUT
 62
     5
 10
571.5387182923442
 20
285.8295119693623
 30
0.0
 42
0.2582507175520683
  0
VERTEX
  5
4053
  8
SECONDCUT
 62
     5
 10
573.2552628303132
 20
290.4536769009503
 30
0.0
  0
VERTEX
  5
4054
  8
SECONDCUT
 62
     5
 10
573.0573413982107
 20
292.3813632554314
 30
0.0
 42
0.112517671818221
  0
VERTEX
  5
4055
  8
SECONDCUT
 62
     5
 10
570.6890050126118
 20
299.1090576705456
 30
0.0
  0
VERTEX
  5
4056
  8
SECONDCUT
 62
     5
 10
566.703280518224
 20
299.1913528473845
 30
0.0
  0
VERTEX
  5
4057
  8
SECONDCUT
 62
     5
 10
565.0718957837702
 20
299.2216978588341
 30
0.0
  0
VERTEX
  5
4058
  8
SECONDCUT
 62
     5
 10
441.747411862155
 20
301.0971360849051
 30
0.0
  0
VERTEX
  5
4059
  8
SECONDCUT
 62
     5
 10
440.7734554640091
 20
301.1119473778577
 30
0.0
  0
VERTEX
  5
405A
  8
SECONDCUT
 62
     5
 10
439.1746408603757
 20
281.1992229762719
 30
0.0
  0
VERTEX
  5
405B
  8
SECONDCUT
 62
     5
 10
438.2953213693273
 20
270.2603371372655
 30
0.0
  0
VERTEX
  5
405C
  8
SECONDCUT
 62
     5
 10
441.2858103988677
 20
270.7432905430528
 30
0.0
  0
VERTEX
  5
405D
  8
SECONDCUT
 62
     5
 10
559.752091073528
 20
289.8972957058664
 30
0.0
 42
-0.2704700093602971
  0
VERTEX
  5
405E
  8
SECONDCUT
 62
     5
 10
561.6332223722233
 20
289.1715829779892
 30
0.0
  0
VERTEX
  5
405F
  8
SECONDCUT
 62
     5
 10
565.0036612928681
 20
284.9547590335609
 30
0.0
  0
VERTEX
  5
4060
  8
SECONDCUT
 62
     5
 10
565.5920815046892
 20
285.0302616799405
 30
0.0
  0
VERTEX
  5
4061
  8
SECONDCUT
 62
     5
 10
565.21041150025
 20
288.0047580138739
 30
0.0
  0
VERTEX
  5
4062
  8
SECONDCUT
 62
     5
 10
567.1946042663964
 20
288.2593580458944
 30
0.0
  0
VERTEX
  5
4063
  8
SECONDCUT
 62
     5
 10
567.0630636726586
 20
289.2528118770701
 30
0.0
  0
VERTEX
  5
4064
  8
SECONDCUT
 62
     5
 10
566.0610888398415
 20
289.1221019266942
 30
0.0
  0
VERTEX
  5
4065
  8
SECONDCUT
 62
     5
 10
565.8687705415656
 20
290.6097149133964
 30
0.0
  0
VERTEX
  5
4066
  8
SECONDCUT
 62
     5
 10
566.8643291736731
 20
290.7399707776289
 30
0.0
  0
VERTEX
  5
4067
  8
SECONDCUT
 62
     5
 10
566.6685403731739
 20
292.226920217559
 30
0.0
  0
SEQEND
  5
415C
  8
SECONDCUT
 62
     5
  0
CIRCLE
  5
3B89
  8
FIRSTCUT
 62
     1
 10
430.3352075087882
 20
398.5828252363813
 30
0.0
 40
1.499999999999999
  0
CIRCLE
  5
3B8A
  8
FIRSTCUT
 62
     1
 10
495.0821094434959
 20
403.3840225948282
 30
0.0
 40
1.499999999999999
  0
POLYLINE
  5
3B8B
  8
FIRSTCUT
 62
     1
 66
     1
 10
0.0
 20
0.0
 30
0.0
  0
VERTEX
  5
4068
  8
FIRSTCUT
 62
     1
 10
404.6913467319097
 20
401.5860887727957
 30
0.0
  0
VERTEX
  5
4069
  8
FIRSTCUT
 62
     1
 10
404.9829118637228
 20
405.8260757744161
 30
0.0
  0
VERTEX
  5
406A
  8
FIRSTCUT
 62
     1
 10
407.477021864676
 20
405.6545668733494
 30
0.0
  0
VERTEX
  5
406B
  8
FIRSTCUT
 62
     1
 10
407.1854567328631
 20
401.4145798717289
 30
0.0
  0
VERTEX
  5
406C
  8
FIRSTCUT
 62
     1
 10
407.0997022823294
 20
400.1675248712525
 30
0.0
  0
VERTEX
  5
406D
  8
FIRSTCUT
 62
     1
 10
404.605592281376
 20
400.3390337723189
 30
0.0
  0
VERTEX
  5
406E
  8
FIRSTCUT
 62
     1
 10
404.6913467319097
 20
401.5860887727957
 30
0.0
  0
VERTEX
  5
406F
  8
FIRSTCUT
 62
     1
 10
404.605592281376
 20
400.3390337723189
 30
0.0
  0
SEQEND
  5
415D
  8
FIRSTCUT
 62
     1
  0
POLYLINE
  5
3B8C
  8
FIRSTCUT
 62
     1
 66
     1
 10
0.0
 20
0.0
 30
0.0
 70
     1
  0
VERTEX
  5
4070
  8
FIRSTCUT
 62
     1
 10
404.0739146880695
 20
392.6072927693638
 30
0.0
  0
VERTEX
  5
4071
  8
FIRSTCUT
 62
     1
 10
404.159669138603
 20
393.8543477698404
 30
0.0
  0
VERTEX
  5
4072
  8
FIRSTCUT
 62
     1
 10
406.653779139556
 20
393.6828388687741
 30
0.0
  0
VERTEX
  5
4073
  8
FIRSTCUT
 62
     1
 10
406.568024689023
 20
392.4357838682975
 30
0.0
  0
VERTEX
  5
4074
  8
FIRSTCUT
 62
     1
 10
406.2764595572094
 20
388.1957968666767
 30
0.0
  0
VERTEX
  5
4075
  8
FIRSTCUT
 62
     1
 10
403.7823495562564
 20
388.3673057677437
 30
0.0
  0
SEQEND
  5
415E
  8
FIRSTCUT
 62
     1
  0
POLYLINE
  5
3B8D
  8
SECONDCUT
 62
     5
 66
     1
 10
0.0
 20
0.0
 30
0.0
 70
     1
  0
VERTEX
  5
4076
  8
SECONDCUT
 62
     5
 10
521.236434647675
 20
403.1867875869294
 30
0.0
  0
VERTEX
  5
4077
  8
SECONDCUT
 62
     5
 10
521.4500498187704
 20
401.7022946522025
 30
0.0
  0
VERTEX
  5
4078
  8
SECONDCUT
 62
     5
 10
522.4360170924758
 20
401.8426345428266
 30
0.0
  0
VERTEX
  5
4079
  8
SECONDCUT
 62
     5
 10
522.6450732142175
 20
400.3574445633258
 30
0.0
  0
VERTEX
  5
407A
  8
SECONDCUT
 62
     5
 10
521.6643124020368
 20
400.2178395435554
 30
0.0
  0
VERTEX
  5
407B
  8
SECONDCUT
 62
     5
 10
521.8083653219187
 20
399.2179070346927
 30
0.0
  0
VERTEX
  5
407C
  8
SECONDCUT
 62
     5
 10
523.7895928446687
 20
399.4946373442588
 30
0.0
  0
VERTEX
  5
407D
  8
SECONDCUT
 62
     5
 10
524.1998342695654
 20
396.5599805705045
 30
0.0
 42
0.2582507175520683
  0
VERTEX
  5
407E
  8
SECONDCUT
 62
     5
 10
525.8641330280036
 20
401.203205323628
 30
0.0
  0
VERTEX
  5
407F
  8
SECONDCUT
 62
     5
 10
525.6444898414782
 20
403.1285376183635
 30
0.0
 42
0.112517671818221
  0
VERTEX
  5
4080
  8
SECONDCUT
 62
     5
 10
523.2004503870905
 20
409.8291018128105
 30
0.0
  0
VERTEX
  5
4081
  8
SECONDCUT
 62
     5
 10
519.2140513728652
 20
409.8664533948086
 30
0.0
  0
VERTEX
  5
4082
  8
SECONDCUT
 62
     5
 10
517.5824281991431
 20
409.8784028927883
 30
0.0
  0
VERTEX
  5
4083
  8
SECONDCUT
 62
     5
 10
394.2446378944172
 20
410.3632593869848
 30
0.0
  0
VERTEX
  5
4084
  8
SECONDCUT
 62
     5
 10
393.2705764089719
 20
410.367088546205
 30
0.0
  0
VERTEX
  5
4085
  8
SECONDCUT
 62
     5
 10
391.8963760022143
 20
390.43760349334
 30
0.0
  0
VERTEX
  5
4086
  8
SECONDCUT
 62
     5
 10
391.1404464755091
 20
379.4894987844505
 30
0.0
  0
VERTEX
  5
4087
  8
SECONDCUT
 62
     5
 10
394.1253002035814
 20
380.0061387461024
 30
0.0
  0
VERTEX
  5
4088
  8
SECONDCUT
 62
     5
 10
512.3680926751911
 20
400.4946135351229
 30
0.0
 42
-0.2704700093602971
  0
VERTEX
  5
4089
  8
SECONDCUT
 62
     5
 10
514.2572866909459
 20
399.7901563702293
 30
0.0
  0
VERTEX
  5
408A
  8
SECONDCUT
 62
     5
 10
517.6750553474915
 20
395.6116015834119
 30
0.0
  0
VERTEX
  5
408B
  8
SECONDCUT
 62
     5
 10
518.2625868781508
 20
395.6937337681584
 30
0.0
  0
VERTEX
  5
408C
  8
SECONDCUT
 62
     5
 10
517.8474041948946
 20
398.6637377702427
 30
0.0
  0
VERTEX
  5
408D
  8
SECONDCUT
 62
     5
 10
519.8286002680356
 20
398.9406930541839
 30
0.0
  0
VERTEX
  5
408E
  8
SECONDCUT
 62
     5
 10
519.685867012885
 20
399.9326006407829
 30
0.0
  0
VERTEX
  5
408F
  8
SECONDCUT
 62
     5
 10
518.6854296009021
 20
399.7906019033558
 30
0.0
  0
VERTEX
  5
4090
  8
SECONDCUT
 62
     5
 10
518.47635094422
 20
401.2759519770345
 30
0.0
  0
VERTEX
  5
4091
  8
SECONDCUT
 62
     5
 10
519.4703776830695
 20
401.4174243156124
 30
0.0
  0
VERTEX
  5
4092
  8
SECONDCUT
 62
     5
 10
519.2578362261363
 20
402.9020717553752
 30
0.0
  0
SEQEND
  5
415F
  8
SECONDCUT
 62
     5
  0
CIRCLE
  5
3BA1
  8
FIRSTCUT
 62
     1
 10
520.6097273010743
 20
342.3447960518034
 30
0.0
 40
1.499999999999999
  0
CIRCLE
  5
3BA2
  8
FIRSTCUT
 62
     1
 10
455.9039986384096
 20
347.6722236159306
 30
0.0
 40
1.499999999999999
  0
POLYLINE
  5
3BA3
  8
FIRSTCUT
 62
     1
 66
     1
 10
0.0
 20
0.0
 30
0.0
  0
VERTEX
  5
4093
  8
FIRSTCUT
 62
     1
 10
546.2771569584055
 20
345.1394771067779
 30
0.0
  0
VERTEX
  5
4094
  8
FIRSTCUT
 62
     1
 10
546.0200723318234
 20
349.3816943919691
 30
0.0
  0
VERTEX
  5
4095
  8
FIRSTCUT
 62
     1
 10
543.5246503993579
 20
349.2304681410383
 30
0.0
  0
VERTEX
  5
4096
  8
FIRSTCUT
 62
     1
 10
543.78173502594
 20
344.988250855847
 30
0.0
  0
VERTEX
  5
4097
  8
FIRSTCUT
 62
     1
 10
543.8573481514057
 20
343.7405398896145
 30
0.0
  0
VERTEX
  5
4098
  8
FIRSTCUT
 62
     1
 10
546.3527700838713
 20
343.8917661405451
 30
0.0
  0
VERTEX
  5
4099
  8
FIRSTCUT
 62
     1
 10
546.2771569584055
 20
345.1394771067779
 30
0.0
  0
VERTEX
  5
409A
  8
FIRSTCUT
 62
     1
 10
546.3527700838713
 20
343.8917661405451
 30
0.0
  0
SEQEND
  5
4160
  8
FIRSTCUT
 62
     1
  0
POLYLINE
  5
3BA4
  8
FIRSTCUT
 62
     1
 66
     1
 10
0.0
 20
0.0
 30
0.0
 70
     1
  0
VERTEX
  5
409B
  8
FIRSTCUT
 62
     1
 10
546.8215714617567
 20
336.1559581499022
 30
0.0
  0
VERTEX
  5
409C
  8
FIRSTCUT
 62
     1
 10
546.7459583362911
 20
337.403669116135
 30
0.0
  0
VERTEX
  5
409D
  8
FIRSTCUT
 62
     1
 10
544.2505364038259
 20
337.2524428652044
 30
0.0
  0
VERTEX
  5
409E
  8
FIRSTCUT
 62
     1
 10
544.326149529291
 20
336.0047318989718
 30
0.0
  0
VERTEX
  5
409F
  8
FIRSTCUT
 62
     1
 10
544.5832341558736
 20
331.7625146137802
 30
0.0
  0
VERTEX
  5
40A0
  8
FIRSTCUT
 62
     1
 10
547.0786560883388
 20
331.9137408647115
 30
0.0
  0
SEQEND
  5
4161
  8
FIRSTCUT
 62
     1
  0
POLYLINE
  5
3BA5
  8
SECONDCUT
 62
     5
 66
     1
 10
0.0
 20
0.0
 30
0.0
 70
     1
  0
VERTEX
  5
40A1
  8
SECONDCUT
 62
     5
 10
429.7489342869914
 20
347.6876284029734
 30
0.0
  0
VERTEX
  5
40A2
  8
SECONDCUT
 62
     5
 10
429.5232573267531
 20
346.2049212086177
 30
0.0
  0
VERTEX
  5
40A3
  8
SECONDCUT
 62
     5
 10
428.5384635937178
 20
346.3532723228465
 30
0.0
  0
VERTEX
  5
40A4
  8
SECONDCUT
 62
     5
 10
428.3173398652265
 20
344.8698310419239
 30
0.0
  0
VERTEX
  5
40A5
  8
SECONDCUT
 62
     5
 10
429.2969332832641
 20
344.7222571025184
 30
0.0
  0
VERTEX
  5
40A6
  8
SECONDCUT
 62
     5
 10
429.1447557258668
 20
343.7235287825877
 30
0.0
  0
VERTEX
  5
40A7
  8
SECONDCUT
 62
     5
 10
427.1658434825814
 20
344.016357221284
 30
0.0
  0
VERTEX
  5
40A8
  8
SECONDCUT
 62
     5
 10
426.7317570116674
 20
341.0851326747485
 30
0.0
 42
-0.2582507175520683
  0
VERTEX
  5
40A9
  8
SECONDCUT
 62
     5
 10
425.1052624268671
 20
345.7417346365843
 30
0.0
  0
VERTEX
  5
40AA
  8
SECONDCUT
 62
     5
 10
425.3405512039313
 20
347.6652176143947
 30
0.0
 42
-0.112517671818221
  0
VERTEX
  5
40AB
  8
SECONDCUT
 62
     5
 10
427.8389851178057
 20
354.3456904536862
 30
0.0
  0
VERTEX
  5
40AC
  8
SECONDCUT
 62
     5
 10
431.825556053645
 20
354.3506315887329
 30
0.0
  0
VERTEX
  5
40AD
  8
SECONDCUT
 62
     5
 10
433.4572224533475
 20
354.3493156819425
 30
0.0
  0
VERTEX
  5
40AE
  8
SECONDCUT
 62
     5
 10
556.7948784786897
 20
353.8314264593502
 30
0.0
  0
VERTEX
  5
40AF
  8
SECONDCUT
 62
     5
 10
557.7689389036622
 20
353.8273364238125
 30
0.0
  0
VERTEX
  5
40B0
  8
SECONDCUT
 62
     5
 10
558.9810682387075
 20
333.8873378354116
 30
0.0
  0
VERTEX
  5
40B1
  8
SECONDCUT
 62
     5
 10
559.647965272463
 20
322.9334492787154
 30
0.0
  0
VERTEX
  5
40B2
  8
SECONDCUT
 62
     5
 10
556.6674104450068
 20
323.4743388686419
 30
0.0
  0
VERTEX
  5
40B3
  8
SECONDCUT
 62
     5
 10
438.59509594126
 20
344.9234441738224
 30
0.0
 42
0.2704700093602971
  0
VERTEX
  5
40B4
  8
SECONDCUT
 62
     5
 10
436.7002371612718
 20
344.2343693373667
 30
0.0
  0
VERTEX
  5
40B5
  8
SECONDCUT
 62
     5
 10
433.2486100283014
 20
340.0837389236774
 30
0.0
  0
VERTEX
  5
40B6
  8
SECONDCUT
 62
     5
 10
432.6617656450215
 20
340.1706449942529
 30
0.0
  0
VERTEX
  5
40B7
  8
SECONDCUT
 62
     5
 10
433.101080582085
 20
343.137175428775
 30
0.0
  0
VERTEX
  5
40B8
  8
SECONDCUT
 62
     5
 10
431.1222016163988
 20
343.4302285787277
 30
0.0
  0
VERTEX
  5
40B9
  8
SECONDCUT
 62
     5
 10
431.2729943104856
 20
344.420942970411
 30
0.0
  0
VERTEX
  5
40BA
  8
SECONDCUT
 62
     5
 10
432.2722442172445
 20
344.2708154227453
 30
0.0
  0
VERTEX
  5
40BB
  8
SECONDCUT
 62
     5
 10
432.4933917814888
 20
345.7544166093469
 30
0.0
  0
VERTEX
  5
40BC
  8
SECONDCUT
 62
     5
 10
431.5005480564049
 20
345.9039656571279
 30
0.0
  0
VERTEX
  5
40BD
  8
SECONDCUT
 62
     5
 10
431.7251525940832
 20
347.3868360806523
 30
0.0
  0
SEQEND
  5
4162
  8
SECONDCUT
 62
     5
  0
CIRCLE
  5
3BA7
  8
FIRSTCUT
 62
     1
 10
474.6602351021867
 20
318.5767656555389
 30
0.0
 40
1.499999999999999
  0
CIRCLE
  5
3BA8
  8
FIRSTCUT
 62
     1
 10
539.3659637648515
 20
313.2493380914117
 30
0.0
 40
1.499999999999999
  0
POLYLINE
  5
3BA9
  8
FIRSTCUT
 62
     1
 66
     1
 10
0.0
 20
0.0
 30
0.0
  0
VERTEX
  5
40BE
  8
FIRSTCUT
 62
     1
 10
448.9928054448555
 20
315.7820846005644
 30
0.0
  0
VERTEX
  5
40BF
  8
FIRSTCUT
 62
     1
 10
449.2498900714376
 20
311.5398673153733
 30
0.0
  0
VERTEX
  5
40C0
  8
FIRSTCUT
 62
     1
 10
451.7453120039031
 20
311.6910935663041
 30
0.0
  0
VERTEX
  5
40C1
  8
FIRSTCUT
 62
     1
 10
451.488227377321
 20
315.9333108514953
 30
0.0
  0
VERTEX
  5
40C2
  8
FIRSTCUT
 62
     1
 10
451.4126142518552
 20
317.1810218177278
 30
0.0
  0
VERTEX
  5
40C3
  8
FIRSTCUT
 62
     1
 10
448.9171923193896
 20
317.0297955667972
 30
0.0
  0
VERTEX
  5
40C4
  8
FIRSTCUT
 62
     1
 10
448.9928054448555
 20
315.7820846005644
 30
0.0
  0
VERTEX
  5
40C5
  8
FIRSTCUT
 62
     1
 10
448.9171923193896
 20
317.0297955667972
 30
0.0
  0
SEQEND
  5
4163
  8
FIRSTCUT
 62
     1
  0
POLYLINE
  5
3BAA
  8
FIRSTCUT
 62
     1
 66
     1
 10
0.0
 20
0.0
 30
0.0
 70
     1
  0
VERTEX
  5
40C6
  8
FIRSTCUT
 62
     1
 10
448.4483909415043
 20
324.7656035574402
 30
0.0
  0
VERTEX
  5
40C7
  8
FIRSTCUT
 62
     1
 10
448.5240040669698
 20
323.5178925912073
 30
0.0
  0
VERTEX
  5
40C8
  8
FIRSTCUT
 62
     1
 10
451.019425999435
 20
323.6691188421379
 30
0.0
  0
VERTEX
  5
40C9
  8
FIRSTCUT
 62
     1
 10
450.94381287397
 20
324.9168298083705
 30
0.0
  0
VERTEX
  5
40CA
  8
FIRSTCUT
 62
     1
 10
450.6867282473874
 20
329.1590470935621
 30
0.0
  0
VERTEX
  5
40CB
  8
FIRSTCUT
 62
     1
 10
448.1913063149221
 20
329.0078208426308
 30
0.0
  0
SEQEND
  5
4164
  8
FIRSTCUT
 62
     1
  0
POLYLINE
  5
3BAB
  8
SECONDCUT
 62
     5
 66
     1
 10
0.0
 20
0.0
 30
0.0
 70
     1
  0
VERTEX
  5
40CC
  8
SECONDCUT
 62
     5
 10
565.5210281162696
 20
313.233933304369
 30
0.0
  0
VERTEX
  5
40CD
  8
SECONDCUT
 62
     5
 10
565.746705076508
 20
314.7166404987246
 30
0.0
  0
VERTEX
  5
40CE
  8
SECONDCUT
 62
     5
 10
566.7314988095433
 20
314.5682893844959
 30
0.0
  0
VERTEX
  5
40CF
  8
SECONDCUT
 62
     5
 10
566.9526225380345
 20
316.0517306654184
 30
0.0
  0
VERTEX
  5
40D0
  8
SECONDCUT
 62
     5
 10
565.9730291199968
 20
316.199304604824
 30
0.0
  0
VERTEX
  5
40D1
  8
SECONDCUT
 62
     5
 10
566.1252066773942
 20
317.1980329247547
 30
0.0
  0
VERTEX
  5
40D2
  8
SECONDCUT
 62
     5
 10
568.1041189206795
 20
316.9052044860583
 30
0.0
  0
VERTEX
  5
40D3
  8
SECONDCUT
 62
     5
 10
568.5382053915936
 20
319.8364290325939
 30
0.0
 42
-0.2582507175520683
  0
VERTEX
  5
40D4
  8
SECONDCUT
 62
     5
 10
570.164699976394
 20
315.1798270707581
 30
0.0
  0
VERTEX
  5
40D5
  8
SECONDCUT
 62
     5
 10
569.9294111993296
 20
313.2563440929476
 30
0.0
 42
-0.112517671818221
  0
VERTEX
  5
40D6
  8
SECONDCUT
 62
     5
 10
567.4309772854552
 20
306.5758712536561
 30
0.0
  0
VERTEX
  5
40D7
  8
SECONDCUT
 62
     5
 10
563.4444063496161
 20
306.5709301186095
 30
0.0
  0
VERTEX
  5
40D8
  8
SECONDCUT
 62
     5
 10
561.8127399499134
 20
306.5722460253999
 30
0.0
  0
VERTEX
  5
40D9
  8
SECONDCUT
 62
     5
 10
438.4750839245712
 20
307.0901352479922
 30
0.0
  0
VERTEX
  5
40DA
  8
SECONDCUT
 62
     5
 10
437.5010234995987
 20
307.0942252835298
 30
0.0
  0
VERTEX
  5
40DB
  8
SECONDCUT
 62
     5
 10
436.2888941645535
 20
327.0342238719307
 30
0.0
  0
VERTEX
  5
40DC
  8
SECONDCUT
 62
     5
 10
435.621997130798
 20
337.9881124286269
 30
0.0
  0
VERTEX
  5
40DD
  8
SECONDCUT
 62
     5
 10
438.6025519582541
 20
337.4472228387004
 30
0.0
  0
VERTEX
  5
40DE
  8
SECONDCUT
 62
     5
 10
556.674866462001
 20
315.9981175335199
 30
0.0
 42
0.2704700093602971
  0
VERTEX
  5
40DF
  8
SECONDCUT
 62
     5
 10
558.5697252419892
 20
316.6871923699756
 30
0.0
  0
VERTEX
  5
40E0
  8
SECONDCUT
 62
     5
 10
562.0213523749595
 20
320.8378227836649
 30
0.0
  0
VERTEX
  5
40E1
  8
SECONDCUT
 62
     5
 10
562.6081967582394
 20
320.7509167130894
 30
0.0
  0
VERTEX
  5
40E2
  8
SECONDCUT
 62
     5
 10
562.1688818211759
 20
317.7843862785674
 30
0.0
  0
VERTEX
  5
40E3
  8
SECONDCUT
 62
     5
 10
564.1477607868622
 20
317.4913331286147
 30
0.0
  0
VERTEX
  5
40E4
  8
SECONDCUT
 62
     5
 10
563.9969680927753
 20
316.5006187369313
 30
0.0
  0
VERTEX
  5
40E5
  8
SECONDCUT
 62
     5
 10
562.9977181860164
 20
316.6507462845971
 30
0.0
  0
VERTEX
  5
40E6
  8
SECONDCUT
 62
     5
 10
562.7765706217723
 20
315.1671450979954
 30
0.0
  0
VERTEX
  5
40E7
  8
SECONDCUT
 62
     5
 10
563.769414346856
 20
315.0175960502145
 30
0.0
  0
VERTEX
  5
40E8
  8
SECONDCUT
 62
     5
 10
563.5448098091778
 20
313.53472562669
 30
0.0
  0
SEQEND
  5
4165
  8
SECONDCUT
 62
     5
  0
CIRCLE
  5
3BAD
  8
FIRSTCUT
 62
     1
 10
511.3808976381791
 20
374.7505773743968
 30
0.0
 40
1.499999999999999
  0
CIRCLE
  5
3BAE
  8
FIRSTCUT
 62
     1
 10
446.4629170852483
 20
373.8185864159195
 30
0.0
 40
1.499999999999999
  0
POLYLINE
  5
3BAF
  8
FIRSTCUT
 62
     1
 66
     1
 10
0.0
 20
0.0
 30
0.0
  0
VERTEX
  5
40E9
  8
FIRSTCUT
 62
     1
 10
536.6596233823346
 20
380.0054048848717
 30
0.0
  0
VERTEX
  5
40EA
  8
FIRSTCUT
 62
     1
 10
535.9949819555911
 20
384.2031128039455
 30
0.0
  0
VERTEX
  5
40EB
  8
FIRSTCUT
 62
     1
 10
533.5257420031948
 20
383.812147258802
 30
0.0
  0
VERTEX
  5
40EC
  8
FIRSTCUT
 62
     1
 10
534.1903834299384
 20
379.6144393397281
 30
0.0
  0
VERTEX
  5
40ED
  8
FIRSTCUT
 62
     1
 10
534.3858662025103
 20
378.3798193635301
 30
0.0
  0
VERTEX
  5
40EE
  8
FIRSTCUT
 62
     1
 10
536.855106154907
 20
378.7707849086732
 30
0.0
  0
VERTEX
  5
40EF
  8
FIRSTCUT
 62
     1
 10
536.6596233823346
 20
380.0054048848717
 30
0.0
  0
VERTEX
  5
40F0
  8
FIRSTCUT
 62
     1
 10
536.855106154907
 20
378.7707849086732
 30
0.0
  0
SEQEND
  5
4166
  8
FIRSTCUT
 62
     1
  0
POLYLINE
  5
3BB0
  8
FIRSTCUT
 62
     1
 66
     1
 10
0.0
 20
0.0
 30
0.0
 70
     1
  0
VERTEX
  5
40F1
  8
FIRSTCUT
 62
     1
 10
538.0670993448515
 20
371.1161410562442
 30
0.0
  0
VERTEX
  5
40F2
  8
FIRSTCUT
 62
     1
 10
537.8716165722795
 20
372.3507610324426
 30
0.0
  0
VERTEX
  5
40F3
  8
FIRSTCUT
 62
     1
 10
535.4023766198833
 20
371.9597954872994
 30
0.0
  0
VERTEX
  5
40F4
  8
FIRSTCUT
 62
     1
 10
535.5978593924548
 20
370.7251755111013
 30
0.0
  0
VERTEX
  5
40F5
  8
FIRSTCUT
 62
     1
 10
536.262500819199
 20
366.527467592027
 30
0.0
  0
VERTEX
  5
40F6
  8
FIRSTCUT
 62
     1
 10
538.7317407715951
 20
366.9184331371709
 30
0.0
  0
SEQEND
  5
4167
  8
FIRSTCUT
 62
     1
  0
POLYLINE
  5
3BB1
  8
SECONDCUT
 62
     5
 66
     1
 10
0.0
 20
0.0
 30
0.0
 70
     1
  0
VERTEX
  5
40F7
  8
SECONDCUT
 62
     5
 10
420.4280636001567
 20
371.3137845187382
 30
0.0
  0
VERTEX
  5
40F8
  8
SECONDCUT
 62
     5
 10
420.3463008759445
 20
369.8162313238547
 30
0.0
  0
VERTEX
  5
40F9
  8
SECONDCUT
 62
     5
 10
419.3517950585067
 20
369.8690037484827
 30
0.0
  0
VERTEX
  5
40FA
  8
SECONDCUT
 62
     5
 10
419.2746351125043
 20
368.3711586029553
 30
0.0
  0
VERTEX
  5
40FB
  8
SECONDCUT
 62
     5
 10
420.2638899275428
 20
368.3186586679344
 30
0.0
  0
VERTEX
  5
40FC
  8
SECONDCUT
 62
     5
 10
420.2086515113762
 20
367.3099144072883
 30
0.0
  0
VERTEX
  5
40FD
  8
SECONDCUT
 62
     5
 10
418.2107317395748
 20
367.4107050148876
 30
0.0
  0
VERTEX
  5
40FE
  8
SECONDCUT
 62
     5
 10
418.0610990832359
 20
364.4512931688276
 30
0.0
 42
-0.2582507175520683
  0
VERTEX
  5
40FF
  8
SECONDCUT
 62
     5
 10
415.9934918738034
 20
368.9295101011411
 30
0.0
  0
VERTEX
  5
4100
  8
SECONDCUT
 62
     5
 10
416.0423513523868
 20
370.8667143562189
 30
0.0
 42
-0.112517671818221
  0
VERTEX
  5
4101
  8
SECONDCUT
 62
     5
 10
417.8854727580579
 20
377.7568372043593
 30
0.0
  0
VERTEX
  5
4102
  8
SECONDCUT
 62
     5
 10
421.8530187447921
 20
378.1458758713884
 30
0.0
  0
VERTEX
  5
4103
  8
SECONDCUT
 62
     5
 10
423.4772200639347
 20
378.3017830438465
 30
0.0
  0
VERTEX
  5
4104
  8
SECONDCUT
 62
     5
 10
546.2909069460935
 20
389.6703325328369
 30
0.0
  0
VERTEX
  5
4105
  8
SECONDCUT
 62
     5
 10
547.2608293192923
 20
389.7601157710092
 30
0.0
  0
VERTEX
  5
4106
  8
SECONDCUT
 62
     5
 10
550.3886097705264
 20
370.0296877300572
 30
0.0
  0
VERTEX
  5
4107
  8
SECONDCUT
 62
     5
 10
552.1078506069558
 20
359.1910237389325
 30
0.0
  0
VERTEX
  5
4108
  8
SECONDCUT
 62
     5
 10
549.089047138944
 20
359.4422094261884
 30
0.0
  0
VERTEX
  5
4109
  8
SECONDCUT
 62
     5
 10
429.4994046763162
 20
369.414821236807
 30
0.0
 42
0.2704700093602971
  0
VERTEX
  5
410A
  8
SECONDCUT
 62
     5
 10
427.6797572114212
 20
368.5463760572848
 30
0.0
  0
VERTEX
  5
410B
  8
SECONDCUT
 62
     5
 10
424.6441181726813
 20
364.0824810851132
 30
0.0
  0
VERTEX
  5
410C
  8
SECONDCUT
 62
     5
 10
424.051630564823
 20
364.1124382182272
 30
0.0
  0
VERTEX
  5
410D
  8
SECONDCUT
 62
     5
 10
424.203065510178
 20
367.1074954614529
 30
0.0
  0
VERTEX
  5
410E
  8
SECONDCUT
 62
     5
 10
422.2051572093989
 20
367.2085129411813
 30
0.0
  0
VERTEX
  5
410F
  8
SECONDCUT
 62
     5
 10
422.2597893767535
 20
368.2091471244714
 30
0.0
  0
VERTEX
  5
4110
  8
SECONDCUT
 62
     5
 10
423.2688552715217
 20
368.1559994364578
 30
0.0
  0
VERTEX
  5
4111
  8
SECONDCUT
 62
     5
 10
423.3460235348832
 20
369.6540060403106
 30
0.0
  0
VERTEX
  5
4112
  8
SECONDCUT
 62
     5
 10
422.3433897554452
 20
369.707195178868
 30
0.0
  0
VERTEX
  5
4113
  8
SECONDCUT
 62
     5
 10
422.4240693191813
 20
371.2048075116513
 30
0.0
  0
SEQEND
  5
4168
  8
SECONDCUT
 62
     5
  0
LINE
  5
3BBC
  8
MARKERS
 10
595.4134169800365
 20
0.4482903553976598
 30
0.0
 11
595.4134169800365
 21
420.4482903553977
 31
0.0
  0
ENDSEC
  0
EOF
